ISO-10303-21;
HEADER;
/* Generated by software containing ST-Developer
 * from STEP Tools, Inc. (www.steptools.com) 
 */
/* OPTION: using custom renumber hook */

FILE_DESCRIPTION(
/* description */ ('STEP AP242 Edition 2',
'CAx-IF Rec.Pracs.---Representation and Presentation of Product Manufa
cturing Information (PMI)---4.0---2014-10-13',
'CAx-IF Rec.Pracs.---3D Tessellated Geometry---0.4---2014-09-14','2;1',
'CAx-IF Rec.Pracs.---User Defined Attributes---1.5---2016-08-15'),
/* implementation_level */ '2;1');

FILE_NAME(
/* name */ 'Part Studio 1 - Part 14',
/* time_stamp */ '2026-09-10T16:33:47Z',
/* author */ (''),
/* organization */ (''),
/* preprocessor_version */ 'ST-DEVELOPER v20',
/* originating_system */ 'ONSHAPE BY PTC INC, 1.220',
/* authorisation */ '  ');

FILE_SCHEMA (('AP242_MANAGED_MODEL_BASED_3D_ENGINEERING_MIM_LF { 1 0 10303 442 3 1 4 }'));
ENDSEC;

DATA;
#10=SHAPE_REPRESENTATION_RELATIONSHIP('','',#659,#11);
#11=ADVANCED_BREP_SHAPE_REPRESENTATION('',(#657),#1173);
#12=LINE('',#920,#60);
#13=LINE('',#923,#61);
#14=LINE('',#925,#62);
#15=LINE('',#927,#63);
#16=LINE('',#929,#64);
#17=LINE('',#931,#65);
#18=LINE('',#933,#66);
#19=LINE('',#935,#67);
#20=LINE('',#940,#68);
#21=LINE('',#942,#69);
#22=LINE('',#944,#70);
#23=LINE('',#946,#71);
#24=LINE('',#951,#72);
#25=LINE('',#953,#73);
#26=LINE('',#955,#74);
#27=LINE('',#990,#75);
#28=LINE('',#992,#76);
#29=LINE('',#993,#77);
#30=LINE('',#1002,#78);
#31=LINE('',#1004,#79);
#32=LINE('',#1006,#80);
#33=LINE('',#1014,#81);
#34=LINE('',#1017,#82);
#35=LINE('',#1019,#83);
#36=LINE('',#1021,#84);
#37=LINE('',#1023,#85);
#38=LINE('',#1028,#86);
#39=LINE('',#1030,#87);
#40=LINE('',#1032,#88);
#41=LINE('',#1037,#89);
#42=LINE('',#1039,#90);
#43=LINE('',#1041,#91);
#44=LINE('',#1043,#92);
#45=LINE('',#1075,#93);
#46=LINE('',#1077,#94);
#47=LINE('',#1078,#95);
#48=LINE('',#1079,#96);
#49=LINE('',#1081,#97);
#50=LINE('',#1096,#98);
#51=LINE('',#1103,#99);
#52=LINE('',#1105,#100);
#53=LINE('',#1107,#101);
#54=LINE('',#1128,#102);
#55=LINE('',#1135,#103);
#56=LINE('',#1137,#104);
#57=LINE('',#1139,#105);
#58=LINE('',#1158,#106);
#59=LINE('',#1167,#107);
#60=VECTOR('',#719,1.);
#61=VECTOR('',#720,1.);
#62=VECTOR('',#721,1.);
#63=VECTOR('',#722,1.);
#64=VECTOR('',#723,1.);
#65=VECTOR('',#724,1.);
#66=VECTOR('',#725,1.);
#67=VECTOR('',#726,1.);
#68=VECTOR('',#727,1.);
#69=VECTOR('',#728,1.);
#70=VECTOR('',#729,1.);
#71=VECTOR('',#730,1.);
#72=VECTOR('',#731,1.);
#73=VECTOR('',#732,1.);
#74=VECTOR('',#733,1.);
#75=VECTOR('',#746,1.);
#76=VECTOR('',#747,1.);
#77=VECTOR('',#748,1.);
#78=VECTOR('',#749,1.);
#79=VECTOR('',#750,1.);
#80=VECTOR('',#751,1.);
#81=VECTOR('',#758,1.);
#82=VECTOR('',#759,1.);
#83=VECTOR('',#760,1.);
#84=VECTOR('',#761,1.);
#85=VECTOR('',#762,1.);
#86=VECTOR('',#763,1.);
#87=VECTOR('',#764,1.);
#88=VECTOR('',#765,1.);
#89=VECTOR('',#766,1.);
#90=VECTOR('',#767,1.);
#91=VECTOR('',#768,1.);
#92=VECTOR('',#769,1.);
#93=VECTOR('',#776,1.);
#94=VECTOR('',#777,1.);
#95=VECTOR('',#778,1.);
#96=VECTOR('',#779,1.);
#97=VECTOR('',#780,1.);
#98=VECTOR('',#783,1.);
#99=VECTOR('',#786,1.);
#100=VECTOR('',#787,1.);
#101=VECTOR('',#788,1.);
#102=VECTOR('',#795,1.);
#103=VECTOR('',#798,1.);
#104=VECTOR('',#799,1.);
#105=VECTOR('',#800,1.);
#106=VECTOR('',#805,1.);
#107=VECTOR('',#806,1.);
#108=B_SPLINE_SURFACE_WITH_KNOTS('',1,1,((#916,#917),(#918,#919)),
 .PLANE_SURF.,.F.,.F.,.F.,(2,2),(2,2),(0.,1.),(0.,1.),.UNSPECIFIED.);
#109=B_SPLINE_SURFACE_WITH_KNOTS('',1,1,((#936,#937),(#938,#939)),
 .PLANE_SURF.,.F.,.F.,.F.,(2,2),(2,2),(0.,1.),(0.,1.),.UNSPECIFIED.);
#110=B_SPLINE_SURFACE_WITH_KNOTS('',1,1,((#947,#948),(#949,#950)),
 .PLANE_SURF.,.F.,.F.,.F.,(2,2),(2,2),(0.,1.),(0.,1.),.UNSPECIFIED.);
#111=B_SPLINE_SURFACE_WITH_KNOTS('',1,1,((#986,#987),(#988,#989)),
 .PLANE_SURF.,.F.,.F.,.F.,(2,2),(2,2),(0.,1.),(0.,1.),.UNSPECIFIED.);
#112=B_SPLINE_SURFACE_WITH_KNOTS('',1,1,((#994,#995),(#996,#997)),
 .PLANE_SURF.,.F.,.F.,.F.,(2,2),(2,2),(0.,1.),(0.,1.),.UNSPECIFIED.);
#113=B_SPLINE_SURFACE_WITH_KNOTS('',1,1,((#998,#999),(#1000,#1001)),
 .PLANE_SURF.,.F.,.F.,.F.,(2,2),(2,2),(0.,1.),(0.,1.),.UNSPECIFIED.);
#114=B_SPLINE_SURFACE_WITH_KNOTS('',1,1,((#1010,#1011),(#1012,#1013)),
 .PLANE_SURF.,.F.,.F.,.F.,(2,2),(2,2),(0.,1.),(0.,1.),.UNSPECIFIED.);
#115=B_SPLINE_SURFACE_WITH_KNOTS('',1,1,((#1024,#1025),(#1026,#1027)),
 .PLANE_SURF.,.F.,.F.,.F.,(2,2),(2,2),(0.,1.),(0.,1.),.UNSPECIFIED.);
#116=B_SPLINE_SURFACE_WITH_KNOTS('',1,1,((#1033,#1034),(#1035,#1036)),
 .PLANE_SURF.,.F.,.F.,.F.,(2,2),(2,2),(0.,1.),(0.,1.),.UNSPECIFIED.);
#117=B_SPLINE_SURFACE_WITH_KNOTS('',1,1,((#1071,#1072),(#1073,#1074)),
 .PLANE_SURF.,.F.,.F.,.F.,(2,2),(2,2),(0.,1.),(0.,1.),.UNSPECIFIED.);
#118=B_SPLINE_SURFACE_WITH_KNOTS('',1,1,((#1082,#1083),(#1084,#1085)),
 .PLANE_SURF.,.F.,.F.,.F.,(2,2),(2,2),(0.,1.),(0.,1.),.UNSPECIFIED.);
#119=B_SPLINE_SURFACE_WITH_KNOTS('',1,1,((#1099,#1100),(#1101,#1102)),
 .PLANE_SURF.,.F.,.F.,.F.,(2,2),(2,2),(0.,1.),(0.,1.),.UNSPECIFIED.);
#120=B_SPLINE_SURFACE_WITH_KNOTS('',1,1,((#1131,#1132),(#1133,#1134)),
 .PLANE_SURF.,.F.,.F.,.F.,(2,2),(2,2),(0.,1.),(0.,1.),.UNSPECIFIED.);
#121=B_SPLINE_SURFACE_WITH_KNOTS('',1,1,((#1150,#1151),(#1152,#1153)),
 .PLANE_SURF.,.F.,.F.,.F.,(2,2),(2,2),(0.,1.),(0.,1.),.UNSPECIFIED.);
#122=B_SPLINE_SURFACE_WITH_KNOTS('',1,1,((#1154,#1155),(#1156,#1157)),
 .PLANE_SURF.,.F.,.F.,.F.,(2,2),(2,2),(0.,1.),(0.,1.),.UNSPECIFIED.);
#123=B_SPLINE_SURFACE_WITH_KNOTS('',1,1,((#1159,#1160),(#1161,#1162)),
 .PLANE_SURF.,.F.,.F.,.F.,(2,2),(2,2),(0.0437361783584399,0.954545454545454),
(0.0454545454545455,0.954545454545454),.PIECEWISE_BEZIER_KNOTS.);
#124=B_SPLINE_SURFACE_WITH_KNOTS('',1,1,((#1163,#1164),(#1165,#1166)),
 .PLANE_SURF.,.F.,.F.,.F.,(2,2),(2,2),(0.,1.),(0.,1.),.UNSPECIFIED.);
#125=B_SPLINE_SURFACE_WITH_KNOTS('',1,1,((#1168,#1169),(#1170,#1171)),
 .PLANE_SURF.,.F.,.F.,.F.,(2,2),(2,2),(0.0454545454545456,0.95622147183667),
(0.0454545454545455,0.954545454545454),.PIECEWISE_BEZIER_KNOTS.);
#126=(
BOUNDED_CURVE()
B_SPLINE_CURVE(1,(#819,#820),.UNSPECIFIED.,.F.,.F.)
B_SPLINE_CURVE_WITH_KNOTS((2,2),(0.,1.),.PIECEWISE_BEZIER_KNOTS.)
CURVE()
GEOMETRIC_REPRESENTATION_ITEM()
RATIONAL_B_SPLINE_CURVE((1.,1.))
REPRESENTATION_ITEM('')
);
#127=(
BOUNDED_CURVE()
B_SPLINE_CURVE(1,(#824,#825),.UNSPECIFIED.,.F.,.F.)
B_SPLINE_CURVE_WITH_KNOTS((2,2),(0.,1.),.PIECEWISE_BEZIER_KNOTS.)
CURVE()
GEOMETRIC_REPRESENTATION_ITEM()
RATIONAL_B_SPLINE_CURVE((1.,1.))
REPRESENTATION_ITEM('')
);
#128=(
BOUNDED_CURVE()
B_SPLINE_CURVE(1,(#837,#838),.UNSPECIFIED.,.F.,.F.)
B_SPLINE_CURVE_WITH_KNOTS((2,2),(0.,1.),.PIECEWISE_BEZIER_KNOTS.)
CURVE()
GEOMETRIC_REPRESENTATION_ITEM()
RATIONAL_B_SPLINE_CURVE((1.,1.))
REPRESENTATION_ITEM('')
);
#129=(
BOUNDED_CURVE()
B_SPLINE_CURVE(1,(#842,#843),.UNSPECIFIED.,.F.,.F.)
B_SPLINE_CURVE_WITH_KNOTS((2,2),(0.,1.),.PIECEWISE_BEZIER_KNOTS.)
CURVE()
GEOMETRIC_REPRESENTATION_ITEM()
RATIONAL_B_SPLINE_CURVE((1.,1.))
REPRESENTATION_ITEM('')
);
#130=(
BOUNDED_CURVE()
B_SPLINE_CURVE(1,(#855,#856),.UNSPECIFIED.,.F.,.F.)
B_SPLINE_CURVE_WITH_KNOTS((2,2),(0.,1.),.PIECEWISE_BEZIER_KNOTS.)
CURVE()
GEOMETRIC_REPRESENTATION_ITEM()
RATIONAL_B_SPLINE_CURVE((1.,1.))
REPRESENTATION_ITEM('')
);
#131=(
BOUNDED_CURVE()
B_SPLINE_CURVE(1,(#860,#861),.UNSPECIFIED.,.F.,.F.)
B_SPLINE_CURVE_WITH_KNOTS((2,2),(0.,1.),.PIECEWISE_BEZIER_KNOTS.)
CURVE()
GEOMETRIC_REPRESENTATION_ITEM()
RATIONAL_B_SPLINE_CURVE((1.,1.))
REPRESENTATION_ITEM('')
);
#132=(
BOUNDED_CURVE()
B_SPLINE_CURVE(1,(#873,#874),.UNSPECIFIED.,.F.,.F.)
B_SPLINE_CURVE_WITH_KNOTS((2,2),(0.,1.),.PIECEWISE_BEZIER_KNOTS.)
CURVE()
GEOMETRIC_REPRESENTATION_ITEM()
RATIONAL_B_SPLINE_CURVE((1.,1.))
REPRESENTATION_ITEM('')
);
#133=(
BOUNDED_CURVE()
B_SPLINE_CURVE(1,(#878,#879),.UNSPECIFIED.,.F.,.F.)
B_SPLINE_CURVE_WITH_KNOTS((2,2),(0.,1.),.PIECEWISE_BEZIER_KNOTS.)
CURVE()
GEOMETRIC_REPRESENTATION_ITEM()
RATIONAL_B_SPLINE_CURVE((1.,1.))
REPRESENTATION_ITEM('')
);
#134=(
BOUNDED_CURVE()
B_SPLINE_CURVE(1,(#891,#892),.UNSPECIFIED.,.F.,.F.)
B_SPLINE_CURVE_WITH_KNOTS((2,2),(0.,1.),.PIECEWISE_BEZIER_KNOTS.)
CURVE()
GEOMETRIC_REPRESENTATION_ITEM()
RATIONAL_B_SPLINE_CURVE((1.,1.))
REPRESENTATION_ITEM('')
);
#135=(
BOUNDED_CURVE()
B_SPLINE_CURVE(1,(#896,#897),.UNSPECIFIED.,.F.,.F.)
B_SPLINE_CURVE_WITH_KNOTS((2,2),(0.,1.),.PIECEWISE_BEZIER_KNOTS.)
CURVE()
GEOMETRIC_REPRESENTATION_ITEM()
RATIONAL_B_SPLINE_CURVE((1.,1.))
REPRESENTATION_ITEM('')
);
#136=(
BOUNDED_CURVE()
B_SPLINE_CURVE(1,(#909,#910),.UNSPECIFIED.,.F.,.F.)
B_SPLINE_CURVE_WITH_KNOTS((2,2),(0.,1.),.PIECEWISE_BEZIER_KNOTS.)
CURVE()
GEOMETRIC_REPRESENTATION_ITEM()
RATIONAL_B_SPLINE_CURVE((1.,1.))
REPRESENTATION_ITEM('')
);
#137=(
BOUNDED_CURVE()
B_SPLINE_CURVE(1,(#914,#915),.UNSPECIFIED.,.F.,.F.)
B_SPLINE_CURVE_WITH_KNOTS((2,2),(0.,1.),.PIECEWISE_BEZIER_KNOTS.)
CURVE()
GEOMETRIC_REPRESENTATION_ITEM()
RATIONAL_B_SPLINE_CURVE((1.,1.))
REPRESENTATION_ITEM('')
);
#138=ORIENTED_EDGE('',*,*,#322,.T.);
#139=ORIENTED_EDGE('',*,*,#323,.T.);
#140=ORIENTED_EDGE('',*,*,#324,.F.);
#141=ORIENTED_EDGE('',*,*,#325,.F.);
#142=ORIENTED_EDGE('',*,*,#326,.T.);
#143=ORIENTED_EDGE('',*,*,#327,.T.);
#144=ORIENTED_EDGE('',*,*,#328,.F.);
#145=ORIENTED_EDGE('',*,*,#329,.F.);
#146=ORIENTED_EDGE('',*,*,#330,.T.);
#147=ORIENTED_EDGE('',*,*,#331,.T.);
#148=ORIENTED_EDGE('',*,*,#332,.F.);
#149=ORIENTED_EDGE('',*,*,#333,.F.);
#150=ORIENTED_EDGE('',*,*,#334,.T.);
#151=ORIENTED_EDGE('',*,*,#335,.T.);
#152=ORIENTED_EDGE('',*,*,#336,.F.);
#153=ORIENTED_EDGE('',*,*,#337,.F.);
#154=ORIENTED_EDGE('',*,*,#338,.T.);
#155=ORIENTED_EDGE('',*,*,#339,.T.);
#156=ORIENTED_EDGE('',*,*,#340,.F.);
#157=ORIENTED_EDGE('',*,*,#341,.F.);
#158=ORIENTED_EDGE('',*,*,#342,.T.);
#159=ORIENTED_EDGE('',*,*,#343,.T.);
#160=ORIENTED_EDGE('',*,*,#344,.F.);
#161=ORIENTED_EDGE('',*,*,#345,.F.);
#162=ORIENTED_EDGE('',*,*,#346,.F.);
#163=ORIENTED_EDGE('',*,*,#347,.F.);
#164=ORIENTED_EDGE('',*,*,#348,.T.);
#165=ORIENTED_EDGE('',*,*,#349,.F.);
#166=ORIENTED_EDGE('',*,*,#350,.T.);
#167=ORIENTED_EDGE('',*,*,#351,.T.);
#168=ORIENTED_EDGE('',*,*,#352,.T.);
#169=ORIENTED_EDGE('',*,*,#353,.T.);
#170=ORIENTED_EDGE('',*,*,#349,.T.);
#171=ORIENTED_EDGE('',*,*,#354,.T.);
#172=ORIENTED_EDGE('',*,*,#355,.F.);
#173=ORIENTED_EDGE('',*,*,#356,.F.);
#174=ORIENTED_EDGE('',*,*,#357,.F.);
#175=ORIENTED_EDGE('',*,*,#356,.T.);
#176=ORIENTED_EDGE('',*,*,#358,.T.);
#177=ORIENTED_EDGE('',*,*,#359,.F.);
#178=ORIENTED_EDGE('',*,*,#360,.F.);
#179=ORIENTED_EDGE('',*,*,#343,.F.);
#180=ORIENTED_EDGE('',*,*,#361,.T.);
#181=ORIENTED_EDGE('',*,*,#345,.T.);
#182=ORIENTED_EDGE('',*,*,#362,.F.);
#183=ORIENTED_EDGE('',*,*,#339,.F.);
#184=ORIENTED_EDGE('',*,*,#363,.T.);
#185=ORIENTED_EDGE('',*,*,#341,.T.);
#186=ORIENTED_EDGE('',*,*,#364,.F.);
#187=ORIENTED_EDGE('',*,*,#335,.F.);
#188=ORIENTED_EDGE('',*,*,#365,.T.);
#189=ORIENTED_EDGE('',*,*,#337,.T.);
#190=ORIENTED_EDGE('',*,*,#366,.F.);
#191=ORIENTED_EDGE('',*,*,#367,.T.);
#192=ORIENTED_EDGE('',*,*,#368,.T.);
#193=ORIENTED_EDGE('',*,*,#351,.F.);
#194=ORIENTED_EDGE('',*,*,#369,.F.);
#195=ORIENTED_EDGE('',*,*,#359,.T.);
#196=ORIENTED_EDGE('',*,*,#334,.F.);
#197=ORIENTED_EDGE('',*,*,#365,.F.);
#198=ORIENTED_EDGE('',*,*,#338,.F.);
#199=ORIENTED_EDGE('',*,*,#363,.F.);
#200=ORIENTED_EDGE('',*,*,#342,.F.);
#201=ORIENTED_EDGE('',*,*,#361,.F.);
#202=ORIENTED_EDGE('',*,*,#350,.F.);
#203=ORIENTED_EDGE('',*,*,#357,.T.);
#204=ORIENTED_EDGE('',*,*,#360,.T.);
#205=ORIENTED_EDGE('',*,*,#369,.T.);
#206=ORIENTED_EDGE('',*,*,#336,.T.);
#207=ORIENTED_EDGE('',*,*,#366,.T.);
#208=ORIENTED_EDGE('',*,*,#340,.T.);
#209=ORIENTED_EDGE('',*,*,#364,.T.);
#210=ORIENTED_EDGE('',*,*,#344,.T.);
#211=ORIENTED_EDGE('',*,*,#362,.T.);
#212=ORIENTED_EDGE('',*,*,#346,.T.);
#213=ORIENTED_EDGE('',*,*,#370,.T.);
#214=ORIENTED_EDGE('',*,*,#371,.T.);
#215=ORIENTED_EDGE('',*,*,#372,.T.);
#216=ORIENTED_EDGE('',*,*,#324,.T.);
#217=ORIENTED_EDGE('',*,*,#373,.T.);
#218=ORIENTED_EDGE('',*,*,#328,.T.);
#219=ORIENTED_EDGE('',*,*,#374,.T.);
#220=ORIENTED_EDGE('',*,*,#332,.T.);
#221=ORIENTED_EDGE('',*,*,#375,.T.);
#222=ORIENTED_EDGE('',*,*,#376,.T.);
#223=ORIENTED_EDGE('',*,*,#377,.T.);
#224=ORIENTED_EDGE('',*,*,#378,.F.);
#225=ORIENTED_EDGE('',*,*,#379,.F.);
#226=ORIENTED_EDGE('',*,*,#380,.F.);
#227=ORIENTED_EDGE('',*,*,#379,.T.);
#228=ORIENTED_EDGE('',*,*,#381,.T.);
#229=ORIENTED_EDGE('',*,*,#382,.F.);
#230=ORIENTED_EDGE('',*,*,#383,.F.);
#231=ORIENTED_EDGE('',*,*,#384,.T.);
#232=ORIENTED_EDGE('',*,*,#385,.T.);
#233=ORIENTED_EDGE('',*,*,#386,.F.);
#234=ORIENTED_EDGE('',*,*,#387,.F.);
#235=ORIENTED_EDGE('',*,*,#382,.T.);
#236=ORIENTED_EDGE('',*,*,#331,.F.);
#237=ORIENTED_EDGE('',*,*,#388,.T.);
#238=ORIENTED_EDGE('',*,*,#333,.T.);
#239=ORIENTED_EDGE('',*,*,#375,.F.);
#240=ORIENTED_EDGE('',*,*,#327,.F.);
#241=ORIENTED_EDGE('',*,*,#389,.T.);
#242=ORIENTED_EDGE('',*,*,#329,.T.);
#243=ORIENTED_EDGE('',*,*,#374,.F.);
#244=ORIENTED_EDGE('',*,*,#323,.F.);
#245=ORIENTED_EDGE('',*,*,#390,.T.);
#246=ORIENTED_EDGE('',*,*,#325,.T.);
#247=ORIENTED_EDGE('',*,*,#373,.F.);
#248=ORIENTED_EDGE('',*,*,#371,.F.);
#249=ORIENTED_EDGE('',*,*,#391,.F.);
#250=ORIENTED_EDGE('',*,*,#392,.T.);
#251=ORIENTED_EDGE('',*,*,#376,.F.);
#252=ORIENTED_EDGE('',*,*,#393,.T.);
#253=ORIENTED_EDGE('',*,*,#386,.T.);
#254=ORIENTED_EDGE('',*,*,#394,.T.);
#255=ORIENTED_EDGE('',*,*,#395,.T.);
#256=ORIENTED_EDGE('',*,*,#322,.F.);
#257=ORIENTED_EDGE('',*,*,#390,.F.);
#258=ORIENTED_EDGE('',*,*,#326,.F.);
#259=ORIENTED_EDGE('',*,*,#389,.F.);
#260=ORIENTED_EDGE('',*,*,#330,.F.);
#261=ORIENTED_EDGE('',*,*,#388,.F.);
#262=ORIENTED_EDGE('',*,*,#380,.T.);
#263=ORIENTED_EDGE('',*,*,#383,.T.);
#264=ORIENTED_EDGE('',*,*,#387,.T.);
#265=ORIENTED_EDGE('',*,*,#393,.F.);
#266=ORIENTED_EDGE('',*,*,#396,.F.);
#267=ORIENTED_EDGE('',*,*,#397,.F.);
#268=ORIENTED_EDGE('',*,*,#398,.T.);
#269=ORIENTED_EDGE('',*,*,#378,.T.);
#270=ORIENTED_EDGE('',*,*,#397,.T.);
#271=ORIENTED_EDGE('',*,*,#399,.T.);
#272=ORIENTED_EDGE('',*,*,#400,.F.);
#273=ORIENTED_EDGE('',*,*,#401,.F.);
#274=ORIENTED_EDGE('',*,*,#402,.F.);
#275=ORIENTED_EDGE('',*,*,#367,.F.);
#276=ORIENTED_EDGE('',*,*,#403,.T.);
#277=ORIENTED_EDGE('',*,*,#400,.T.);
#278=ORIENTED_EDGE('',*,*,#404,.F.);
#279=ORIENTED_EDGE('',*,*,#405,.F.);
#280=ORIENTED_EDGE('',*,*,#406,.T.);
#281=ORIENTED_EDGE('',*,*,#355,.T.);
#282=ORIENTED_EDGE('',*,*,#407,.F.);
#283=ORIENTED_EDGE('',*,*,#408,.F.);
#284=ORIENTED_EDGE('',*,*,#409,.T.);
#285=ORIENTED_EDGE('',*,*,#405,.T.);
#286=ORIENTED_EDGE('',*,*,#410,.F.);
#287=ORIENTED_EDGE('',*,*,#384,.F.);
#288=ORIENTED_EDGE('',*,*,#411,.T.);
#289=ORIENTED_EDGE('',*,*,#408,.T.);
#290=ORIENTED_EDGE('',*,*,#381,.F.);
#291=ORIENTED_EDGE('',*,*,#398,.F.);
#292=ORIENTED_EDGE('',*,*,#401,.T.);
#293=ORIENTED_EDGE('',*,*,#403,.F.);
#294=ORIENTED_EDGE('',*,*,#358,.F.);
#295=ORIENTED_EDGE('',*,*,#406,.F.);
#296=ORIENTED_EDGE('',*,*,#409,.F.);
#297=ORIENTED_EDGE('',*,*,#411,.F.);
#298=ORIENTED_EDGE('',*,*,#372,.F.);
#299=ORIENTED_EDGE('',*,*,#395,.F.);
#300=ORIENTED_EDGE('',*,*,#412,.T.);
#301=ORIENTED_EDGE('',*,*,#347,.T.);
#302=ORIENTED_EDGE('',*,*,#394,.F.);
#303=ORIENTED_EDGE('',*,*,#385,.F.);
#304=ORIENTED_EDGE('',*,*,#410,.T.);
#305=ORIENTED_EDGE('',*,*,#407,.T.);
#306=ORIENTED_EDGE('',*,*,#404,.T.);
#307=ORIENTED_EDGE('',*,*,#354,.F.);
#308=ORIENTED_EDGE('',*,*,#348,.F.);
#309=ORIENTED_EDGE('',*,*,#412,.F.);
#310=ORIENTED_EDGE('',*,*,#370,.F.);
#311=ORIENTED_EDGE('',*,*,#353,.F.);
#312=ORIENTED_EDGE('',*,*,#413,.T.);
#313=ORIENTED_EDGE('',*,*,#391,.T.);
#314=ORIENTED_EDGE('',*,*,#392,.F.);
#315=ORIENTED_EDGE('',*,*,#413,.F.);
#316=ORIENTED_EDGE('',*,*,#352,.F.);
#317=ORIENTED_EDGE('',*,*,#368,.F.);
#318=ORIENTED_EDGE('',*,*,#402,.T.);
#319=ORIENTED_EDGE('',*,*,#399,.F.);
#320=ORIENTED_EDGE('',*,*,#396,.T.);
#321=ORIENTED_EDGE('',*,*,#377,.F.);
#322=EDGE_CURVE('',#414,#415,#474,.T.);
#323=EDGE_CURVE('',#415,#416,#126,.T.);
#324=EDGE_CURVE('',#417,#416,#475,.T.);
#325=EDGE_CURVE('',#414,#417,#127,.T.);
#326=EDGE_CURVE('',#418,#419,#476,.T.);
#327=EDGE_CURVE('',#419,#420,#128,.T.);
#328=EDGE_CURVE('',#421,#420,#477,.T.);
#329=EDGE_CURVE('',#418,#421,#129,.T.);
#330=EDGE_CURVE('',#422,#423,#478,.T.);
#331=EDGE_CURVE('',#423,#424,#130,.T.);
#332=EDGE_CURVE('',#425,#424,#479,.T.);
#333=EDGE_CURVE('',#422,#425,#131,.T.);
#334=EDGE_CURVE('',#426,#427,#480,.T.);
#335=EDGE_CURVE('',#427,#428,#132,.T.);
#336=EDGE_CURVE('',#429,#428,#481,.T.);
#337=EDGE_CURVE('',#426,#429,#133,.T.);
#338=EDGE_CURVE('',#430,#431,#482,.T.);
#339=EDGE_CURVE('',#431,#432,#134,.T.);
#340=EDGE_CURVE('',#433,#432,#483,.T.);
#341=EDGE_CURVE('',#430,#433,#135,.T.);
#342=EDGE_CURVE('',#434,#435,#484,.T.);
#343=EDGE_CURVE('',#435,#436,#136,.T.);
#344=EDGE_CURVE('',#437,#436,#485,.T.);
#345=EDGE_CURVE('',#434,#437,#137,.T.);
#346=EDGE_CURVE('',#438,#439,#12,.T.);
#347=EDGE_CURVE('',#440,#438,#13,.T.);
#348=EDGE_CURVE('',#440,#441,#14,.T.);
#349=EDGE_CURVE('',#442,#441,#15,.T.);
#350=EDGE_CURVE('',#442,#443,#16,.T.);
#351=EDGE_CURVE('',#443,#444,#17,.T.);
#352=EDGE_CURVE('',#444,#445,#18,.T.);
#353=EDGE_CURVE('',#445,#439,#19,.T.);
#354=EDGE_CURVE('',#441,#446,#20,.T.);
#355=EDGE_CURVE('',#447,#446,#21,.T.);
#356=EDGE_CURVE('',#448,#447,#22,.T.);
#357=EDGE_CURVE('',#442,#448,#23,.T.);
#358=EDGE_CURVE('',#447,#449,#24,.T.);
#359=EDGE_CURVE('',#450,#449,#25,.T.);
#360=EDGE_CURVE('',#448,#450,#26,.T.);
#361=EDGE_CURVE('',#435,#434,#486,.T.);
#362=EDGE_CURVE('',#436,#437,#487,.T.);
#363=EDGE_CURVE('',#431,#430,#488,.T.);
#364=EDGE_CURVE('',#432,#433,#489,.T.);
#365=EDGE_CURVE('',#427,#426,#490,.T.);
#366=EDGE_CURVE('',#428,#429,#491,.T.);
#367=EDGE_CURVE('',#449,#451,#27,.T.);
#368=EDGE_CURVE('',#451,#444,#28,.T.);
#369=EDGE_CURVE('',#450,#443,#29,.T.);
#370=EDGE_CURVE('',#439,#452,#30,.T.);
#371=EDGE_CURVE('',#452,#453,#31,.T.);
#372=EDGE_CURVE('',#453,#438,#32,.T.);
#373=EDGE_CURVE('',#416,#417,#492,.T.);
#374=EDGE_CURVE('',#420,#421,#493,.T.);
#375=EDGE_CURVE('',#424,#425,#494,.T.);
#376=EDGE_CURVE('',#454,#455,#33,.T.);
#377=EDGE_CURVE('',#455,#456,#34,.T.);
#378=EDGE_CURVE('',#457,#456,#35,.T.);
#379=EDGE_CURVE('',#458,#457,#36,.T.);
#380=EDGE_CURVE('',#454,#458,#37,.T.);
#381=EDGE_CURVE('',#457,#459,#38,.T.);
#382=EDGE_CURVE('',#460,#459,#39,.T.);
#383=EDGE_CURVE('',#458,#460,#40,.T.);
#384=EDGE_CURVE('',#459,#461,#41,.T.);
#385=EDGE_CURVE('',#461,#462,#42,.T.);
#386=EDGE_CURVE('',#463,#462,#43,.T.);
#387=EDGE_CURVE('',#460,#463,#44,.T.);
#388=EDGE_CURVE('',#423,#422,#495,.T.);
#389=EDGE_CURVE('',#419,#418,#496,.T.);
#390=EDGE_CURVE('',#415,#414,#497,.T.);
#391=EDGE_CURVE('',#464,#452,#45,.T.);
#392=EDGE_CURVE('',#464,#455,#46,.T.);
#393=EDGE_CURVE('',#454,#463,#47,.T.);
#394=EDGE_CURVE('',#462,#465,#48,.T.);
#395=EDGE_CURVE('',#465,#453,#49,.T.);
#396=EDGE_CURVE('',#466,#456,#498,.T.);
#397=EDGE_CURVE('',#467,#466,#50,.T.);
#398=EDGE_CURVE('',#467,#457,#499,.T.);
#399=EDGE_CURVE('',#466,#468,#51,.T.);
#400=EDGE_CURVE('',#469,#468,#52,.T.);
#401=EDGE_CURVE('',#467,#469,#53,.T.);
#402=EDGE_CURVE('',#451,#468,#500,.T.);
#403=EDGE_CURVE('',#449,#469,#501,.T.);
#404=EDGE_CURVE('',#470,#446,#502,.T.);
#405=EDGE_CURVE('',#471,#470,#54,.T.);
#406=EDGE_CURVE('',#471,#447,#503,.T.);
#407=EDGE_CURVE('',#472,#470,#55,.T.);
#408=EDGE_CURVE('',#473,#472,#56,.T.);
#409=EDGE_CURVE('',#473,#471,#57,.T.);
#410=EDGE_CURVE('',#461,#472,#504,.T.);
#411=EDGE_CURVE('',#459,#473,#505,.T.);
#412=EDGE_CURVE('',#465,#440,#58,.T.);
#413=EDGE_CURVE('',#445,#464,#59,.T.);
#414=VERTEX_POINT('',#817);
#415=VERTEX_POINT('',#818);
#416=VERTEX_POINT('',#821);
#417=VERTEX_POINT('',#823);
#418=VERTEX_POINT('',#835);
#419=VERTEX_POINT('',#836);
#420=VERTEX_POINT('',#839);
#421=VERTEX_POINT('',#841);
#422=VERTEX_POINT('',#853);
#423=VERTEX_POINT('',#854);
#424=VERTEX_POINT('',#857);
#425=VERTEX_POINT('',#859);
#426=VERTEX_POINT('',#871);
#427=VERTEX_POINT('',#872);
#428=VERTEX_POINT('',#875);
#429=VERTEX_POINT('',#877);
#430=VERTEX_POINT('',#889);
#431=VERTEX_POINT('',#890);
#432=VERTEX_POINT('',#893);
#433=VERTEX_POINT('',#895);
#434=VERTEX_POINT('',#907);
#435=VERTEX_POINT('',#908);
#436=VERTEX_POINT('',#911);
#437=VERTEX_POINT('',#913);
#438=VERTEX_POINT('',#921);
#439=VERTEX_POINT('',#922);
#440=VERTEX_POINT('',#924);
#441=VERTEX_POINT('',#926);
#442=VERTEX_POINT('',#928);
#443=VERTEX_POINT('',#930);
#444=VERTEX_POINT('',#932);
#445=VERTEX_POINT('',#934);
#446=VERTEX_POINT('',#941);
#447=VERTEX_POINT('',#943);
#448=VERTEX_POINT('',#945);
#449=VERTEX_POINT('',#952);
#450=VERTEX_POINT('',#954);
#451=VERTEX_POINT('',#991);
#452=VERTEX_POINT('',#1003);
#453=VERTEX_POINT('',#1005);
#454=VERTEX_POINT('',#1015);
#455=VERTEX_POINT('',#1016);
#456=VERTEX_POINT('',#1018);
#457=VERTEX_POINT('',#1020);
#458=VERTEX_POINT('',#1022);
#459=VERTEX_POINT('',#1029);
#460=VERTEX_POINT('',#1031);
#461=VERTEX_POINT('',#1038);
#462=VERTEX_POINT('',#1040);
#463=VERTEX_POINT('',#1042);
#464=VERTEX_POINT('',#1076);
#465=VERTEX_POINT('',#1080);
#466=VERTEX_POINT('',#1095);
#467=VERTEX_POINT('',#1097);
#468=VERTEX_POINT('',#1104);
#469=VERTEX_POINT('',#1106);
#470=VERTEX_POINT('',#1127);
#471=VERTEX_POINT('',#1129);
#472=VERTEX_POINT('',#1136);
#473=VERTEX_POINT('',#1138);
#474=CIRCLE('',#661,0.00218050510657253);
#475=CIRCLE('',#662,0.00218050510657253);
#476=CIRCLE('',#663,0.00218050510657253);
#477=CIRCLE('',#664,0.00218050510657253);
#478=CIRCLE('',#665,0.007);
#479=CIRCLE('',#666,0.007);
#480=CIRCLE('',#667,0.00218050510657253);
#481=CIRCLE('',#668,0.00218050510657253);
#482=CIRCLE('',#669,0.00218050510657253);
#483=CIRCLE('',#670,0.00218050510657253);
#484=CIRCLE('',#671,0.007);
#485=CIRCLE('',#672,0.007);
#486=CIRCLE('',#673,0.007);
#487=CIRCLE('',#674,0.007);
#488=CIRCLE('',#675,0.00218050510657253);
#489=CIRCLE('',#676,0.00218050510657253);
#490=CIRCLE('',#677,0.00218050510657253);
#491=CIRCLE('',#678,0.00218050510657253);
#492=CIRCLE('',#679,0.00218050510657253);
#493=CIRCLE('',#680,0.00218050510657253);
#494=CIRCLE('',#681,0.007);
#495=CIRCLE('',#682,0.007);
#496=CIRCLE('',#683,0.00218050510657253);
#497=CIRCLE('',#684,0.00218050510657253);
#498=CIRCLE('',#685,0.0255776300521115);
#499=CIRCLE('',#686,0.0255776300521115);
#500=CIRCLE('',#687,0.0255776300521117);
#501=CIRCLE('',#688,0.0255776300521117);
#502=CIRCLE('',#689,0.0255776300521112);
#503=CIRCLE('',#690,0.0255776300521112);
#504=CIRCLE('',#691,0.0255776300521122);
#505=CIRCLE('',#692,0.0255776300521122);
#506=EDGE_LOOP('',(#138,#139,#140,#141));
#507=EDGE_LOOP('',(#142,#143,#144,#145));
#508=EDGE_LOOP('',(#146,#147,#148,#149));
#509=EDGE_LOOP('',(#150,#151,#152,#153));
#510=EDGE_LOOP('',(#154,#155,#156,#157));
#511=EDGE_LOOP('',(#158,#159,#160,#161));
#512=EDGE_LOOP('',(#162,#163,#164,#165,#166,#167,#168,#169));
#513=EDGE_LOOP('',(#170,#171,#172,#173,#174));
#514=EDGE_LOOP('',(#175,#176,#177,#178));
#515=EDGE_LOOP('',(#179,#180,#181,#182));
#516=EDGE_LOOP('',(#183,#184,#185,#186));
#517=EDGE_LOOP('',(#187,#188,#189,#190));
#518=EDGE_LOOP('',(#191,#192,#193,#194,#195));
#519=EDGE_LOOP('',(#196,#197));
#520=EDGE_LOOP('',(#198,#199));
#521=EDGE_LOOP('',(#200,#201));
#522=EDGE_LOOP('',(#202,#203,#204,#205));
#523=EDGE_LOOP('',(#206,#207));
#524=EDGE_LOOP('',(#208,#209));
#525=EDGE_LOOP('',(#210,#211));
#526=EDGE_LOOP('',(#212,#213,#214,#215));
#527=EDGE_LOOP('',(#216,#217));
#528=EDGE_LOOP('',(#218,#219));
#529=EDGE_LOOP('',(#220,#221));
#530=EDGE_LOOP('',(#222,#223,#224,#225,#226));
#531=EDGE_LOOP('',(#227,#228,#229,#230));
#532=EDGE_LOOP('',(#231,#232,#233,#234,#235));
#533=EDGE_LOOP('',(#236,#237,#238,#239));
#534=EDGE_LOOP('',(#240,#241,#242,#243));
#535=EDGE_LOOP('',(#244,#245,#246,#247));
#536=EDGE_LOOP('',(#248,#249,#250,#251,#252,#253,#254,#255));
#537=EDGE_LOOP('',(#256,#257));
#538=EDGE_LOOP('',(#258,#259));
#539=EDGE_LOOP('',(#260,#261));
#540=EDGE_LOOP('',(#262,#263,#264,#265));
#541=EDGE_LOOP('',(#266,#267,#268,#269));
#542=EDGE_LOOP('',(#270,#271,#272,#273));
#543=EDGE_LOOP('',(#274,#275,#276,#277));
#544=EDGE_LOOP('',(#278,#279,#280,#281));
#545=EDGE_LOOP('',(#282,#283,#284,#285));
#546=EDGE_LOOP('',(#286,#287,#288,#289));
#547=EDGE_LOOP('',(#290,#291,#292,#293,#294,#295,#296,#297));
#548=EDGE_LOOP('',(#298,#299,#300,#301));
#549=EDGE_LOOP('',(#302,#303,#304,#305,#306,#307,#308,#309));
#550=EDGE_LOOP('',(#310,#311,#312,#313));
#551=EDGE_LOOP('',(#314,#315,#316,#317,#318,#319,#320,#321));
#552=FACE_BOUND('',#506,.T.);
#553=FACE_BOUND('',#507,.T.);
#554=FACE_BOUND('',#508,.T.);
#555=FACE_BOUND('',#509,.T.);
#556=FACE_BOUND('',#510,.T.);
#557=FACE_BOUND('',#511,.T.);
#558=FACE_BOUND('',#512,.T.);
#559=FACE_BOUND('',#513,.T.);
#560=FACE_BOUND('',#514,.T.);
#561=FACE_BOUND('',#515,.T.);
#562=FACE_BOUND('',#516,.T.);
#563=FACE_BOUND('',#517,.T.);
#564=FACE_BOUND('',#518,.T.);
#565=FACE_BOUND('',#519,.T.);
#566=FACE_BOUND('',#520,.T.);
#567=FACE_BOUND('',#521,.T.);
#568=FACE_BOUND('',#522,.T.);
#569=FACE_BOUND('',#523,.T.);
#570=FACE_BOUND('',#524,.T.);
#571=FACE_BOUND('',#525,.T.);
#572=FACE_BOUND('',#526,.T.);
#573=FACE_BOUND('',#527,.T.);
#574=FACE_BOUND('',#528,.T.);
#575=FACE_BOUND('',#529,.T.);
#576=FACE_BOUND('',#530,.T.);
#577=FACE_BOUND('',#531,.T.);
#578=FACE_BOUND('',#532,.T.);
#579=FACE_BOUND('',#533,.T.);
#580=FACE_BOUND('',#534,.T.);
#581=FACE_BOUND('',#535,.T.);
#582=FACE_BOUND('',#536,.T.);
#583=FACE_BOUND('',#537,.T.);
#584=FACE_BOUND('',#538,.T.);
#585=FACE_BOUND('',#539,.T.);
#586=FACE_BOUND('',#540,.T.);
#587=FACE_BOUND('',#541,.T.);
#588=FACE_BOUND('',#542,.T.);
#589=FACE_BOUND('',#543,.T.);
#590=FACE_BOUND('',#544,.T.);
#591=FACE_BOUND('',#545,.T.);
#592=FACE_BOUND('',#546,.T.);
#593=FACE_BOUND('',#547,.T.);
#594=FACE_BOUND('',#548,.T.);
#595=FACE_BOUND('',#549,.T.);
#596=FACE_BOUND('',#550,.T.);
#597=FACE_BOUND('',#551,.T.);
#598=(
BOUNDED_SURFACE()
B_SPLINE_SURFACE(3,1,((#808,#809),(#810,#811),(#812,#813),(#814,#815)),
 .CYLINDRICAL_SURF.,.F.,.F.,.F.)
B_SPLINE_SURFACE_WITH_KNOTS((4,4),(2,2),(0.5,1.),(0.0454545454545455,0.954545454545454),
 .PIECEWISE_BEZIER_KNOTS.)
GEOMETRIC_REPRESENTATION_ITEM()
RATIONAL_B_SPLINE_SURFACE(((1.,1.),(0.333333333333333,0.333333333333333),
(0.333333333333333,0.333333333333333),(1.,1.)))
REPRESENTATION_ITEM('')
SURFACE()
);
#599=(
BOUNDED_SURFACE()
B_SPLINE_SURFACE(3,1,((#826,#827),(#828,#829),(#830,#831),(#832,#833)),
 .CYLINDRICAL_SURF.,.F.,.F.,.F.)
B_SPLINE_SURFACE_WITH_KNOTS((4,4),(2,2),(0.5,1.),(0.0454545454545454,0.954545454545454),
 .PIECEWISE_BEZIER_KNOTS.)
GEOMETRIC_REPRESENTATION_ITEM()
RATIONAL_B_SPLINE_SURFACE(((1.,1.),(0.333333333333333,0.333333333333333),
(0.333333333333333,0.333333333333333),(1.,1.)))
REPRESENTATION_ITEM('')
SURFACE()
);
#600=(
BOUNDED_SURFACE()
B_SPLINE_SURFACE(3,1,((#844,#845),(#846,#847),(#848,#849),(#850,#851)),
 .CYLINDRICAL_SURF.,.F.,.F.,.F.)
B_SPLINE_SURFACE_WITH_KNOTS((4,4),(2,2),(0.5,1.),(0.0454545454545455,0.954545454545454),
 .PIECEWISE_BEZIER_KNOTS.)
GEOMETRIC_REPRESENTATION_ITEM()
RATIONAL_B_SPLINE_SURFACE(((1.,1.),(0.333333333333333,0.333333333333333),
(0.333333333333333,0.333333333333333),(1.,1.)))
REPRESENTATION_ITEM('')
SURFACE()
);
#601=(
BOUNDED_SURFACE()
B_SPLINE_SURFACE(3,1,((#862,#863),(#864,#865),(#866,#867),(#868,#869)),
 .CYLINDRICAL_SURF.,.F.,.F.,.F.)
B_SPLINE_SURFACE_WITH_KNOTS((4,4),(2,2),(0.5,1.),(0.0454545454545455,0.954545454545454),
 .PIECEWISE_BEZIER_KNOTS.)
GEOMETRIC_REPRESENTATION_ITEM()
RATIONAL_B_SPLINE_SURFACE(((1.,1.),(0.333333333333333,0.333333333333333),
(0.333333333333333,0.333333333333333),(1.,1.)))
REPRESENTATION_ITEM('')
SURFACE()
);
#602=(
BOUNDED_SURFACE()
B_SPLINE_SURFACE(3,1,((#880,#881),(#882,#883),(#884,#885),(#886,#887)),
 .CYLINDRICAL_SURF.,.F.,.F.,.F.)
B_SPLINE_SURFACE_WITH_KNOTS((4,4),(2,2),(0.5,1.),(0.0454545454545455,0.954545454545454),
 .PIECEWISE_BEZIER_KNOTS.)
GEOMETRIC_REPRESENTATION_ITEM()
RATIONAL_B_SPLINE_SURFACE(((1.,1.),(0.333333333333333,0.333333333333333),
(0.333333333333333,0.333333333333333),(1.,1.)))
REPRESENTATION_ITEM('')
SURFACE()
);
#603=(
BOUNDED_SURFACE()
B_SPLINE_SURFACE(3,1,((#898,#899),(#900,#901),(#902,#903),(#904,#905)),
 .CYLINDRICAL_SURF.,.F.,.F.,.F.)
B_SPLINE_SURFACE_WITH_KNOTS((4,4),(2,2),(0.5,1.),(0.0454545454545454,0.954545454545454),
 .PIECEWISE_BEZIER_KNOTS.)
GEOMETRIC_REPRESENTATION_ITEM()
RATIONAL_B_SPLINE_SURFACE(((1.,1.),(0.333333333333333,0.333333333333333),
(0.333333333333333,0.333333333333333),(1.,1.)))
REPRESENTATION_ITEM('')
SURFACE()
);
#604=(
BOUNDED_SURFACE()
B_SPLINE_SURFACE(3,1,((#956,#957),(#958,#959),(#960,#961),(#962,#963)),
 .CYLINDRICAL_SURF.,.F.,.F.,.F.)
B_SPLINE_SURFACE_WITH_KNOTS((4,4),(2,2),(0.,0.5),(0.0454545454545455,0.954545454545454),
 .PIECEWISE_BEZIER_KNOTS.)
GEOMETRIC_REPRESENTATION_ITEM()
RATIONAL_B_SPLINE_SURFACE(((1.,1.),(0.333333333333333,0.333333333333333),
(0.333333333333333,0.333333333333333),(1.,1.)))
REPRESENTATION_ITEM('')
SURFACE()
);
#605=(
BOUNDED_SURFACE()
B_SPLINE_SURFACE(3,1,((#966,#967),(#968,#969),(#970,#971),(#972,#973)),
 .CYLINDRICAL_SURF.,.F.,.F.,.F.)
B_SPLINE_SURFACE_WITH_KNOTS((4,4),(2,2),(0.,0.5),(0.0454545454545455,0.954545454545454),
 .PIECEWISE_BEZIER_KNOTS.)
GEOMETRIC_REPRESENTATION_ITEM()
RATIONAL_B_SPLINE_SURFACE(((1.,1.),(0.333333333333333,0.333333333333333),
(0.333333333333333,0.333333333333333),(1.,1.)))
REPRESENTATION_ITEM('')
SURFACE()
);
#606=(
BOUNDED_SURFACE()
B_SPLINE_SURFACE(3,1,((#976,#977),(#978,#979),(#980,#981),(#982,#983)),
 .CYLINDRICAL_SURF.,.F.,.F.,.F.)
B_SPLINE_SURFACE_WITH_KNOTS((4,4),(2,2),(0.,0.5),(0.0454545454545455,0.954545454545454),
 .PIECEWISE_BEZIER_KNOTS.)
GEOMETRIC_REPRESENTATION_ITEM()
RATIONAL_B_SPLINE_SURFACE(((1.,1.),(0.333333333333333,0.333333333333333),
(0.333333333333333,0.333333333333333),(1.,1.)))
REPRESENTATION_ITEM('')
SURFACE()
);
#607=(
BOUNDED_SURFACE()
B_SPLINE_SURFACE(3,1,((#1044,#1045),(#1046,#1047),(#1048,#1049),(#1050,
#1051)),.CYLINDRICAL_SURF.,.F.,.F.,.F.)
B_SPLINE_SURFACE_WITH_KNOTS((4,4),(2,2),(0.,0.5),(0.0454545454545455,0.954545454545454),
 .PIECEWISE_BEZIER_KNOTS.)
GEOMETRIC_REPRESENTATION_ITEM()
RATIONAL_B_SPLINE_SURFACE(((1.,1.),(0.333333333333333,0.333333333333333),
(0.333333333333333,0.333333333333333),(1.,1.)))
REPRESENTATION_ITEM('')
SURFACE()
);
#608=(
BOUNDED_SURFACE()
B_SPLINE_SURFACE(3,1,((#1053,#1054),(#1055,#1056),(#1057,#1058),(#1059,
#1060)),.CYLINDRICAL_SURF.,.F.,.F.,.F.)
B_SPLINE_SURFACE_WITH_KNOTS((4,4),(2,2),(0.,0.5),(0.0454545454545454,0.954545454545454),
 .PIECEWISE_BEZIER_KNOTS.)
GEOMETRIC_REPRESENTATION_ITEM()
RATIONAL_B_SPLINE_SURFACE(((1.,1.),(0.333333333333333,0.333333333333333),
(0.333333333333333,0.333333333333333),(1.,1.)))
REPRESENTATION_ITEM('')
SURFACE()
);
#609=(
BOUNDED_SURFACE()
B_SPLINE_SURFACE(3,1,((#1062,#1063),(#1064,#1065),(#1066,#1067),(#1068,
#1069)),.CYLINDRICAL_SURF.,.F.,.F.,.F.)
B_SPLINE_SURFACE_WITH_KNOTS((4,4),(2,2),(0.,0.5),(0.0454545454545455,0.954545454545454),
 .PIECEWISE_BEZIER_KNOTS.)
GEOMETRIC_REPRESENTATION_ITEM()
RATIONAL_B_SPLINE_SURFACE(((1.,1.),(0.333333333333333,0.333333333333333),
(0.333333333333333,0.333333333333333),(1.,1.)))
REPRESENTATION_ITEM('')
SURFACE()
);
#610=(
BOUNDED_SURFACE()
B_SPLINE_SURFACE(3,1,((#1086,#1087),(#1088,#1089),(#1090,#1091),(#1092,
#1093)),.CYLINDRICAL_SURF.,.F.,.F.,.F.)
B_SPLINE_SURFACE_WITH_KNOTS((4,4),(2,2),(0.,1.),(0.,1.),
 .PIECEWISE_BEZIER_KNOTS.)
GEOMETRIC_REPRESENTATION_ITEM()
RATIONAL_B_SPLINE_SURFACE(((1.,1.),(0.846269004986922,0.846269004986922),
(0.846269004986922,0.846269004986922),(1.,1.)))
REPRESENTATION_ITEM('')
SURFACE()
);
#611=(
BOUNDED_SURFACE()
B_SPLINE_SURFACE(3,1,((#1108,#1109),(#1110,#1111),(#1112,#1113),(#1114,
#1115)),.CYLINDRICAL_SURF.,.F.,.F.,.F.)
B_SPLINE_SURFACE_WITH_KNOTS((4,4),(2,2),(0.,1.),(0.,1.),
 .PIECEWISE_BEZIER_KNOTS.)
GEOMETRIC_REPRESENTATION_ITEM()
RATIONAL_B_SPLINE_SURFACE(((1.,1.),(0.844783499136676,0.844783499136676),
(0.844783499136676,0.844783499136676),(1.,1.)))
REPRESENTATION_ITEM('')
SURFACE()
);
#612=(
BOUNDED_SURFACE()
B_SPLINE_SURFACE(3,1,((#1118,#1119),(#1120,#1121),(#1122,#1123),(#1124,
#1125)),.CYLINDRICAL_SURF.,.F.,.F.,.F.)
B_SPLINE_SURFACE_WITH_KNOTS((4,4),(2,2),(0.,1.),(0.,1.),
 .PIECEWISE_BEZIER_KNOTS.)
GEOMETRIC_REPRESENTATION_ITEM()
RATIONAL_B_SPLINE_SURFACE(((1.,1.),(0.84257954122784,0.84257954122784),
(0.84257954122784,0.84257954122784),(1.,1.)))
REPRESENTATION_ITEM('')
SURFACE()
);
#613=(
BOUNDED_SURFACE()
B_SPLINE_SURFACE(3,1,((#1140,#1141),(#1142,#1143),(#1144,#1145),(#1146,
#1147)),.CYLINDRICAL_SURF.,.F.,.F.,.F.)
B_SPLINE_SURFACE_WITH_KNOTS((4,4),(2,2),(0.,1.),(0.,1.),
 .PIECEWISE_BEZIER_KNOTS.)
GEOMETRIC_REPRESENTATION_ITEM()
RATIONAL_B_SPLINE_SURFACE(((1.,1.),(0.848311732470183,0.848311732470183),
(0.848311732470183,0.848311732470183),(1.,1.)))
REPRESENTATION_ITEM('')
SURFACE()
);
#614=ADVANCED_FACE('',(#552),#598,.F.);
#615=ADVANCED_FACE('',(#553),#599,.F.);
#616=ADVANCED_FACE('',(#554),#600,.F.);
#617=ADVANCED_FACE('',(#555),#601,.F.);
#618=ADVANCED_FACE('',(#556),#602,.F.);
#619=ADVANCED_FACE('',(#557),#603,.F.);
#620=ADVANCED_FACE('',(#558),#108,.T.);
#621=ADVANCED_FACE('',(#559),#109,.F.);
#622=ADVANCED_FACE('',(#560),#110,.F.);
#623=ADVANCED_FACE('',(#561),#604,.F.);
#624=ADVANCED_FACE('',(#562),#605,.F.);
#625=ADVANCED_FACE('',(#563),#606,.F.);
#626=ADVANCED_FACE('',(#564),#111,.F.);
#627=ADVANCED_FACE('',(#565,#566,#567,#568),#112,.T.);
#628=ADVANCED_FACE('',(#569,#570,#571,#572,#573,#574,#575),#113,.F.);
#629=ADVANCED_FACE('',(#576),#114,.F.);
#630=ADVANCED_FACE('',(#577),#115,.F.);
#631=ADVANCED_FACE('',(#578),#116,.F.);
#632=ADVANCED_FACE('',(#579),#607,.F.);
#633=ADVANCED_FACE('',(#580),#608,.F.);
#634=ADVANCED_FACE('',(#581),#609,.F.);
#635=ADVANCED_FACE('',(#582),#117,.T.);
#636=ADVANCED_FACE('',(#583,#584,#585,#586),#118,.T.);
#637=ADVANCED_FACE('',(#587),#610,.F.);
#638=ADVANCED_FACE('',(#588),#119,.F.);
#639=ADVANCED_FACE('',(#589),#611,.F.);
#640=ADVANCED_FACE('',(#590),#612,.F.);
#641=ADVANCED_FACE('',(#591),#120,.T.);
#642=ADVANCED_FACE('',(#592),#613,.F.);
#643=ADVANCED_FACE('',(#593),#121,.T.);
#644=ADVANCED_FACE('',(#594),#122,.T.);
#645=ADVANCED_FACE('',(#595),#123,.T.);
#646=ADVANCED_FACE('',(#596),#124,.T.);
#647=ADVANCED_FACE('',(#597),#125,.T.);
#648=CLOSED_SHELL('',(#614,#615,#616,#617,#618,#619,#620,#621,#622,#623,
#624,#625,#626,#627,#628,#629,#630,#631,#632,#633,#634,#635,#636,#637,#638,
#639,#640,#641,#642,#643,#644,#645,#646,#647));
#649=STYLED_ITEM('',(#650),#657);
#650=PRESENTATION_STYLE_ASSIGNMENT((#651));
#651=SURFACE_STYLE_USAGE(.BOTH.,#652);
#652=SURFACE_SIDE_STYLE('',(#653));
#653=SURFACE_STYLE_FILL_AREA(#654);
#654=FILL_AREA_STYLE('',(#655));
#655=FILL_AREA_STYLE_COLOUR('',#656);
#656=COLOUR_RGB('',0.980392156862745,0.713725490196078,0.00392156862745098);
#657=MANIFOLD_SOLID_BREP('Part 14',#648);
#658=SHAPE_DEFINITION_REPRESENTATION(#1178,#659);
#659=SHAPE_REPRESENTATION('Part 14',(#660),#1173);
#660=AXIS2_PLACEMENT_3D('',#807,#693,#694);
#661=AXIS2_PLACEMENT_3D('',#816,#695,#696);
#662=AXIS2_PLACEMENT_3D('',#822,#697,#698);
#663=AXIS2_PLACEMENT_3D('',#834,#699,#700);
#664=AXIS2_PLACEMENT_3D('',#840,#701,#702);
#665=AXIS2_PLACEMENT_3D('',#852,#703,#704);
#666=AXIS2_PLACEMENT_3D('',#858,#705,#706);
#667=AXIS2_PLACEMENT_3D('',#870,#707,#708);
#668=AXIS2_PLACEMENT_3D('',#876,#709,#710);
#669=AXIS2_PLACEMENT_3D('',#888,#711,#712);
#670=AXIS2_PLACEMENT_3D('',#894,#713,#714);
#671=AXIS2_PLACEMENT_3D('',#906,#715,#716);
#672=AXIS2_PLACEMENT_3D('',#912,#717,#718);
#673=AXIS2_PLACEMENT_3D('',#964,#734,#735);
#674=AXIS2_PLACEMENT_3D('',#965,#736,#737);
#675=AXIS2_PLACEMENT_3D('',#974,#738,#739);
#676=AXIS2_PLACEMENT_3D('',#975,#740,#741);
#677=AXIS2_PLACEMENT_3D('',#984,#742,#743);
#678=AXIS2_PLACEMENT_3D('',#985,#744,#745);
#679=AXIS2_PLACEMENT_3D('',#1007,#752,#753);
#680=AXIS2_PLACEMENT_3D('',#1008,#754,#755);
#681=AXIS2_PLACEMENT_3D('',#1009,#756,#757);
#682=AXIS2_PLACEMENT_3D('',#1052,#770,#771);
#683=AXIS2_PLACEMENT_3D('',#1061,#772,#773);
#684=AXIS2_PLACEMENT_3D('',#1070,#774,#775);
#685=AXIS2_PLACEMENT_3D('',#1094,#781,#782);
#686=AXIS2_PLACEMENT_3D('',#1098,#784,#785);
#687=AXIS2_PLACEMENT_3D('',#1116,#789,#790);
#688=AXIS2_PLACEMENT_3D('',#1117,#791,#792);
#689=AXIS2_PLACEMENT_3D('',#1126,#793,#794);
#690=AXIS2_PLACEMENT_3D('',#1130,#796,#797);
#691=AXIS2_PLACEMENT_3D('',#1148,#801,#802);
#692=AXIS2_PLACEMENT_3D('',#1149,#803,#804);
#693=DIRECTION('',(0.,0.,1.));
#694=DIRECTION('',(1.,0.,0.));
#695=DIRECTION('',(0.,-1.,0.));
#696=DIRECTION('',(0.,0.,-1.));
#697=DIRECTION('',(0.,-1.,0.));
#698=DIRECTION('',(0.,0.,-1.));
#699=DIRECTION('',(0.,-1.,0.));
#700=DIRECTION('',(0.,0.,-1.));
#701=DIRECTION('',(0.,-1.,0.));
#702=DIRECTION('',(0.,0.,-1.));
#703=DIRECTION('',(0.,-1.,0.));
#704=DIRECTION('',(0.,0.,-1.));
#705=DIRECTION('',(0.,-1.,0.));
#706=DIRECTION('',(0.,0.,-1.));
#707=DIRECTION('',(0.,-1.,0.));
#708=DIRECTION('',(0.,0.,-1.));
#709=DIRECTION('',(0.,-1.,0.));
#710=DIRECTION('',(0.,0.,-1.));
#711=DIRECTION('',(0.,-1.,0.));
#712=DIRECTION('',(0.,0.,-1.));
#713=DIRECTION('',(0.,-1.,0.));
#714=DIRECTION('',(0.,0.,-1.));
#715=DIRECTION('',(0.,-1.,0.));
#716=DIRECTION('',(0.,0.,-1.));
#717=DIRECTION('',(0.,-1.,0.));
#718=DIRECTION('',(0.,0.,-1.));
#719=DIRECTION('',(-1.,0.,-1.63392950124485E-16));
#720=DIRECTION('',(0.,1.,0.));
#721=DIRECTION('',(-1.,0.,-1.01707726346191E-16));
#722=DIRECTION('',(0.,1.,0.));
#723=DIRECTION('',(-1.,0.,-1.63392950124485E-16));
#724=DIRECTION('',(0.,1.,0.));
#725=DIRECTION('',(-1.,0.,-1.21774587517244E-16));
#726=DIRECTION('',(0.,1.,0.));
#727=DIRECTION('',(0.,0.,1.));
#728=DIRECTION('',(0.,1.,0.));
#729=DIRECTION('',(0.,1.,0.));
#730=DIRECTION('',(0.,0.,1.));
#731=DIRECTION('',(-1.,0.,-1.08928633416323E-16));
#732=DIRECTION('',(0.,1.,0.));
#733=DIRECTION('',(-1.,0.,-1.08928633416323E-16));
#734=DIRECTION('',(0.,-1.,0.));
#735=DIRECTION('',(0.,0.,-1.));
#736=DIRECTION('',(0.,-1.,0.));
#737=DIRECTION('',(0.,0.,-1.));
#738=DIRECTION('',(0.,-1.,0.));
#739=DIRECTION('',(0.,0.,-1.));
#740=DIRECTION('',(0.,-1.,0.));
#741=DIRECTION('',(0.,0.,-1.));
#742=DIRECTION('',(0.,-1.,0.));
#743=DIRECTION('',(0.,0.,-1.));
#744=DIRECTION('',(0.,-1.,0.));
#745=DIRECTION('',(0.,0.,-1.));
#746=DIRECTION('',(0.,1.,0.));
#747=DIRECTION('',(0.,0.,-1.));
#748=DIRECTION('',(0.,0.,-1.));
#749=DIRECTION('',(-3.64007549057428E-16,0.,1.));
#750=DIRECTION('',(1.,0.,0.));
#751=DIRECTION('',(0.,0.,-1.));
#752=DIRECTION('',(0.,-1.,0.));
#753=DIRECTION('',(0.,0.,-1.));
#754=DIRECTION('',(0.,-1.,0.));
#755=DIRECTION('',(0.,0.,-1.));
#756=DIRECTION('',(0.,-1.,0.));
#757=DIRECTION('',(0.,0.,-1.));
#758=DIRECTION('',(0.,1.,0.));
#759=DIRECTION('',(0.,0.,-1.));
#760=DIRECTION('',(0.,1.,0.));
#761=DIRECTION('',(0.,1.,0.));
#762=DIRECTION('',(0.,0.,-1.));
#763=DIRECTION('',(1.,0.,0.));
#764=DIRECTION('',(0.,1.,0.));
#765=DIRECTION('',(1.,0.,0.));
#766=DIRECTION('',(0.,1.,0.));
#767=DIRECTION('',(0.,0.,1.));
#768=DIRECTION('',(0.,1.,0.));
#769=DIRECTION('',(0.,0.,1.));
#770=DIRECTION('',(0.,-1.,0.));
#771=DIRECTION('',(0.,0.,-1.));
#772=DIRECTION('',(0.,-1.,0.));
#773=DIRECTION('',(0.,0.,-1.));
#774=DIRECTION('',(0.,-1.,0.));
#775=DIRECTION('',(0.,0.,-1.));
#776=DIRECTION('',(0.,1.,0.));
#777=DIRECTION('',(1.,0.,0.));
#778=DIRECTION('',(1.,0.,0.));
#779=DIRECTION('',(1.,0.,0.));
#780=DIRECTION('',(0.,1.,0.));
#781=DIRECTION('',(0.,-1.,0.));
#782=DIRECTION('',(0.,0.,-1.));
#783=DIRECTION('',(0.,1.,0.));
#784=DIRECTION('',(0.,-1.,0.));
#785=DIRECTION('',(0.,0.,-1.));
#786=DIRECTION('',(0.0278017284567457,0.,-0.999613457239756));
#787=DIRECTION('',(0.,1.,0.));
#788=DIRECTION('',(0.0278017284567457,0.,-0.999613457239756));
#789=DIRECTION('',(0.,-1.,0.));
#790=DIRECTION('',(0.,0.,-1.));
#791=DIRECTION('',(0.,-1.,0.));
#792=DIRECTION('',(0.,0.,-1.));
#793=DIRECTION('',(0.,-1.,0.));
#794=DIRECTION('',(0.,0.,-1.));
#795=DIRECTION('',(0.,1.,0.));
#796=DIRECTION('',(0.,-1.,0.));
#797=DIRECTION('',(0.,0.,-1.));
#798=DIRECTION('',(0.0302988442862181,0.,-0.999540884623996));
#799=DIRECTION('',(0.,1.,0.));
#800=DIRECTION('',(0.0302988442862181,0.,-0.999540884623996));
#801=DIRECTION('',(0.,-1.,0.));
#802=DIRECTION('',(0.,0.,-1.));
#803=DIRECTION('',(0.,-1.,0.));
#804=DIRECTION('',(0.,0.,-1.));
#805=DIRECTION('',(0.,0.,-1.));
#806=DIRECTION('',(-3.64007549057428E-16,0.,1.));
#807=CARTESIAN_POINT('',(0.,0.,0.));
#808=CARTESIAN_POINT('',(0.700401127338409,-0.015,0.268384051015253));
#809=CARTESIAN_POINT('',(0.700401127338409,-1.95156391047391E-18,0.268384051015253));
#810=CARTESIAN_POINT('',(0.696040117125264,-0.015,0.268384051015253));
#811=CARTESIAN_POINT('',(0.696040117125264,-1.95156391047391E-18,0.268384051015253));
#812=CARTESIAN_POINT('',(0.696040117125264,-0.015,0.272745061228399));
#813=CARTESIAN_POINT('',(0.696040117125264,-1.95156391047391E-18,0.272745061228399));
#814=CARTESIAN_POINT('',(0.700401127338409,-0.015,0.272745061228399));
#815=CARTESIAN_POINT('',(0.700401127338409,-1.95156391047391E-18,0.272745061228399));
#816=CARTESIAN_POINT('',(0.700401127338409,-0.015,0.270564556121826));
#817=CARTESIAN_POINT('',(0.700401127338409,-0.015,0.272745061228399));
#818=CARTESIAN_POINT('',(0.700401127338409,-0.015,0.268384051015253));
#819=CARTESIAN_POINT('',(0.700401127338409,-0.01575,0.268384051015253));
#820=CARTESIAN_POINT('',(0.700401127338409,0.000750000000000001,0.268384051015253));
#821=CARTESIAN_POINT('',(0.700401127338409,0.,0.268384051015253));
#822=CARTESIAN_POINT('',(0.700401127338409,0.,0.270564556121826));
#823=CARTESIAN_POINT('',(0.700401127338409,0.,0.272745061228399));
#824=CARTESIAN_POINT('',(0.700401127338409,-0.01575,0.272745061228399));
#825=CARTESIAN_POINT('',(0.700401127338409,0.000750000000000001,0.272745061228399));
#826=CARTESIAN_POINT('',(0.66137021780014,-0.015,0.268384051015253));
#827=CARTESIAN_POINT('',(0.66137021780014,-3.25260651745651E-19,0.268384051015253));
#828=CARTESIAN_POINT('',(0.657009207586995,-0.015,0.268384051015253));
#829=CARTESIAN_POINT('',(0.657009207586995,-2.43945488809238E-19,0.268384051015253));
#830=CARTESIAN_POINT('',(0.657009207586995,-0.015,0.272745061228399));
#831=CARTESIAN_POINT('',(0.657009207586995,-2.43945488809238E-19,0.272745061228399));
#832=CARTESIAN_POINT('',(0.66137021780014,-0.015,0.272745061228399));
#833=CARTESIAN_POINT('',(0.66137021780014,-3.25260651745651E-19,0.272745061228399));
#834=CARTESIAN_POINT('',(0.66137021780014,-0.015,0.270564556121826));
#835=CARTESIAN_POINT('',(0.66137021780014,-0.015,0.272745061228399));
#836=CARTESIAN_POINT('',(0.66137021780014,-0.015,0.268384051015253));
#837=CARTESIAN_POINT('',(0.66137021780014,-0.01575,0.268384051015253));
#838=CARTESIAN_POINT('',(0.66137021780014,0.000750000000000001,0.268384051015253));
#839=CARTESIAN_POINT('',(0.66137021780014,0.,0.268384051015253));
#840=CARTESIAN_POINT('',(0.66137021780014,0.,0.270564556121826));
#841=CARTESIAN_POINT('',(0.66137021780014,0.,0.272745061228399));
#842=CARTESIAN_POINT('',(0.66137021780014,-0.01575,0.272745061228399));
#843=CARTESIAN_POINT('',(0.66137021780014,0.000750000000000001,0.272745061228399));
#844=CARTESIAN_POINT('',(0.681540204015527,-0.015,0.263564556121826));
#845=CARTESIAN_POINT('',(0.681540204015527,-2.16840434497101E-19,0.263564556121826));
#846=CARTESIAN_POINT('',(0.667540204015527,-0.015,0.263564556121826));
#847=CARTESIAN_POINT('',(0.667540204015527,-2.43945488809238E-19,0.263564556121826));
#848=CARTESIAN_POINT('',(0.667540204015527,-0.015,0.277564556121826));
#849=CARTESIAN_POINT('',(0.667540204015527,-2.43945488809238E-19,0.277564556121826));
#850=CARTESIAN_POINT('',(0.681540204015527,-0.015,0.277564556121826));
#851=CARTESIAN_POINT('',(0.681540204015527,-2.16840434497101E-19,0.277564556121826));
#852=CARTESIAN_POINT('',(0.681540204015527,-0.015,0.270564556121826));
#853=CARTESIAN_POINT('',(0.681540204015527,-0.015,0.277564556121826));
#854=CARTESIAN_POINT('',(0.681540204015527,-0.015,0.263564556121826));
#855=CARTESIAN_POINT('',(0.681540204015527,-0.01575,0.263564556121826));
#856=CARTESIAN_POINT('',(0.681540204015527,0.000750000000000001,0.263564556121826));
#857=CARTESIAN_POINT('',(0.681540204015527,0.,0.263564556121826));
#858=CARTESIAN_POINT('',(0.681540204015527,0.,0.270564556121826));
#859=CARTESIAN_POINT('',(0.681540204015527,0.,0.277564556121826));
#860=CARTESIAN_POINT('',(0.681540204015527,-0.01575,0.277564556121826));
#861=CARTESIAN_POINT('',(0.681540204015527,0.000750000000000001,0.277564556121826));
#862=CARTESIAN_POINT('',(0.659355044364929,-0.015,-0.00377505787682953));
#863=CARTESIAN_POINT('',(0.659355044364929,-2.16840434497101E-19,-0.00377505787682953));
#864=CARTESIAN_POINT('',(0.654994034151784,-0.015,-0.00377505787682953));
#865=CARTESIAN_POINT('',(0.654994034151784,-2.43945488809238E-19,-0.00377505787682953));
#866=CARTESIAN_POINT('',(0.654994034151784,-0.015,0.00058595233631553));
#867=CARTESIAN_POINT('',(0.654994034151784,-2.43945488809238E-19,0.00058595233631553));
#868=CARTESIAN_POINT('',(0.659355044364929,-0.015,0.00058595233631553));
#869=CARTESIAN_POINT('',(0.659355044364929,-2.16840434497101E-19,0.00058595233631553));
#870=CARTESIAN_POINT('',(0.659355044364929,-0.015,-0.001594552770257));
#871=CARTESIAN_POINT('',(0.659355044364929,-0.015,0.00058595233631553));
#872=CARTESIAN_POINT('',(0.659355044364929,-0.015,-0.00377505787682953));
#873=CARTESIAN_POINT('',(0.659355044364929,-0.01575,-0.00377505787682953));
#874=CARTESIAN_POINT('',(0.659355044364929,0.000750000000000001,-0.00377505787682953));
#875=CARTESIAN_POINT('',(0.659355044364929,0.,-0.00377505787682953));
#876=CARTESIAN_POINT('',(0.659355044364929,0.,-0.001594552770257));
#877=CARTESIAN_POINT('',(0.659355044364929,0.,0.00058595233631553));
#878=CARTESIAN_POINT('',(0.659355044364929,-0.01575,0.00058595233631553));
#879=CARTESIAN_POINT('',(0.659355044364929,0.000750000000000001,0.00058595233631553));
#880=CARTESIAN_POINT('',(0.701672434806824,-0.015,-0.00377505787682953));
#881=CARTESIAN_POINT('',(0.701672434806824,-3.25260651745651E-19,-0.00377505787682952));
#882=CARTESIAN_POINT('',(0.697311424593679,-0.015,-0.00377505787682953));
#883=CARTESIAN_POINT('',(0.697311424593679,-2.43945488809238E-19,-0.00377505787682953));
#884=CARTESIAN_POINT('',(0.697311424593679,-0.015,0.000585952336315535));
#885=CARTESIAN_POINT('',(0.697311424593679,-2.43945488809238E-19,0.000585952336315535));
#886=CARTESIAN_POINT('',(0.701672434806824,-0.015,0.000585952336315535));
#887=CARTESIAN_POINT('',(0.701672434806824,-3.25260651745651E-19,0.000585952336315535));
#888=CARTESIAN_POINT('',(0.701672434806824,-0.015,-0.00159455277025699));
#889=CARTESIAN_POINT('',(0.701672434806824,-0.015,0.000585952336315535));
#890=CARTESIAN_POINT('',(0.701672434806824,-0.015,-0.00377505787682952));
#891=CARTESIAN_POINT('',(0.701672434806824,-0.01575,-0.00377505787682952));
#892=CARTESIAN_POINT('',(0.701672434806824,0.000750000000000001,-0.00377505787682952));
#893=CARTESIAN_POINT('',(0.701672434806824,0.,-0.00377505787682952));
#894=CARTESIAN_POINT('',(0.701672434806824,0.,-0.00159455277025699));
#895=CARTESIAN_POINT('',(0.701672434806824,0.,0.000585952336315535));
#896=CARTESIAN_POINT('',(0.701672434806824,-0.01575,0.000585952336315535));
#897=CARTESIAN_POINT('',(0.701672434806824,0.000750000000000001,0.000585952336315535));
#898=CARTESIAN_POINT('',(0.681540204015527,-0.015,-0.008594552770257));
#899=CARTESIAN_POINT('',(0.681540204015527,-3.25260651745651E-19,-0.008594552770257));
#900=CARTESIAN_POINT('',(0.667540204015527,-0.015,-0.008594552770257));
#901=CARTESIAN_POINT('',(0.667540204015527,-2.43945488809238E-19,-0.008594552770257));
#902=CARTESIAN_POINT('',(0.667540204015527,-0.015,0.005405447229743));
#903=CARTESIAN_POINT('',(0.667540204015527,-2.43945488809238E-19,0.00540544722974301));
#904=CARTESIAN_POINT('',(0.681540204015527,-0.015,0.005405447229743));
#905=CARTESIAN_POINT('',(0.681540204015527,-3.25260651745651E-19,0.005405447229743));
#906=CARTESIAN_POINT('',(0.681540204015527,-0.015,-0.00159455277025699));
#907=CARTESIAN_POINT('',(0.681540204015527,-0.015,0.00540544722974301));
#908=CARTESIAN_POINT('',(0.681540204015527,-0.015,-0.008594552770257));
#909=CARTESIAN_POINT('',(0.681540204015527,-0.01575,-0.008594552770257));
#910=CARTESIAN_POINT('',(0.681540204015527,0.000750000000000001,-0.008594552770257));
#911=CARTESIAN_POINT('',(0.681540204015527,0.,-0.008594552770257));
#912=CARTESIAN_POINT('',(0.681540204015527,0.,-0.00159455277025699));
#913=CARTESIAN_POINT('',(0.681540204015527,0.,0.00540544722974301));
#914=CARTESIAN_POINT('',(0.681540204015527,-0.01575,0.005405447229743));
#915=CARTESIAN_POINT('',(0.681540204015527,0.000750000000000001,0.005405447229743));
#916=CARTESIAN_POINT('',(0.831114633797438,-0.01575,-0.0168622262840978));
#917=CARTESIAN_POINT('',(0.831114633797438,0.000750000000000001,-0.0168622262840978));
#918=CARTESIAN_POINT('',(0.523114633797438,-0.01575,-0.0168622262840978));
#919=CARTESIAN_POINT('',(0.523114633797438,0.000750000000000001,-0.0168622262840978));
#920=CARTESIAN_POINT('',(0.682928198124492,0.,-0.0168622262840978));
#921=CARTESIAN_POINT('',(0.817114633797438,0.,-0.0168622262840977));
#922=CARTESIAN_POINT('',(0.537114633797438,0.,-0.0168622262840978));
#923=CARTESIAN_POINT('',(0.817114633797438,-0.005,-0.0168622262840977));
#924=CARTESIAN_POINT('',(0.817114633797438,-0.005,-0.0168622262840977));
#925=CARTESIAN_POINT('',(0.765946737169639,-0.005,-0.0168622262840978));
#926=CARTESIAN_POINT('',(0.71477884054184,-0.005,-0.0168622262840978));
#927=CARTESIAN_POINT('',(0.71477884054184,-0.015,-0.0168622262840978));
#928=CARTESIAN_POINT('',(0.71477884054184,-0.015,-0.0168622262840978));
#929=CARTESIAN_POINT('',(0.682928198124492,-0.015,-0.0168622262840978));
#930=CARTESIAN_POINT('',(0.651077555707145,-0.015,-0.0168622262840977));
#931=CARTESIAN_POINT('',(0.651077555707145,-0.015,-0.0168622262840977));
#932=CARTESIAN_POINT('',(0.651077555707145,-0.005,-0.0168622262840977));
#933=CARTESIAN_POINT('',(0.594096094752292,-0.005,-0.0168622262840978));
#934=CARTESIAN_POINT('',(0.537114633797438,-0.005,-0.0168622262840978));
#935=CARTESIAN_POINT('',(0.537114633797438,-0.005,-0.0168622262840978));
#936=CARTESIAN_POINT('',(0.71477884054184,-0.0155,-0.0184671041903433));
#937=CARTESIAN_POINT('',(0.71477884054184,-0.0045,-0.0184671041903433));
#938=CARTESIAN_POINT('',(0.71477884054184,-0.0155,0.0168402097470587));
#939=CARTESIAN_POINT('',(0.71477884054184,-0.0045,0.0168402097470587));
#940=CARTESIAN_POINT('',(0.71477884054184,-0.005,-0.000813447221642311));
#941=CARTESIAN_POINT('',(0.71477884054184,-0.005,0.0152353318408131));
#942=CARTESIAN_POINT('',(0.71477884054184,-0.01,0.0152353318408131));
#943=CARTESIAN_POINT('',(0.71477884054184,-0.01,0.0152353318408131));
#944=CARTESIAN_POINT('',(0.71477884054184,-0.015,0.0152353318408131));
#945=CARTESIAN_POINT('',(0.71477884054184,-0.015,0.0152353318408131));
#946=CARTESIAN_POINT('',(0.71477884054184,-0.015,-0.000813447221642311));
#947=CARTESIAN_POINT('',(0.717963904783575,-0.01525,0.0152353318408132));
#948=CARTESIAN_POINT('',(0.717963904783575,-0.00975,0.0152353318408132));
#949=CARTESIAN_POINT('',(0.64789249146541,-0.01525,0.0152353318408131));
#950=CARTESIAN_POINT('',(0.64789249146541,-0.00975,0.0152353318408131));
#951=CARTESIAN_POINT('',(0.682928198124492,-0.01,0.0152353318408131));
#952=CARTESIAN_POINT('',(0.651077555707145,-0.01,0.0152353318408131));
#953=CARTESIAN_POINT('',(0.651077555707145,-0.015,0.0152353318408131));
#954=CARTESIAN_POINT('',(0.651077555707145,-0.015,0.0152353318408131));
#955=CARTESIAN_POINT('',(0.682928198124492,-0.015,0.0152353318408131));
#956=CARTESIAN_POINT('',(0.681540204015527,-0.015,0.00540544722974301));
#957=CARTESIAN_POINT('',(0.681540204015527,-3.25260651745651E-19,0.005405447229743));
#958=CARTESIAN_POINT('',(0.695540204015527,-0.015,0.005405447229743));
#959=CARTESIAN_POINT('',(0.695540204015527,-2.43945488809238E-19,0.00540544722974301));
#960=CARTESIAN_POINT('',(0.695540204015527,-0.015,-0.00859455277025699));
#961=CARTESIAN_POINT('',(0.695540204015527,-2.43945488809238E-19,-0.00859455277025699));
#962=CARTESIAN_POINT('',(0.681540204015527,-0.015,-0.008594552770257));
#963=CARTESIAN_POINT('',(0.681540204015527,-3.25260651745651E-19,-0.008594552770257));
#964=CARTESIAN_POINT('',(0.681540204015527,-0.015,-0.00159455277025699));
#965=CARTESIAN_POINT('',(0.681540204015527,0.,-0.00159455277025699));
#966=CARTESIAN_POINT('',(0.701672434806824,-0.015,0.000585952336315535));
#967=CARTESIAN_POINT('',(0.701672434806824,-2.16840434497101E-19,0.000585952336315535));
#968=CARTESIAN_POINT('',(0.706033445019969,-0.015,0.000585952336315535));
#969=CARTESIAN_POINT('',(0.706033445019969,-2.43945488809238E-19,0.000585952336315535));
#970=CARTESIAN_POINT('',(0.706033445019969,-0.015,-0.00377505787682952));
#971=CARTESIAN_POINT('',(0.706033445019969,-2.43945488809238E-19,-0.00377505787682952));
#972=CARTESIAN_POINT('',(0.701672434806824,-0.015,-0.00377505787682952));
#973=CARTESIAN_POINT('',(0.701672434806824,-2.16840434497101E-19,-0.00377505787682952));
#974=CARTESIAN_POINT('',(0.701672434806824,-0.015,-0.00159455277025699));
#975=CARTESIAN_POINT('',(0.701672434806824,0.,-0.00159455277025699));
#976=CARTESIAN_POINT('',(0.659355044364929,-0.015,0.00058595233631553));
#977=CARTESIAN_POINT('',(0.659355044364929,-2.16840434497101E-19,0.00058595233631553));
#978=CARTESIAN_POINT('',(0.663716054578074,-0.015,0.00058595233631553));
#979=CARTESIAN_POINT('',(0.663716054578074,-2.43945488809238E-19,0.00058595233631553));
#980=CARTESIAN_POINT('',(0.663716054578074,-0.015,-0.00377505787682953));
#981=CARTESIAN_POINT('',(0.663716054578074,-2.43945488809238E-19,-0.00377505787682953));
#982=CARTESIAN_POINT('',(0.659355044364929,-0.015,-0.00377505787682953));
#983=CARTESIAN_POINT('',(0.659355044364929,-2.16840434497101E-19,-0.00377505787682953));
#984=CARTESIAN_POINT('',(0.659355044364929,-0.015,-0.001594552770257));
#985=CARTESIAN_POINT('',(0.659355044364929,0.,-0.001594552770257));
#986=CARTESIAN_POINT('',(0.651077555707145,-0.0155,0.0168402097470587));
#987=CARTESIAN_POINT('',(0.651077555707145,-0.0045,0.0168402097470587));
#988=CARTESIAN_POINT('',(0.651077555707145,-0.0155,-0.0184671041903432));
#989=CARTESIAN_POINT('',(0.651077555707145,-0.0045,-0.0184671041903432));
#990=CARTESIAN_POINT('',(0.651077555707145,-0.01,0.0152353318408131));
#991=CARTESIAN_POINT('',(0.651077555707145,-0.005,0.0152353318408131));
#992=CARTESIAN_POINT('',(0.651077555707145,-0.005,-0.000813447221642269));
#993=CARTESIAN_POINT('',(0.651077555707145,-0.015,-0.000813447221642269));
#994=CARTESIAN_POINT('',(0.64789249146541,-0.015,-0.0184671041903434));
#995=CARTESIAN_POINT('',(0.64789249146541,-0.015,0.0168402097470587));
#996=CARTESIAN_POINT('',(0.717963904783575,-0.015,-0.0184671041903434));
#997=CARTESIAN_POINT('',(0.717963904783575,-0.015,0.0168402097470587));
#998=CARTESIAN_POINT('',(0.523114633797438,0.,-0.0321122262840978));
#999=CARTESIAN_POINT('',(0.523114633797438,0.,0.303387773715903));
#1000=CARTESIAN_POINT('',(0.831114633797438,0.,-0.0321122262840978));
#1001=CARTESIAN_POINT('',(0.831114633797438,0.,0.303387773715903));
#1002=CARTESIAN_POINT('',(0.537114633797438,0.,0.135637773715902));
#1003=CARTESIAN_POINT('',(0.537114633797438,0.,0.288137773715902));
#1004=CARTESIAN_POINT('',(0.677484065294266,0.,0.288137773715902));
#1005=CARTESIAN_POINT('',(0.817114633797438,0.,0.288137773715902));
#1006=CARTESIAN_POINT('',(0.817114633797438,0.,0.135637773715902));
#1007=CARTESIAN_POINT('',(0.700401127338409,0.,0.270564556121826));
#1008=CARTESIAN_POINT('',(0.66137021780014,0.,0.270564556121826));
#1009=CARTESIAN_POINT('',(0.681540204015527,0.,0.270564556121826));
#1010=CARTESIAN_POINT('',(0.64586740732193,-0.0155,0.28993632648947));
#1011=CARTESIAN_POINT('',(0.64586740732193,-0.0045,0.28993632648947));
#1012=CARTESIAN_POINT('',(0.64586740732193,-0.0155,0.250368165470985));
#1013=CARTESIAN_POINT('',(0.64586740732193,-0.0045,0.250368165470985));
#1014=CARTESIAN_POINT('',(0.64586740732193,-0.015,0.288137773715902));
#1015=CARTESIAN_POINT('',(0.64586740732193,-0.015,0.288137773715902));
#1016=CARTESIAN_POINT('',(0.64586740732193,-0.005,0.288137773715902));
#1017=CARTESIAN_POINT('',(0.64586740732193,-0.005,0.270152245980228));
#1018=CARTESIAN_POINT('',(0.64586740732193,-0.005,0.252166718244553));
#1019=CARTESIAN_POINT('',(0.64586740732193,-0.01,0.252166718244553));
#1020=CARTESIAN_POINT('',(0.64586740732193,-0.01,0.252166718244553));
#1021=CARTESIAN_POINT('',(0.64586740732193,-0.015,0.252166718244553));
#1022=CARTESIAN_POINT('',(0.64586740732193,-0.015,0.252166718244553));
#1023=CARTESIAN_POINT('',(0.64586740732193,-0.015,0.270152245980228));
#1024=CARTESIAN_POINT('',(0.642705741524696,-0.01525,0.252166718244553));
#1025=CARTESIAN_POINT('',(0.642705741524696,-0.00975,0.252166718244553));
#1026=CARTESIAN_POINT('',(0.712262389063836,-0.01525,0.252166718244553));
#1027=CARTESIAN_POINT('',(0.712262389063836,-0.00975,0.252166718244553));
#1028=CARTESIAN_POINT('',(0.677484065294266,-0.01,0.252166718244553));
#1029=CARTESIAN_POINT('',(0.709100723266602,-0.01,0.252166718244553));
#1030=CARTESIAN_POINT('',(0.709100723266602,-0.015,0.252166718244553));
#1031=CARTESIAN_POINT('',(0.709100723266602,-0.015,0.252166718244553));
#1032=CARTESIAN_POINT('',(0.677484065294266,-0.015,0.252166718244553));
#1033=CARTESIAN_POINT('',(0.709100723266602,-0.0155,0.250368165470985));
#1034=CARTESIAN_POINT('',(0.709100723266602,-0.0045,0.250368165470985));
#1035=CARTESIAN_POINT('',(0.709100723266602,-0.0155,0.28993632648947));
#1036=CARTESIAN_POINT('',(0.709100723266602,-0.0045,0.28993632648947));
#1037=CARTESIAN_POINT('',(0.709100723266602,-0.01,0.252166718244553));
#1038=CARTESIAN_POINT('',(0.709100723266602,-0.005,0.252166718244553));
#1039=CARTESIAN_POINT('',(0.709100723266602,-0.005,0.270152245980228));
#1040=CARTESIAN_POINT('',(0.709100723266602,-0.005,0.288137773715902));
#1041=CARTESIAN_POINT('',(0.709100723266602,-0.015,0.288137773715902));
#1042=CARTESIAN_POINT('',(0.709100723266602,-0.015,0.288137773715902));
#1043=CARTESIAN_POINT('',(0.709100723266602,-0.015,0.270152245980228));
#1044=CARTESIAN_POINT('',(0.681540204015527,-0.015,0.277564556121826));
#1045=CARTESIAN_POINT('',(0.681540204015527,-2.16840434497101E-19,0.277564556121826));
#1046=CARTESIAN_POINT('',(0.695540204015527,-0.015,0.277564556121826));
#1047=CARTESIAN_POINT('',(0.695540204015527,-2.43945488809238E-19,0.277564556121826));
#1048=CARTESIAN_POINT('',(0.695540204015527,-0.015,0.263564556121826));
#1049=CARTESIAN_POINT('',(0.695540204015527,-2.43945488809238E-19,0.263564556121826));
#1050=CARTESIAN_POINT('',(0.681540204015527,-0.015,0.263564556121826));
#1051=CARTESIAN_POINT('',(0.681540204015527,-2.16840434497101E-19,0.263564556121826));
#1052=CARTESIAN_POINT('',(0.681540204015527,-0.015,0.270564556121826));
#1053=CARTESIAN_POINT('',(0.66137021780014,-0.015,0.272745061228399));
#1054=CARTESIAN_POINT('',(0.66137021780014,-3.25260651745651E-19,0.272745061228399));
#1055=CARTESIAN_POINT('',(0.665731228013285,-0.015,0.272745061228399));
#1056=CARTESIAN_POINT('',(0.665731228013285,-2.43945488809238E-19,0.272745061228399));
#1057=CARTESIAN_POINT('',(0.665731228013285,-0.015,0.268384051015253));
#1058=CARTESIAN_POINT('',(0.665731228013285,-2.43945488809238E-19,0.268384051015253));
#1059=CARTESIAN_POINT('',(0.66137021780014,-0.015,0.268384051015253));
#1060=CARTESIAN_POINT('',(0.66137021780014,-3.25260651745651E-19,0.268384051015253));
#1061=CARTESIAN_POINT('',(0.66137021780014,-0.015,0.270564556121826));
#1062=CARTESIAN_POINT('',(0.700401127338409,-0.015,0.272745061228399));
#1063=CARTESIAN_POINT('',(0.700401127338409,-1.95156391047391E-18,0.272745061228399));
#1064=CARTESIAN_POINT('',(0.704762137551554,-0.015,0.272745061228399));
#1065=CARTESIAN_POINT('',(0.704762137551554,-1.95156391047391E-18,0.272745061228399));
#1066=CARTESIAN_POINT('',(0.704762137551554,-0.015,0.268384051015253));
#1067=CARTESIAN_POINT('',(0.704762137551554,-1.95156391047391E-18,0.268384051015253));
#1068=CARTESIAN_POINT('',(0.700401127338409,-0.015,0.268384051015253));
#1069=CARTESIAN_POINT('',(0.700401127338409,-1.95156391047391E-18,0.268384051015253));
#1070=CARTESIAN_POINT('',(0.700401127338409,-0.015,0.270564556121826));
#1071=CARTESIAN_POINT('',(0.523114633797438,-0.01575,0.288137773715902));
#1072=CARTESIAN_POINT('',(0.523114633797438,0.000750000000000001,0.288137773715902));
#1073=CARTESIAN_POINT('',(0.831114633797438,-0.01575,0.288137773715902));
#1074=CARTESIAN_POINT('',(0.831114633797438,0.000750000000000001,0.288137773715902));
#1075=CARTESIAN_POINT('',(0.537114633797438,-0.005,0.288137773715902));
#1076=CARTESIAN_POINT('',(0.537114633797438,-0.005,0.288137773715902));
#1077=CARTESIAN_POINT('',(0.591491020559684,-0.005,0.288137773715902));
#1078=CARTESIAN_POINT('',(0.677484065294266,-0.015,0.288137773715902));
#1079=CARTESIAN_POINT('',(0.76310767853202,-0.005,0.288137773715902));
#1080=CARTESIAN_POINT('',(0.817114633797438,-0.005,0.288137773715902));
#1081=CARTESIAN_POINT('',(0.817114633797438,-0.005,0.288137773715902));
#1082=CARTESIAN_POINT('',(0.642705741524696,-0.015,0.250368165470985));
#1083=CARTESIAN_POINT('',(0.642705741524696,-0.015,0.28993632648947));
#1084=CARTESIAN_POINT('',(0.712262389063836,-0.015,0.250368165470985));
#1085=CARTESIAN_POINT('',(0.712262389063836,-0.015,0.28993632648947));
#1086=CARTESIAN_POINT('',(0.643154541315699,-0.01025,0.256143683946804));
#1087=CARTESIAN_POINT('',(0.643154541315699,-0.00475,0.256143683946804));
#1088=CARTESIAN_POINT('',(0.651375835493794,-0.01025,0.246240962570314));
#1089=CARTESIAN_POINT('',(0.651375835493794,-0.00475,0.246240962570314));
#1090=CARTESIAN_POINT('',(0.651375835493794,-0.01025,0.233370315009947));
#1091=CARTESIAN_POINT('',(0.651375835493794,-0.00475,0.233370315009947));
#1092=CARTESIAN_POINT('',(0.643154541315699,-0.01025,0.223467593633457));
#1093=CARTESIAN_POINT('',(0.643154541315699,-0.00475,0.223467593633457));
#1094=CARTESIAN_POINT('',(0.623475023040569,-0.005,0.23980563879013));
#1095=CARTESIAN_POINT('',(0.64586740732193,-0.005,0.227444559335708));
#1096=CARTESIAN_POINT('',(0.64586740732193,-0.01,0.227444559335708));
#1097=CARTESIAN_POINT('',(0.64586740732193,-0.01,0.227444559335708));
#1098=CARTESIAN_POINT('',(0.623475023040569,-0.01,0.23980563879013));
#1099=CARTESIAN_POINT('',(0.64560689990267,-0.01025,0.236811125245774));
#1100=CARTESIAN_POINT('',(0.64560689990267,-0.00475,0.236811125245774));
#1101=CARTESIAN_POINT('',(0.651338063126406,-0.01025,0.0307466752243326));
#1102=CARTESIAN_POINT('',(0.651338063126406,-0.00475,0.0307466752243326));
#1103=CARTESIAN_POINT('',(0.648472481514538,-0.005,0.133778900235053));
#1104=CARTESIAN_POINT('',(0.651077555707145,-0.005,0.0401132411343982));
#1105=CARTESIAN_POINT('',(0.651077555707145,-0.01,0.0401132411343982));
#1106=CARTESIAN_POINT('',(0.651077555707145,-0.01,0.0401132411343982));
#1107=CARTESIAN_POINT('',(0.648472481514538,-0.01,0.133778900235053));
#1108=CARTESIAN_POINT('',(0.648350861930126,-0.01025,0.0440807389870767));
#1109=CARTESIAN_POINT('',(0.648350861930126,-0.00475,0.0440807389870767));
#1110=CARTESIAN_POINT('',(0.656655723312636,-0.01025,0.0341479184955846));
#1111=CARTESIAN_POINT('',(0.656655723312636,-0.00475,0.0341479184955846));
#1112=CARTESIAN_POINT('',(0.656655723312636,-0.01025,0.0212006544796267));
#1113=CARTESIAN_POINT('',(0.656655723312636,-0.00475,0.0212006544796267));
#1114=CARTESIAN_POINT('',(0.648350861930126,-0.01025,0.0112678339881346));
#1115=CARTESIAN_POINT('',(0.648350861930126,-0.00475,0.0112678339881346));
#1116=CARTESIAN_POINT('',(0.628728337233612,-0.005,0.0276742864876056));
#1117=CARTESIAN_POINT('',(0.628728337233612,-0.01,0.0276742864876056));
#1118=CARTESIAN_POINT('',(0.717525883970392,-0.01025,0.0112818965540915));
#1119=CARTESIAN_POINT('',(0.717525883970392,-0.00475,0.0112818965540915));
#1120=CARTESIAN_POINT('',(0.70909686619141,-0.01025,0.0212585896835486));
#1121=CARTESIAN_POINT('',(0.70909686619141,-0.00475,0.0212585896835486));
#1122=CARTESIAN_POINT('',(0.70909686619141,-0.01025,0.0343193226843316));
#1123=CARTESIAN_POINT('',(0.70909686619141,-0.00475,0.0343193226843316));
#1124=CARTESIAN_POINT('',(0.717525883970392,-0.01025,0.0442960158137888));
#1125=CARTESIAN_POINT('',(0.717525883970392,-0.00475,0.0442960158137888));
#1126=CARTESIAN_POINT('',(0.737063850636841,-0.005,0.0277889561839402));
#1127=CARTESIAN_POINT('',(0.71477884054184,-0.005,0.0403425805270671));
#1128=CARTESIAN_POINT('',(0.71477884054184,-0.01,0.0403425805270671));
#1129=CARTESIAN_POINT('',(0.71477884054184,-0.01,0.0403425805270671));
#1130=CARTESIAN_POINT('',(0.737063850636841,-0.01,0.0277889561839402));
#1131=CARTESIAN_POINT('',(0.70881681740284,-0.01025,0.237026184238493));
#1132=CARTESIAN_POINT('',(0.70881681740284,-0.00474999999999999,0.237026184238493));
#1133=CARTESIAN_POINT('',(0.715062746405602,-0.01025,0.0309766946360468));
#1134=CARTESIAN_POINT('',(0.715062746405602,-0.00474999999999999,0.0309766946360468));
#1135=CARTESIAN_POINT('',(0.711939781904221,-0.005,0.13400143943727));
#1136=CARTESIAN_POINT('',(0.709100723266602,-0.005,0.227660298347473));
#1137=CARTESIAN_POINT('',(0.709100723266602,-0.01,0.227660298347473));
#1138=CARTESIAN_POINT('',(0.709100723266602,-0.01,0.227660298347473));
#1139=CARTESIAN_POINT('',(0.711939781904221,-0.01,0.13400143943727));
#1140=CARTESIAN_POINT('',(0.711794425283054,-0.01025,0.223670327468982));
#1141=CARTESIAN_POINT('',(0.711794425283054,-0.00475,0.223670327468982));
#1142=CARTESIAN_POINT('',(0.703687892858858,-0.01025,0.233530956455966));
#1143=CARTESIAN_POINT('',(0.703687892858858,-0.00475,0.233530956455966));
#1144=CARTESIAN_POINT('',(0.703687892858858,-0.01025,0.246296060136059));
#1145=CARTESIAN_POINT('',(0.703687892858858,-0.00475,0.246296060136059));
#1146=CARTESIAN_POINT('',(0.711794425283054,-0.01025,0.256156689123044));
#1147=CARTESIAN_POINT('',(0.711794425283054,-0.00475,0.256156689123044));
#1148=CARTESIAN_POINT('',(0.731552315749981,-0.005,0.239913508296013));
#1149=CARTESIAN_POINT('',(0.731552315749981,-0.01,0.239913508296013));
#1150=CARTESIAN_POINT('',(0.641967020201683,-0.01,0.00338876252062617));
#1151=CARTESIAN_POINT('',(0.641967020201683,-0.01,0.264013287564739));
#1152=CARTESIAN_POINT('',(0.718679227662087,-0.01,0.00338876252062617));
#1153=CARTESIAN_POINT('',(0.718679227662087,-0.01,0.264013287564739));
#1154=CARTESIAN_POINT('',(0.817114633797438,-0.00525,0.303387773715903));
#1155=CARTESIAN_POINT('',(0.817114633797438,0.00025,0.303387773715903));
#1156=CARTESIAN_POINT('',(0.817114633797438,-0.00525,-0.0321122262840977));
#1157=CARTESIAN_POINT('',(0.817114633797438,0.00025,-0.0321122262840977));
#1158=CARTESIAN_POINT('',(0.817114633797438,-0.005,0.135637773715902));
#1159=CARTESIAN_POINT('',(0.705096508393489,-0.005,-0.0168622262840978));
#1160=CARTESIAN_POINT('',(0.705096508393489,-0.005,0.288137773715902));
#1161=CARTESIAN_POINT('',(0.817114633797438,-0.005,-0.0168622262840978));
#1162=CARTESIAN_POINT('',(0.817114633797438,-0.005,0.288137773715902));
#1163=CARTESIAN_POINT('',(0.537114633797438,-0.00525,-0.0321122262840978));
#1164=CARTESIAN_POINT('',(0.537114633797438,0.00025,-0.0321122262840978));
#1165=CARTESIAN_POINT('',(0.537114633797438,-0.00525,0.303387773715902));
#1166=CARTESIAN_POINT('',(0.537114633797438,0.00025,0.303387773715902));
#1167=CARTESIAN_POINT('',(0.537114633797438,-0.005,0.135637773715902));
#1168=CARTESIAN_POINT('',(0.537114633797438,-0.005,-0.0168622262840978));
#1169=CARTESIAN_POINT('',(0.537114633797438,-0.005,0.288137773715902));
#1170=CARTESIAN_POINT('',(0.65522646779512,-0.005,-0.0168622262840978));
#1171=CARTESIAN_POINT('',(0.65522646779512,-0.005,0.288137773715902));
#1172=MECHANICAL_DESIGN_GEOMETRIC_PRESENTATION_REPRESENTATION('',(#649),
#1173);
#1173=(
GEOMETRIC_REPRESENTATION_CONTEXT(3)
GLOBAL_UNCERTAINTY_ASSIGNED_CONTEXT((#1174))
GLOBAL_UNIT_ASSIGNED_CONTEXT((#1177,#1176,#1175))
REPRESENTATION_CONTEXT('Part 14','TOP_LEVEL_ASSEMBLY_PART')
);
#1174=UNCERTAINTY_MEASURE_WITH_UNIT(LENGTH_MEASURE(1.E-8),#1177,
'DISTANCE_ACCURACY_VALUE','Maximum Tolerance applied to model');
#1175=(
NAMED_UNIT(*)
SI_UNIT($,.STERADIAN.)
SOLID_ANGLE_UNIT()
);
#1176=(
NAMED_UNIT(*)
PLANE_ANGLE_UNIT()
SI_UNIT($,.RADIAN.)
);
#1177=(
LENGTH_UNIT()
NAMED_UNIT(*)
SI_UNIT($,.METRE.)
);
#1178=PRODUCT_DEFINITION_SHAPE('','',#1179);
#1179=PRODUCT_DEFINITION('','',#1181,#1180);
#1180=PRODUCT_DEFINITION_CONTEXT('',#1187,'design');
#1181=PRODUCT_DEFINITION_FORMATION_WITH_SPECIFIED_SOURCE('','',#1183,
 .NOT_KNOWN.);
#1182=PRODUCT_RELATED_PRODUCT_CATEGORY('','',(#1183));
#1183=PRODUCT('Part 14','Part 14','Part 14',(#1185));
#1184=PRODUCT_CATEGORY('','');
#1185=PRODUCT_CONTEXT('',#1187,'mechanical');
#1186=APPLICATION_PROTOCOL_DEFINITION('international standard',
'ap242_managed_model_based_3d_engineering',2020,#1187);
#1187=APPLICATION_CONTEXT('managed model based 3d engineering');
ENDSEC;
END-ISO-10303-21;
