ISO-10303-21;
HEADER;
/* Generated by software containing ST-Developer
 * from STEP Tools, Inc. (www.steptools.com) 
 */
/* OPTION: using custom renumber hook */

FILE_DESCRIPTION(
/* description */ ('STEP AP242 Edition 2',
'CAx-IF Rec.Pracs.---Representation and Presentation of Product Manufa
cturing Information (PMI)---4.0---2014-10-13',
'CAx-IF Rec.Pracs.---3D Tessellated Geometry---0.4---2014-09-14','2;1',
'CAx-IF Rec.Pracs.---User Defined Attributes---1.5---2016-08-15'),
/* implementation_level */ '2;1');

FILE_NAME(
/* name */ 'Part Studio 1 - Part 8',
/* time_stamp */ '2026-09-10T16:33:18Z',
/* author */ (''),
/* organization */ (''),
/* preprocessor_version */ 'ST-DEVELOPER v20',
/* originating_system */ 'ONSHAPE BY PTC INC, 1.220',
/* authorisation */ '  ');

FILE_SCHEMA (('AP242_MANAGED_MODEL_BASED_3D_ENGINEERING_MIM_LF { 1 0 10303 442 3 1 4 }'));
ENDSEC;

DATA;
#10=SHAPE_REPRESENTATION_RELATIONSHIP('','',#733,#11);
#11=ADVANCED_BREP_SHAPE_REPRESENTATION('',(#731),#1299);
#12=LINE('',#1020,#70);
#13=LINE('',#1023,#71);
#14=LINE('',#1025,#72);
#15=LINE('',#1027,#73);
#16=LINE('',#1032,#74);
#17=LINE('',#1035,#75);
#18=LINE('',#1037,#76);
#19=LINE('',#1039,#77);
#20=LINE('',#1044,#78);
#21=LINE('',#1046,#79);
#22=LINE('',#1048,#80);
#23=LINE('',#1053,#81);
#24=LINE('',#1055,#82);
#25=LINE('',#1057,#83);
#26=LINE('',#1064,#84);
#27=LINE('',#1066,#85);
#28=LINE('',#1068,#86);
#29=LINE('',#1069,#87);
#30=LINE('',#1071,#88);
#31=LINE('',#1073,#89);
#32=LINE('',#1084,#90);
#33=LINE('',#1089,#91);
#34=LINE('',#1093,#92);
#35=LINE('',#1097,#93);
#36=LINE('',#1101,#94);
#37=LINE('',#1105,#95);
#38=LINE('',#1113,#96);
#39=LINE('',#1117,#97);
#40=LINE('',#1121,#98);
#41=LINE('',#1125,#99);
#42=LINE('',#1126,#100);
#43=LINE('',#1135,#101);
#44=LINE('',#1136,#102);
#45=LINE('',#1141,#103);
#46=LINE('',#1150,#104);
#47=LINE('',#1159,#105);
#48=LINE('',#1160,#106);
#49=LINE('',#1165,#107);
#50=LINE('',#1174,#108);
#51=LINE('',#1191,#109);
#52=LINE('',#1194,#110);
#53=LINE('',#1196,#111);
#54=LINE('',#1198,#112);
#55=LINE('',#1207,#113);
#56=LINE('',#1216,#114);
#57=LINE('',#1218,#115);
#58=LINE('',#1220,#116);
#59=LINE('',#1235,#117);
#60=LINE('',#1238,#118);
#61=LINE('',#1240,#119);
#62=LINE('',#1242,#120);
#63=LINE('',#1251,#121);
#64=LINE('',#1260,#122);
#65=LINE('',#1262,#123);
#66=LINE('',#1264,#124);
#67=LINE('',#1279,#125);
#68=LINE('',#1280,#126);
#69=LINE('',#1285,#127);
#70=VECTOR('',#805,1.);
#71=VECTOR('',#806,1.);
#72=VECTOR('',#807,1.);
#73=VECTOR('',#808,1.);
#74=VECTOR('',#809,1.);
#75=VECTOR('',#810,1.);
#76=VECTOR('',#811,1.);
#77=VECTOR('',#812,1.);
#78=VECTOR('',#813,1.);
#79=VECTOR('',#814,1.);
#80=VECTOR('',#815,1.);
#81=VECTOR('',#820,1.);
#82=VECTOR('',#821,1.);
#83=VECTOR('',#822,1.);
#84=VECTOR('',#825,1.);
#85=VECTOR('',#826,1.);
#86=VECTOR('',#827,1.);
#87=VECTOR('',#828,1.);
#88=VECTOR('',#829,1.);
#89=VECTOR('',#830,1.);
#90=VECTOR('',#833,1.);
#91=VECTOR('',#834,1.);
#92=VECTOR('',#837,1.);
#93=VECTOR('',#840,1.);
#94=VECTOR('',#843,1.);
#95=VECTOR('',#846,1.);
#96=VECTOR('',#849,1.);
#97=VECTOR('',#852,1.);
#98=VECTOR('',#855,1.);
#99=VECTOR('',#858,1.);
#100=VECTOR('',#859,1.);
#101=VECTOR('',#860,1.);
#102=VECTOR('',#861,1.);
#103=VECTOR('',#862,1.);
#104=VECTOR('',#863,1.);
#105=VECTOR('',#864,1.);
#106=VECTOR('',#865,1.);
#107=VECTOR('',#866,1.);
#108=VECTOR('',#867,1.);
#109=VECTOR('',#868,1.);
#110=VECTOR('',#869,1.);
#111=VECTOR('',#870,1.);
#112=VECTOR('',#871,1.);
#113=VECTOR('',#872,1.);
#114=VECTOR('',#877,1.);
#115=VECTOR('',#878,1.);
#116=VECTOR('',#879,1.);
#117=VECTOR('',#884,1.);
#118=VECTOR('',#885,1.);
#119=VECTOR('',#886,1.);
#120=VECTOR('',#887,1.);
#121=VECTOR('',#888,1.);
#122=VECTOR('',#893,1.);
#123=VECTOR('',#894,1.);
#124=VECTOR('',#895,1.);
#125=VECTOR('',#900,1.);
#126=VECTOR('',#901,1.);
#127=VECTOR('',#902,1.);
#128=B_SPLINE_SURFACE_WITH_KNOTS('',1,1,((#1016,#1017),(#1018,#1019)),
 .PLANE_SURF.,.F.,.F.,.F.,(2,2),(2,2),(0.,1.),(0.,1.),.UNSPECIFIED.);
#129=B_SPLINE_SURFACE_WITH_KNOTS('',1,1,((#1028,#1029),(#1030,#1031)),
 .PLANE_SURF.,.F.,.F.,.F.,(2,2),(2,2),(0.,1.),(0.,1.),.UNSPECIFIED.);
#130=B_SPLINE_SURFACE_WITH_KNOTS('',1,1,((#1040,#1041),(#1042,#1043)),
 .PLANE_SURF.,.F.,.F.,.F.,(2,2),(2,2),(0.,1.),(0.,1.),.UNSPECIFIED.);
#131=B_SPLINE_SURFACE_WITH_KNOTS('',1,1,((#1058,#1059),(#1060,#1061)),
 .PLANE_SURF.,.F.,.F.,.F.,(2,2),(2,2),(0.,1.),(0.,1.),.UNSPECIFIED.);
#132=B_SPLINE_SURFACE_WITH_KNOTS('',1,1,((#1085,#1086),(#1087,#1088)),
 .PLANE_SURF.,.F.,.F.,.F.,(2,2),(2,2),(0.,1.),(0.,1.),.UNSPECIFIED.);
#133=B_SPLINE_SURFACE_WITH_KNOTS('',1,1,((#1106,#1107),(#1108,#1109)),
 .PLANE_SURF.,.F.,.F.,.F.,(2,2),(2,2),(0.,1.),(0.,1.),.UNSPECIFIED.);
#134=B_SPLINE_SURFACE_WITH_KNOTS('',1,1,((#1137,#1138),(#1139,#1140)),
 .PLANE_SURF.,.F.,.F.,.F.,(2,2),(2,2),(0.,1.),(0.,1.),.UNSPECIFIED.);
#135=B_SPLINE_SURFACE_WITH_KNOTS('',1,1,((#1161,#1162),(#1163,#1164)),
 .PLANE_SURF.,.F.,.F.,.F.,(2,2),(2,2),(0.,1.),(0.,1.),.UNSPECIFIED.);
#136=B_SPLINE_SURFACE_WITH_KNOTS('',1,1,((#1175,#1176),(#1177,#1178)),
 .PLANE_SURF.,.F.,.F.,.F.,(2,2),(2,2),(0.,1.),(0.,1.),.UNSPECIFIED.);
#137=B_SPLINE_SURFACE_WITH_KNOTS('',1,1,((#1179,#1180),(#1181,#1182)),
 .PLANE_SURF.,.F.,.F.,.F.,(2,2),(2,2),(0.,1.),(0.,1.),.UNSPECIFIED.);
#138=B_SPLINE_SURFACE_WITH_KNOTS('',1,1,((#1183,#1184),(#1185,#1186)),
 .PLANE_SURF.,.F.,.F.,.F.,(2,2),(2,2),(0.,1.),(0.,1.),.UNSPECIFIED.);
#139=B_SPLINE_SURFACE_WITH_KNOTS('',1,1,((#1187,#1188),(#1189,#1190)),
 .PLANE_SURF.,.F.,.F.,.F.,(2,2),(2,2),(0.,1.),(0.,1.),.UNSPECIFIED.);
#140=B_SPLINE_SURFACE_WITH_KNOTS('',1,1,((#1212,#1213),(#1214,#1215)),
 .PLANE_SURF.,.F.,.F.,.F.,(2,2),(2,2),(0.,1.),(0.,1.),.UNSPECIFIED.);
#141=B_SPLINE_SURFACE_WITH_KNOTS('',1,1,((#1231,#1232),(#1233,#1234)),
 .PLANE_SURF.,.F.,.F.,.F.,(2,2),(2,2),(0.,1.),(0.,1.),.UNSPECIFIED.);
#142=B_SPLINE_SURFACE_WITH_KNOTS('',1,1,((#1256,#1257),(#1258,#1259)),
 .PLANE_SURF.,.F.,.F.,.F.,(2,2),(2,2),(0.,1.),(0.,1.),.UNSPECIFIED.);
#143=B_SPLINE_SURFACE_WITH_KNOTS('',1,1,((#1275,#1276),(#1277,#1278)),
 .PLANE_SURF.,.F.,.F.,.F.,(2,2),(2,2),(0.,1.),(0.,1.),.UNSPECIFIED.);
#144=B_SPLINE_SURFACE_WITH_KNOTS('',1,1,((#1281,#1282),(#1283,#1284)),
 .PLANE_SURF.,.F.,.F.,.F.,(2,2),(2,2),(0.,1.),(0.,1.),.UNSPECIFIED.);
#145=B_SPLINE_SURFACE_WITH_KNOTS('',1,1,((#1286,#1287),(#1288,#1289)),
 .PLANE_SURF.,.F.,.F.,.F.,(2,2),(2,2),(0.,1.),(0.,1.),.UNSPECIFIED.);
#146=(
BOUNDED_CURVE()
B_SPLINE_CURVE(1,(#915,#916),.UNSPECIFIED.,.F.,.F.)
B_SPLINE_CURVE_WITH_KNOTS((2,2),(0.,1.),.PIECEWISE_BEZIER_KNOTS.)
CURVE()
GEOMETRIC_REPRESENTATION_ITEM()
RATIONAL_B_SPLINE_CURVE((1.,1.))
REPRESENTATION_ITEM('')
);
#147=(
BOUNDED_CURVE()
B_SPLINE_CURVE(1,(#920,#921),.UNSPECIFIED.,.F.,.F.)
B_SPLINE_CURVE_WITH_KNOTS((2,2),(0.,1.),.PIECEWISE_BEZIER_KNOTS.)
CURVE()
GEOMETRIC_REPRESENTATION_ITEM()
RATIONAL_B_SPLINE_CURVE((1.,1.))
REPRESENTATION_ITEM('')
);
#148=(
BOUNDED_CURVE()
B_SPLINE_CURVE(1,(#933,#934),.UNSPECIFIED.,.F.,.F.)
B_SPLINE_CURVE_WITH_KNOTS((2,2),(0.,1.),.PIECEWISE_BEZIER_KNOTS.)
CURVE()
GEOMETRIC_REPRESENTATION_ITEM()
RATIONAL_B_SPLINE_CURVE((1.,1.))
REPRESENTATION_ITEM('')
);
#149=(
BOUNDED_CURVE()
B_SPLINE_CURVE(1,(#938,#939),.UNSPECIFIED.,.F.,.F.)
B_SPLINE_CURVE_WITH_KNOTS((2,2),(0.,1.),.PIECEWISE_BEZIER_KNOTS.)
CURVE()
GEOMETRIC_REPRESENTATION_ITEM()
RATIONAL_B_SPLINE_CURVE((1.,1.))
REPRESENTATION_ITEM('')
);
#150=(
BOUNDED_CURVE()
B_SPLINE_CURVE(1,(#951,#952),.UNSPECIFIED.,.F.,.F.)
B_SPLINE_CURVE_WITH_KNOTS((2,2),(0.,1.),.PIECEWISE_BEZIER_KNOTS.)
CURVE()
GEOMETRIC_REPRESENTATION_ITEM()
RATIONAL_B_SPLINE_CURVE((1.,1.))
REPRESENTATION_ITEM('')
);
#151=(
BOUNDED_CURVE()
B_SPLINE_CURVE(1,(#956,#957),.UNSPECIFIED.,.F.,.F.)
B_SPLINE_CURVE_WITH_KNOTS((2,2),(0.,1.),.PIECEWISE_BEZIER_KNOTS.)
CURVE()
GEOMETRIC_REPRESENTATION_ITEM()
RATIONAL_B_SPLINE_CURVE((1.,1.))
REPRESENTATION_ITEM('')
);
#152=(
BOUNDED_CURVE()
B_SPLINE_CURVE(1,(#969,#970),.UNSPECIFIED.,.F.,.F.)
B_SPLINE_CURVE_WITH_KNOTS((2,2),(0.,1.),.PIECEWISE_BEZIER_KNOTS.)
CURVE()
GEOMETRIC_REPRESENTATION_ITEM()
RATIONAL_B_SPLINE_CURVE((1.,1.))
REPRESENTATION_ITEM('')
);
#153=(
BOUNDED_CURVE()
B_SPLINE_CURVE(1,(#974,#975),.UNSPECIFIED.,.F.,.F.)
B_SPLINE_CURVE_WITH_KNOTS((2,2),(0.,1.),.PIECEWISE_BEZIER_KNOTS.)
CURVE()
GEOMETRIC_REPRESENTATION_ITEM()
RATIONAL_B_SPLINE_CURVE((1.,1.))
REPRESENTATION_ITEM('')
);
#154=ORIENTED_EDGE('',*,*,#358,.T.);
#155=ORIENTED_EDGE('',*,*,#359,.T.);
#156=ORIENTED_EDGE('',*,*,#360,.F.);
#157=ORIENTED_EDGE('',*,*,#361,.F.);
#158=ORIENTED_EDGE('',*,*,#362,.T.);
#159=ORIENTED_EDGE('',*,*,#363,.T.);
#160=ORIENTED_EDGE('',*,*,#364,.F.);
#161=ORIENTED_EDGE('',*,*,#365,.F.);
#162=ORIENTED_EDGE('',*,*,#366,.T.);
#163=ORIENTED_EDGE('',*,*,#367,.T.);
#164=ORIENTED_EDGE('',*,*,#368,.F.);
#165=ORIENTED_EDGE('',*,*,#369,.F.);
#166=ORIENTED_EDGE('',*,*,#370,.T.);
#167=ORIENTED_EDGE('',*,*,#371,.T.);
#168=ORIENTED_EDGE('',*,*,#372,.F.);
#169=ORIENTED_EDGE('',*,*,#373,.F.);
#170=ORIENTED_EDGE('',*,*,#371,.F.);
#171=ORIENTED_EDGE('',*,*,#374,.T.);
#172=ORIENTED_EDGE('',*,*,#373,.T.);
#173=ORIENTED_EDGE('',*,*,#375,.F.);
#174=ORIENTED_EDGE('',*,*,#367,.F.);
#175=ORIENTED_EDGE('',*,*,#376,.T.);
#176=ORIENTED_EDGE('',*,*,#369,.T.);
#177=ORIENTED_EDGE('',*,*,#377,.F.);
#178=ORIENTED_EDGE('',*,*,#363,.F.);
#179=ORIENTED_EDGE('',*,*,#378,.T.);
#180=ORIENTED_EDGE('',*,*,#365,.T.);
#181=ORIENTED_EDGE('',*,*,#379,.F.);
#182=ORIENTED_EDGE('',*,*,#359,.F.);
#183=ORIENTED_EDGE('',*,*,#380,.T.);
#184=ORIENTED_EDGE('',*,*,#361,.T.);
#185=ORIENTED_EDGE('',*,*,#381,.F.);
#186=ORIENTED_EDGE('',*,*,#382,.F.);
#187=ORIENTED_EDGE('',*,*,#383,.F.);
#188=ORIENTED_EDGE('',*,*,#384,.F.);
#189=ORIENTED_EDGE('',*,*,#385,.F.);
#190=ORIENTED_EDGE('',*,*,#358,.F.);
#191=ORIENTED_EDGE('',*,*,#380,.F.);
#192=ORIENTED_EDGE('',*,*,#362,.F.);
#193=ORIENTED_EDGE('',*,*,#378,.F.);
#194=ORIENTED_EDGE('',*,*,#366,.F.);
#195=ORIENTED_EDGE('',*,*,#376,.F.);
#196=ORIENTED_EDGE('',*,*,#370,.F.);
#197=ORIENTED_EDGE('',*,*,#374,.F.);
#198=ORIENTED_EDGE('',*,*,#360,.T.);
#199=ORIENTED_EDGE('',*,*,#381,.T.);
#200=ORIENTED_EDGE('',*,*,#364,.T.);
#201=ORIENTED_EDGE('',*,*,#379,.T.);
#202=ORIENTED_EDGE('',*,*,#386,.T.);
#203=ORIENTED_EDGE('',*,*,#387,.T.);
#204=ORIENTED_EDGE('',*,*,#388,.T.);
#205=ORIENTED_EDGE('',*,*,#389,.T.);
#206=ORIENTED_EDGE('',*,*,#368,.T.);
#207=ORIENTED_EDGE('',*,*,#377,.T.);
#208=ORIENTED_EDGE('',*,*,#372,.T.);
#209=ORIENTED_EDGE('',*,*,#375,.T.);
#210=ORIENTED_EDGE('',*,*,#383,.T.);
#211=ORIENTED_EDGE('',*,*,#390,.T.);
#212=ORIENTED_EDGE('',*,*,#391,.T.);
#213=ORIENTED_EDGE('',*,*,#392,.F.);
#214=ORIENTED_EDGE('',*,*,#393,.T.);
#215=ORIENTED_EDGE('',*,*,#386,.F.);
#216=ORIENTED_EDGE('',*,*,#394,.F.);
#217=ORIENTED_EDGE('',*,*,#395,.T.);
#218=ORIENTED_EDGE('',*,*,#396,.T.);
#219=ORIENTED_EDGE('',*,*,#397,.T.);
#220=ORIENTED_EDGE('',*,*,#388,.F.);
#221=ORIENTED_EDGE('',*,*,#398,.F.);
#222=ORIENTED_EDGE('',*,*,#399,.F.);
#223=ORIENTED_EDGE('',*,*,#400,.F.);
#224=ORIENTED_EDGE('',*,*,#401,.T.);
#225=ORIENTED_EDGE('',*,*,#385,.T.);
#226=ORIENTED_EDGE('',*,*,#402,.T.);
#227=ORIENTED_EDGE('',*,*,#403,.F.);
#228=ORIENTED_EDGE('',*,*,#404,.T.);
#229=ORIENTED_EDGE('',*,*,#405,.T.);
#230=ORIENTED_EDGE('',*,*,#393,.F.);
#231=ORIENTED_EDGE('',*,*,#406,.T.);
#232=ORIENTED_EDGE('',*,*,#398,.T.);
#233=ORIENTED_EDGE('',*,*,#387,.F.);
#234=ORIENTED_EDGE('',*,*,#390,.F.);
#235=ORIENTED_EDGE('',*,*,#382,.T.);
#236=ORIENTED_EDGE('',*,*,#401,.F.);
#237=ORIENTED_EDGE('',*,*,#407,.F.);
#238=ORIENTED_EDGE('',*,*,#408,.T.);
#239=ORIENTED_EDGE('',*,*,#409,.F.);
#240=ORIENTED_EDGE('',*,*,#410,.T.);
#241=ORIENTED_EDGE('',*,*,#411,.T.);
#242=ORIENTED_EDGE('',*,*,#412,.T.);
#243=ORIENTED_EDGE('',*,*,#413,.F.);
#244=ORIENTED_EDGE('',*,*,#414,.T.);
#245=ORIENTED_EDGE('',*,*,#415,.T.);
#246=ORIENTED_EDGE('',*,*,#416,.T.);
#247=ORIENTED_EDGE('',*,*,#417,.T.);
#248=ORIENTED_EDGE('',*,*,#418,.T.);
#249=ORIENTED_EDGE('',*,*,#419,.F.);
#250=ORIENTED_EDGE('',*,*,#420,.T.);
#251=ORIENTED_EDGE('',*,*,#421,.T.);
#252=ORIENTED_EDGE('',*,*,#422,.T.);
#253=ORIENTED_EDGE('',*,*,#423,.F.);
#254=ORIENTED_EDGE('',*,*,#406,.F.);
#255=ORIENTED_EDGE('',*,*,#392,.T.);
#256=ORIENTED_EDGE('',*,*,#424,.F.);
#257=ORIENTED_EDGE('',*,*,#399,.T.);
#258=ORIENTED_EDGE('',*,*,#412,.F.);
#259=ORIENTED_EDGE('',*,*,#425,.T.);
#260=ORIENTED_EDGE('',*,*,#416,.F.);
#261=ORIENTED_EDGE('',*,*,#426,.F.);
#262=ORIENTED_EDGE('',*,*,#427,.F.);
#263=ORIENTED_EDGE('',*,*,#413,.T.);
#264=ORIENTED_EDGE('',*,*,#426,.T.);
#265=ORIENTED_EDGE('',*,*,#419,.T.);
#266=ORIENTED_EDGE('',*,*,#414,.F.);
#267=ORIENTED_EDGE('',*,*,#427,.T.);
#268=ORIENTED_EDGE('',*,*,#418,.F.);
#269=ORIENTED_EDGE('',*,*,#428,.F.);
#270=ORIENTED_EDGE('',*,*,#408,.F.);
#271=ORIENTED_EDGE('',*,*,#429,.T.);
#272=ORIENTED_EDGE('',*,*,#420,.F.);
#273=ORIENTED_EDGE('',*,*,#430,.F.);
#274=ORIENTED_EDGE('',*,*,#431,.F.);
#275=ORIENTED_EDGE('',*,*,#409,.T.);
#276=ORIENTED_EDGE('',*,*,#430,.T.);
#277=ORIENTED_EDGE('',*,*,#423,.T.);
#278=ORIENTED_EDGE('',*,*,#410,.F.);
#279=ORIENTED_EDGE('',*,*,#431,.T.);
#280=ORIENTED_EDGE('',*,*,#422,.F.);
#281=ORIENTED_EDGE('',*,*,#432,.F.);
#282=ORIENTED_EDGE('',*,*,#391,.F.);
#283=ORIENTED_EDGE('',*,*,#407,.T.);
#284=ORIENTED_EDGE('',*,*,#400,.T.);
#285=ORIENTED_EDGE('',*,*,#424,.T.);
#286=ORIENTED_EDGE('',*,*,#411,.F.);
#287=ORIENTED_EDGE('',*,*,#432,.T.);
#288=ORIENTED_EDGE('',*,*,#421,.F.);
#289=ORIENTED_EDGE('',*,*,#429,.F.);
#290=ORIENTED_EDGE('',*,*,#415,.F.);
#291=ORIENTED_EDGE('',*,*,#428,.T.);
#292=ORIENTED_EDGE('',*,*,#417,.F.);
#293=ORIENTED_EDGE('',*,*,#425,.F.);
#294=ORIENTED_EDGE('',*,*,#433,.T.);
#295=ORIENTED_EDGE('',*,*,#434,.T.);
#296=ORIENTED_EDGE('',*,*,#435,.F.);
#297=ORIENTED_EDGE('',*,*,#436,.T.);
#298=ORIENTED_EDGE('',*,*,#437,.T.);
#299=ORIENTED_EDGE('',*,*,#438,.T.);
#300=ORIENTED_EDGE('',*,*,#433,.F.);
#301=ORIENTED_EDGE('',*,*,#439,.T.);
#302=ORIENTED_EDGE('',*,*,#440,.F.);
#303=ORIENTED_EDGE('',*,*,#437,.F.);
#304=ORIENTED_EDGE('',*,*,#441,.F.);
#305=ORIENTED_EDGE('',*,*,#442,.T.);
#306=ORIENTED_EDGE('',*,*,#435,.T.);
#307=ORIENTED_EDGE('',*,*,#443,.T.);
#308=ORIENTED_EDGE('',*,*,#442,.F.);
#309=ORIENTED_EDGE('',*,*,#444,.T.);
#310=ORIENTED_EDGE('',*,*,#445,.T.);
#311=ORIENTED_EDGE('',*,*,#446,.T.);
#312=ORIENTED_EDGE('',*,*,#447,.F.);
#313=ORIENTED_EDGE('',*,*,#448,.T.);
#314=ORIENTED_EDGE('',*,*,#449,.T.);
#315=ORIENTED_EDGE('',*,*,#450,.T.);
#316=ORIENTED_EDGE('',*,*,#445,.F.);
#317=ORIENTED_EDGE('',*,*,#451,.T.);
#318=ORIENTED_EDGE('',*,*,#452,.F.);
#319=ORIENTED_EDGE('',*,*,#449,.F.);
#320=ORIENTED_EDGE('',*,*,#453,.F.);
#321=ORIENTED_EDGE('',*,*,#454,.T.);
#322=ORIENTED_EDGE('',*,*,#447,.T.);
#323=ORIENTED_EDGE('',*,*,#455,.T.);
#324=ORIENTED_EDGE('',*,*,#454,.F.);
#325=ORIENTED_EDGE('',*,*,#456,.T.);
#326=ORIENTED_EDGE('',*,*,#456,.F.);
#327=ORIENTED_EDGE('',*,*,#453,.T.);
#328=ORIENTED_EDGE('',*,*,#451,.F.);
#329=ORIENTED_EDGE('',*,*,#448,.F.);
#330=ORIENTED_EDGE('',*,*,#444,.F.);
#331=ORIENTED_EDGE('',*,*,#441,.T.);
#332=ORIENTED_EDGE('',*,*,#439,.F.);
#333=ORIENTED_EDGE('',*,*,#436,.F.);
#334=ORIENTED_EDGE('',*,*,#457,.T.);
#335=ORIENTED_EDGE('',*,*,#404,.F.);
#336=ORIENTED_EDGE('',*,*,#458,.T.);
#337=ORIENTED_EDGE('',*,*,#395,.F.);
#338=ORIENTED_EDGE('',*,*,#459,.F.);
#339=ORIENTED_EDGE('',*,*,#396,.F.);
#340=ORIENTED_EDGE('',*,*,#458,.F.);
#341=ORIENTED_EDGE('',*,*,#403,.T.);
#342=ORIENTED_EDGE('',*,*,#443,.F.);
#343=ORIENTED_EDGE('',*,*,#434,.F.);
#344=ORIENTED_EDGE('',*,*,#438,.F.);
#345=ORIENTED_EDGE('',*,*,#440,.T.);
#346=ORIENTED_EDGE('',*,*,#455,.F.);
#347=ORIENTED_EDGE('',*,*,#446,.F.);
#348=ORIENTED_EDGE('',*,*,#450,.F.);
#349=ORIENTED_EDGE('',*,*,#452,.T.);
#350=ORIENTED_EDGE('',*,*,#402,.F.);
#351=ORIENTED_EDGE('',*,*,#384,.T.);
#352=ORIENTED_EDGE('',*,*,#397,.F.);
#353=ORIENTED_EDGE('',*,*,#459,.T.);
#354=ORIENTED_EDGE('',*,*,#405,.F.);
#355=ORIENTED_EDGE('',*,*,#457,.F.);
#356=ORIENTED_EDGE('',*,*,#394,.T.);
#357=ORIENTED_EDGE('',*,*,#389,.F.);
#358=EDGE_CURVE('',#460,#461,#528,.T.);
#359=EDGE_CURVE('',#461,#462,#146,.T.);
#360=EDGE_CURVE('',#463,#462,#529,.T.);
#361=EDGE_CURVE('',#460,#463,#147,.T.);
#362=EDGE_CURVE('',#464,#465,#530,.T.);
#363=EDGE_CURVE('',#465,#466,#148,.T.);
#364=EDGE_CURVE('',#467,#466,#531,.T.);
#365=EDGE_CURVE('',#464,#467,#149,.T.);
#366=EDGE_CURVE('',#468,#469,#532,.T.);
#367=EDGE_CURVE('',#469,#470,#150,.T.);
#368=EDGE_CURVE('',#471,#470,#533,.T.);
#369=EDGE_CURVE('',#468,#471,#151,.T.);
#370=EDGE_CURVE('',#472,#473,#534,.T.);
#371=EDGE_CURVE('',#473,#474,#152,.T.);
#372=EDGE_CURVE('',#475,#474,#535,.T.);
#373=EDGE_CURVE('',#472,#475,#153,.T.);
#374=EDGE_CURVE('',#473,#472,#536,.T.);
#375=EDGE_CURVE('',#474,#475,#537,.T.);
#376=EDGE_CURVE('',#469,#468,#538,.T.);
#377=EDGE_CURVE('',#470,#471,#539,.T.);
#378=EDGE_CURVE('',#465,#464,#540,.T.);
#379=EDGE_CURVE('',#466,#467,#541,.T.);
#380=EDGE_CURVE('',#461,#460,#542,.T.);
#381=EDGE_CURVE('',#462,#463,#543,.T.);
#382=EDGE_CURVE('',#476,#477,#12,.T.);
#383=EDGE_CURVE('',#478,#476,#13,.T.);
#384=EDGE_CURVE('',#479,#478,#14,.T.);
#385=EDGE_CURVE('',#477,#479,#15,.T.);
#386=EDGE_CURVE('',#480,#481,#16,.T.);
#387=EDGE_CURVE('',#481,#482,#17,.T.);
#388=EDGE_CURVE('',#482,#483,#18,.T.);
#389=EDGE_CURVE('',#483,#480,#19,.T.);
#390=EDGE_CURVE('',#476,#484,#20,.T.);
#391=EDGE_CURVE('',#484,#485,#21,.T.);
#392=EDGE_CURVE('',#486,#485,#22,.T.);
#393=EDGE_CURVE('',#486,#481,#544,.T.);
#394=EDGE_CURVE('',#487,#480,#545,.T.);
#395=EDGE_CURVE('',#487,#488,#23,.T.);
#396=EDGE_CURVE('',#488,#489,#24,.T.);
#397=EDGE_CURVE('',#489,#478,#25,.T.);
#398=EDGE_CURVE('',#490,#482,#546,.T.);
#399=EDGE_CURVE('',#491,#490,#26,.T.);
#400=EDGE_CURVE('',#492,#491,#27,.T.);
#401=EDGE_CURVE('',#492,#477,#28,.T.);
#402=EDGE_CURVE('',#479,#493,#29,.T.);
#403=EDGE_CURVE('',#494,#493,#30,.T.);
#404=EDGE_CURVE('',#494,#495,#31,.T.);
#405=EDGE_CURVE('',#495,#483,#547,.T.);
#406=EDGE_CURVE('',#486,#490,#32,.T.);
#407=EDGE_CURVE('',#484,#492,#33,.T.);
#408=EDGE_CURVE('',#496,#497,#548,.T.);
#409=EDGE_CURVE('',#498,#497,#34,.T.);
#410=EDGE_CURVE('',#498,#499,#549,.T.);
#411=EDGE_CURVE('',#499,#496,#35,.T.);
#412=EDGE_CURVE('',#500,#501,#550,.T.);
#413=EDGE_CURVE('',#502,#501,#36,.T.);
#414=EDGE_CURVE('',#502,#503,#551,.T.);
#415=EDGE_CURVE('',#503,#500,#37,.T.);
#416=EDGE_CURVE('',#504,#505,#552,.T.);
#417=EDGE_CURVE('',#505,#506,#38,.T.);
#418=EDGE_CURVE('',#506,#507,#553,.T.);
#419=EDGE_CURVE('',#504,#507,#39,.T.);
#420=EDGE_CURVE('',#508,#509,#554,.T.);
#421=EDGE_CURVE('',#509,#510,#40,.T.);
#422=EDGE_CURVE('',#510,#511,#555,.T.);
#423=EDGE_CURVE('',#508,#511,#41,.T.);
#424=EDGE_CURVE('',#491,#485,#42,.T.);
#425=EDGE_CURVE('',#500,#505,#43,.T.);
#426=EDGE_CURVE('',#501,#504,#44,.T.);
#427=EDGE_CURVE('',#502,#507,#45,.T.);
#428=EDGE_CURVE('',#503,#506,#46,.T.);
#429=EDGE_CURVE('',#496,#509,#47,.T.);
#430=EDGE_CURVE('',#497,#508,#48,.T.);
#431=EDGE_CURVE('',#498,#511,#49,.T.);
#432=EDGE_CURVE('',#499,#510,#50,.T.);
#433=EDGE_CURVE('',#512,#513,#51,.T.);
#434=EDGE_CURVE('',#513,#514,#52,.T.);
#435=EDGE_CURVE('',#515,#514,#53,.T.);
#436=EDGE_CURVE('',#515,#512,#54,.T.);
#437=EDGE_CURVE('',#516,#517,#55,.T.);
#438=EDGE_CURVE('',#517,#513,#556,.T.);
#439=EDGE_CURVE('',#512,#516,#557,.T.);
#440=EDGE_CURVE('',#517,#518,#56,.T.);
#441=EDGE_CURVE('',#519,#516,#57,.T.);
#442=EDGE_CURVE('',#519,#518,#58,.T.);
#443=EDGE_CURVE('',#514,#518,#558,.T.);
#444=EDGE_CURVE('',#519,#515,#559,.T.);
#445=EDGE_CURVE('',#520,#521,#59,.T.);
#446=EDGE_CURVE('',#521,#522,#60,.T.);
#447=EDGE_CURVE('',#523,#522,#61,.T.);
#448=EDGE_CURVE('',#523,#520,#62,.T.);
#449=EDGE_CURVE('',#524,#525,#63,.T.);
#450=EDGE_CURVE('',#525,#521,#560,.T.);
#451=EDGE_CURVE('',#520,#524,#561,.T.);
#452=EDGE_CURVE('',#525,#526,#64,.T.);
#453=EDGE_CURVE('',#527,#524,#65,.T.);
#454=EDGE_CURVE('',#527,#526,#66,.T.);
#455=EDGE_CURVE('',#522,#526,#562,.T.);
#456=EDGE_CURVE('',#527,#523,#563,.T.);
#457=EDGE_CURVE('',#487,#495,#67,.T.);
#458=EDGE_CURVE('',#494,#488,#68,.T.);
#459=EDGE_CURVE('',#489,#493,#69,.T.);
#460=VERTEX_POINT('',#913);
#461=VERTEX_POINT('',#914);
#462=VERTEX_POINT('',#917);
#463=VERTEX_POINT('',#919);
#464=VERTEX_POINT('',#931);
#465=VERTEX_POINT('',#932);
#466=VERTEX_POINT('',#935);
#467=VERTEX_POINT('',#937);
#468=VERTEX_POINT('',#949);
#469=VERTEX_POINT('',#950);
#470=VERTEX_POINT('',#953);
#471=VERTEX_POINT('',#955);
#472=VERTEX_POINT('',#967);
#473=VERTEX_POINT('',#968);
#474=VERTEX_POINT('',#971);
#475=VERTEX_POINT('',#973);
#476=VERTEX_POINT('',#1021);
#477=VERTEX_POINT('',#1022);
#478=VERTEX_POINT('',#1024);
#479=VERTEX_POINT('',#1026);
#480=VERTEX_POINT('',#1033);
#481=VERTEX_POINT('',#1034);
#482=VERTEX_POINT('',#1036);
#483=VERTEX_POINT('',#1038);
#484=VERTEX_POINT('',#1045);
#485=VERTEX_POINT('',#1047);
#486=VERTEX_POINT('',#1049);
#487=VERTEX_POINT('',#1052);
#488=VERTEX_POINT('',#1054);
#489=VERTEX_POINT('',#1056);
#490=VERTEX_POINT('',#1063);
#491=VERTEX_POINT('',#1065);
#492=VERTEX_POINT('',#1067);
#493=VERTEX_POINT('',#1070);
#494=VERTEX_POINT('',#1072);
#495=VERTEX_POINT('',#1074);
#496=VERTEX_POINT('',#1091);
#497=VERTEX_POINT('',#1092);
#498=VERTEX_POINT('',#1094);
#499=VERTEX_POINT('',#1096);
#500=VERTEX_POINT('',#1099);
#501=VERTEX_POINT('',#1100);
#502=VERTEX_POINT('',#1102);
#503=VERTEX_POINT('',#1104);
#504=VERTEX_POINT('',#1111);
#505=VERTEX_POINT('',#1112);
#506=VERTEX_POINT('',#1114);
#507=VERTEX_POINT('',#1116);
#508=VERTEX_POINT('',#1119);
#509=VERTEX_POINT('',#1120);
#510=VERTEX_POINT('',#1122);
#511=VERTEX_POINT('',#1124);
#512=VERTEX_POINT('',#1192);
#513=VERTEX_POINT('',#1193);
#514=VERTEX_POINT('',#1195);
#515=VERTEX_POINT('',#1197);
#516=VERTEX_POINT('',#1208);
#517=VERTEX_POINT('',#1209);
#518=VERTEX_POINT('',#1217);
#519=VERTEX_POINT('',#1219);
#520=VERTEX_POINT('',#1236);
#521=VERTEX_POINT('',#1237);
#522=VERTEX_POINT('',#1239);
#523=VERTEX_POINT('',#1241);
#524=VERTEX_POINT('',#1252);
#525=VERTEX_POINT('',#1253);
#526=VERTEX_POINT('',#1261);
#527=VERTEX_POINT('',#1263);
#528=CIRCLE('',#735,0.00169648423935278);
#529=CIRCLE('',#736,0.00169648423935278);
#530=CIRCLE('',#737,0.00169648423935278);
#531=CIRCLE('',#738,0.00169648423935278);
#532=CIRCLE('',#739,0.00168746041101779);
#533=CIRCLE('',#740,0.00168746041101779);
#534=CIRCLE('',#741,0.00168746041101779);
#535=CIRCLE('',#742,0.00168746041101779);
#536=CIRCLE('',#743,0.00168746041101779);
#537=CIRCLE('',#744,0.00168746041101779);
#538=CIRCLE('',#745,0.00168746041101779);
#539=CIRCLE('',#746,0.00168746041101779);
#540=CIRCLE('',#747,0.00169648423935278);
#541=CIRCLE('',#748,0.00169648423935278);
#542=CIRCLE('',#749,0.00169648423935278);
#543=CIRCLE('',#750,0.00169648423935278);
#544=CIRCLE('',#751,0.005);
#545=CIRCLE('',#752,0.005);
#546=CIRCLE('',#753,0.005);
#547=CIRCLE('',#754,0.005);
#548=CIRCLE('',#755,0.002604);
#549=CIRCLE('',#756,0.002604);
#550=CIRCLE('',#757,0.00260385496687849);
#551=CIRCLE('',#758,0.00260385496687849);
#552=CIRCLE('',#759,0.00260385496687849);
#553=CIRCLE('',#760,0.00260385496687849);
#554=CIRCLE('',#761,0.002604);
#555=CIRCLE('',#762,0.002604);
#556=CIRCLE('',#763,0.002604);
#557=CIRCLE('',#764,0.002604);
#558=CIRCLE('',#765,0.002604);
#559=CIRCLE('',#766,0.002604);
#560=CIRCLE('',#767,0.00260385496687849);
#561=CIRCLE('',#768,0.00260385496687849);
#562=CIRCLE('',#769,0.00260385496687849);
#563=CIRCLE('',#770,0.00260385496687849);
#564=EDGE_LOOP('',(#154,#155,#156,#157));
#565=EDGE_LOOP('',(#158,#159,#160,#161));
#566=EDGE_LOOP('',(#162,#163,#164,#165));
#567=EDGE_LOOP('',(#166,#167,#168,#169));
#568=EDGE_LOOP('',(#170,#171,#172,#173));
#569=EDGE_LOOP('',(#174,#175,#176,#177));
#570=EDGE_LOOP('',(#178,#179,#180,#181));
#571=EDGE_LOOP('',(#182,#183,#184,#185));
#572=EDGE_LOOP('',(#186,#187,#188,#189));
#573=EDGE_LOOP('',(#190,#191));
#574=EDGE_LOOP('',(#192,#193));
#575=EDGE_LOOP('',(#194,#195));
#576=EDGE_LOOP('',(#196,#197));
#577=EDGE_LOOP('',(#198,#199));
#578=EDGE_LOOP('',(#200,#201));
#579=EDGE_LOOP('',(#202,#203,#204,#205));
#580=EDGE_LOOP('',(#206,#207));
#581=EDGE_LOOP('',(#208,#209));
#582=EDGE_LOOP('',(#210,#211,#212,#213,#214,#215,#216,#217,#218,#219));
#583=EDGE_LOOP('',(#220,#221,#222,#223,#224,#225,#226,#227,#228,#229));
#584=EDGE_LOOP('',(#230,#231,#232,#233));
#585=EDGE_LOOP('',(#234,#235,#236,#237));
#586=EDGE_LOOP('',(#238,#239,#240,#241));
#587=EDGE_LOOP('',(#242,#243,#244,#245));
#588=EDGE_LOOP('',(#246,#247,#248,#249));
#589=EDGE_LOOP('',(#250,#251,#252,#253));
#590=EDGE_LOOP('',(#254,#255,#256,#257));
#591=EDGE_LOOP('',(#258,#259,#260,#261));
#592=EDGE_LOOP('',(#262,#263,#264,#265));
#593=EDGE_LOOP('',(#266,#267,#268,#269));
#594=EDGE_LOOP('',(#270,#271,#272,#273));
#595=EDGE_LOOP('',(#274,#275,#276,#277));
#596=EDGE_LOOP('',(#278,#279,#280,#281));
#597=EDGE_LOOP('',(#282,#283,#284,#285));
#598=EDGE_LOOP('',(#286,#287,#288,#289));
#599=EDGE_LOOP('',(#290,#291,#292,#293));
#600=EDGE_LOOP('',(#294,#295,#296,#297));
#601=EDGE_LOOP('',(#298,#299,#300,#301));
#602=EDGE_LOOP('',(#302,#303,#304,#305));
#603=EDGE_LOOP('',(#306,#307,#308,#309));
#604=EDGE_LOOP('',(#310,#311,#312,#313));
#605=EDGE_LOOP('',(#314,#315,#316,#317));
#606=EDGE_LOOP('',(#318,#319,#320,#321));
#607=EDGE_LOOP('',(#322,#323,#324,#325));
#608=EDGE_LOOP('',(#326,#327,#328,#329));
#609=EDGE_LOOP('',(#330,#331,#332,#333));
#610=EDGE_LOOP('',(#334,#335,#336,#337));
#611=EDGE_LOOP('',(#338,#339,#340,#341));
#612=EDGE_LOOP('',(#342,#343,#344,#345));
#613=EDGE_LOOP('',(#346,#347,#348,#349));
#614=EDGE_LOOP('',(#350,#351,#352,#353));
#615=EDGE_LOOP('',(#354,#355,#356,#357));
#616=FACE_BOUND('',#564,.T.);
#617=FACE_BOUND('',#565,.T.);
#618=FACE_BOUND('',#566,.T.);
#619=FACE_BOUND('',#567,.T.);
#620=FACE_BOUND('',#568,.T.);
#621=FACE_BOUND('',#569,.T.);
#622=FACE_BOUND('',#570,.T.);
#623=FACE_BOUND('',#571,.T.);
#624=FACE_BOUND('',#572,.T.);
#625=FACE_BOUND('',#573,.T.);
#626=FACE_BOUND('',#574,.T.);
#627=FACE_BOUND('',#575,.T.);
#628=FACE_BOUND('',#576,.T.);
#629=FACE_BOUND('',#577,.T.);
#630=FACE_BOUND('',#578,.T.);
#631=FACE_BOUND('',#579,.T.);
#632=FACE_BOUND('',#580,.T.);
#633=FACE_BOUND('',#581,.T.);
#634=FACE_BOUND('',#582,.T.);
#635=FACE_BOUND('',#583,.T.);
#636=FACE_BOUND('',#584,.T.);
#637=FACE_BOUND('',#585,.T.);
#638=FACE_BOUND('',#586,.T.);
#639=FACE_BOUND('',#587,.T.);
#640=FACE_BOUND('',#588,.T.);
#641=FACE_BOUND('',#589,.T.);
#642=FACE_BOUND('',#590,.T.);
#643=FACE_BOUND('',#591,.T.);
#644=FACE_BOUND('',#592,.T.);
#645=FACE_BOUND('',#593,.T.);
#646=FACE_BOUND('',#594,.T.);
#647=FACE_BOUND('',#595,.T.);
#648=FACE_BOUND('',#596,.T.);
#649=FACE_BOUND('',#597,.T.);
#650=FACE_BOUND('',#598,.T.);
#651=FACE_BOUND('',#599,.T.);
#652=FACE_BOUND('',#600,.T.);
#653=FACE_BOUND('',#601,.T.);
#654=FACE_BOUND('',#602,.T.);
#655=FACE_BOUND('',#603,.T.);
#656=FACE_BOUND('',#604,.T.);
#657=FACE_BOUND('',#605,.T.);
#658=FACE_BOUND('',#606,.T.);
#659=FACE_BOUND('',#607,.T.);
#660=FACE_BOUND('',#608,.T.);
#661=FACE_BOUND('',#609,.T.);
#662=FACE_BOUND('',#610,.T.);
#663=FACE_BOUND('',#611,.T.);
#664=FACE_BOUND('',#612,.T.);
#665=FACE_BOUND('',#613,.T.);
#666=FACE_BOUND('',#614,.T.);
#667=FACE_BOUND('',#615,.T.);
#668=(
BOUNDED_SURFACE()
B_SPLINE_SURFACE(3,1,((#904,#905),(#906,#907),(#908,#909),(#910,#911)),
 .CYLINDRICAL_SURF.,.F.,.F.,.F.)
B_SPLINE_SURFACE_WITH_KNOTS((4,4),(2,2),(0.5,1.),(0.0454545454545455,0.954545454545454),
 .PIECEWISE_BEZIER_KNOTS.)
GEOMETRIC_REPRESENTATION_ITEM()
RATIONAL_B_SPLINE_SURFACE(((1.,1.),(0.333333333333333,0.333333333333333),
(0.333333333333333,0.333333333333333),(1.,1.)))
REPRESENTATION_ITEM('')
SURFACE()
);
#669=(
BOUNDED_SURFACE()
B_SPLINE_SURFACE(3,1,((#922,#923),(#924,#925),(#926,#927),(#928,#929)),
 .CYLINDRICAL_SURF.,.F.,.F.,.F.)
B_SPLINE_SURFACE_WITH_KNOTS((4,4),(2,2),(0.5,1.),(0.0454545454545453,0.954545454545454),
 .PIECEWISE_BEZIER_KNOTS.)
GEOMETRIC_REPRESENTATION_ITEM()
RATIONAL_B_SPLINE_SURFACE(((1.,1.),(0.333333333333333,0.333333333333333),
(0.333333333333333,0.333333333333333),(1.,1.)))
REPRESENTATION_ITEM('')
SURFACE()
);
#670=(
BOUNDED_SURFACE()
B_SPLINE_SURFACE(3,1,((#940,#941),(#942,#943),(#944,#945),(#946,#947)),
 .CYLINDRICAL_SURF.,.F.,.F.,.F.)
B_SPLINE_SURFACE_WITH_KNOTS((4,4),(2,2),(0.5,1.),(0.0454545454545454,0.954545454545454),
 .PIECEWISE_BEZIER_KNOTS.)
GEOMETRIC_REPRESENTATION_ITEM()
RATIONAL_B_SPLINE_SURFACE(((1.,1.),(0.333333333333333,0.333333333333333),
(0.333333333333333,0.333333333333333),(1.,1.)))
REPRESENTATION_ITEM('')
SURFACE()
);
#671=(
BOUNDED_SURFACE()
B_SPLINE_SURFACE(3,1,((#958,#959),(#960,#961),(#962,#963),(#964,#965)),
 .CYLINDRICAL_SURF.,.F.,.F.,.F.)
B_SPLINE_SURFACE_WITH_KNOTS((4,4),(2,2),(0.5,1.),(0.0454545454545455,0.954545454545454),
 .PIECEWISE_BEZIER_KNOTS.)
GEOMETRIC_REPRESENTATION_ITEM()
RATIONAL_B_SPLINE_SURFACE(((1.,1.),(0.333333333333333,0.333333333333333),
(0.333333333333333,0.333333333333333),(1.,1.)))
REPRESENTATION_ITEM('')
SURFACE()
);
#672=(
BOUNDED_SURFACE()
B_SPLINE_SURFACE(3,1,((#976,#977),(#978,#979),(#980,#981),(#982,#983)),
 .CYLINDRICAL_SURF.,.F.,.F.,.F.)
B_SPLINE_SURFACE_WITH_KNOTS((4,4),(2,2),(0.,0.5),(0.0454545454545454,0.954545454545454),
 .PIECEWISE_BEZIER_KNOTS.)
GEOMETRIC_REPRESENTATION_ITEM()
RATIONAL_B_SPLINE_SURFACE(((1.,1.),(0.333333333333333,0.333333333333333),
(0.333333333333333,0.333333333333333),(1.,1.)))
REPRESENTATION_ITEM('')
SURFACE()
);
#673=(
BOUNDED_SURFACE()
B_SPLINE_SURFACE(3,1,((#986,#987),(#988,#989),(#990,#991),(#992,#993)),
 .CYLINDRICAL_SURF.,.F.,.F.,.F.)
B_SPLINE_SURFACE_WITH_KNOTS((4,4),(2,2),(0.,0.5),(0.0454545454545455,0.954545454545454),
 .PIECEWISE_BEZIER_KNOTS.)
GEOMETRIC_REPRESENTATION_ITEM()
RATIONAL_B_SPLINE_SURFACE(((1.,1.),(0.333333333333333,0.333333333333333),
(0.333333333333333,0.333333333333333),(1.,1.)))
REPRESENTATION_ITEM('')
SURFACE()
);
#674=(
BOUNDED_SURFACE()
B_SPLINE_SURFACE(3,1,((#996,#997),(#998,#999),(#1000,#1001),(#1002,#1003)),
 .CYLINDRICAL_SURF.,.F.,.F.,.F.)
B_SPLINE_SURFACE_WITH_KNOTS((4,4),(2,2),(0.,0.5),(0.0454545454545454,0.954545454545454),
 .PIECEWISE_BEZIER_KNOTS.)
GEOMETRIC_REPRESENTATION_ITEM()
RATIONAL_B_SPLINE_SURFACE(((1.,1.),(0.333333333333333,0.333333333333333),
(0.333333333333333,0.333333333333333),(1.,1.)))
REPRESENTATION_ITEM('')
SURFACE()
);
#675=(
BOUNDED_SURFACE()
B_SPLINE_SURFACE(3,1,((#1006,#1007),(#1008,#1009),(#1010,#1011),(#1012,
#1013)),.CYLINDRICAL_SURF.,.F.,.F.,.F.)
B_SPLINE_SURFACE_WITH_KNOTS((4,4),(2,2),(0.,0.5),(0.0454545454545455,0.954545454545454),
 .PIECEWISE_BEZIER_KNOTS.)
GEOMETRIC_REPRESENTATION_ITEM()
RATIONAL_B_SPLINE_SURFACE(((1.,1.),(0.333333333333333,0.333333333333333),
(0.333333333333333,0.333333333333333),(1.,1.)))
REPRESENTATION_ITEM('')
SURFACE()
);
#676=(
BOUNDED_SURFACE()
B_SPLINE_SURFACE(3,1,((#1076,#1077),(#1078,#1079),(#1080,#1081),(#1082,
#1083)),.CYLINDRICAL_SURF.,.F.,.F.,.F.)
B_SPLINE_SURFACE_WITH_KNOTS((4,4),(2,2),(0.,1.),(0.,1.),
 .PIECEWISE_BEZIER_KNOTS.)
GEOMETRIC_REPRESENTATION_ITEM()
RATIONAL_B_SPLINE_SURFACE(((1.,1.),(0.708055585234753,0.708055585234753),
(0.708055585234753,0.708055585234753),(1.,1.)))
REPRESENTATION_ITEM('')
SURFACE()
);
#677=(
BOUNDED_SURFACE()
B_SPLINE_SURFACE(3,1,((#1127,#1128),(#1129,#1130),(#1131,#1132),(#1133,
#1134)),.CYLINDRICAL_SURF.,.F.,.F.,.F.)
B_SPLINE_SURFACE_WITH_KNOTS((4,4),(2,2),(0.,1.),(0.0454545454545432,0.954545454545456),
 .PIECEWISE_BEZIER_KNOTS.)
GEOMETRIC_REPRESENTATION_ITEM()
RATIONAL_B_SPLINE_SURFACE(((1.,1.),(0.333333333333333,0.333333333333333),
(0.333333333333333,0.333333333333333),(1.,1.)))
REPRESENTATION_ITEM('')
SURFACE()
);
#678=(
BOUNDED_SURFACE()
B_SPLINE_SURFACE(3,1,((#1142,#1143),(#1144,#1145),(#1146,#1147),(#1148,
#1149)),.CYLINDRICAL_SURF.,.F.,.F.,.F.)
B_SPLINE_SURFACE_WITH_KNOTS((4,4),(2,2),(0.,1.),(0.0454545454545438,0.954545454545456),
 .PIECEWISE_BEZIER_KNOTS.)
GEOMETRIC_REPRESENTATION_ITEM()
RATIONAL_B_SPLINE_SURFACE(((1.,1.),(0.333333333333333,0.333333333333333),
(0.333333333333333,0.333333333333333),(1.,1.)))
REPRESENTATION_ITEM('')
SURFACE()
);
#679=(
BOUNDED_SURFACE()
B_SPLINE_SURFACE(3,1,((#1151,#1152),(#1153,#1154),(#1155,#1156),(#1157,
#1158)),.CYLINDRICAL_SURF.,.F.,.F.,.F.)
B_SPLINE_SURFACE_WITH_KNOTS((4,4),(2,2),(0.,1.),(0.0454545454545455,0.954545454545457),
 .PIECEWISE_BEZIER_KNOTS.)
GEOMETRIC_REPRESENTATION_ITEM()
RATIONAL_B_SPLINE_SURFACE(((1.,1.),(0.333333333333333,0.333333333333333),
(0.333333333333333,0.333333333333333),(1.,1.)))
REPRESENTATION_ITEM('')
SURFACE()
);
#680=(
BOUNDED_SURFACE()
B_SPLINE_SURFACE(3,1,((#1166,#1167),(#1168,#1169),(#1170,#1171),(#1172,
#1173)),.CYLINDRICAL_SURF.,.F.,.F.,.F.)
B_SPLINE_SURFACE_WITH_KNOTS((4,4),(2,2),(0.,1.),(0.0454545454545455,0.954545454545455),
 .PIECEWISE_BEZIER_KNOTS.)
GEOMETRIC_REPRESENTATION_ITEM()
RATIONAL_B_SPLINE_SURFACE(((1.,1.),(0.333333333333333,0.333333333333333),
(0.333333333333333,0.333333333333333),(1.,1.)))
REPRESENTATION_ITEM('')
SURFACE()
);
#681=(
BOUNDED_SURFACE()
B_SPLINE_SURFACE(3,1,((#1199,#1200),(#1201,#1202),(#1203,#1204),(#1205,
#1206)),.CYLINDRICAL_SURF.,.F.,.F.,.F.)
B_SPLINE_SURFACE_WITH_KNOTS((4,4),(2,2),(0.,1.),(0.0454545454545442,0.954545454545455),
 .PIECEWISE_BEZIER_KNOTS.)
GEOMETRIC_REPRESENTATION_ITEM()
RATIONAL_B_SPLINE_SURFACE(((1.,1.),(0.333333333333331,0.333333333333331),
(0.333333333333331,0.333333333333331),(1.,1.)))
REPRESENTATION_ITEM('')
SURFACE()
);
#682=(
BOUNDED_SURFACE()
B_SPLINE_SURFACE(3,1,((#1221,#1222),(#1223,#1224),(#1225,#1226),(#1227,
#1228)),.CYLINDRICAL_SURF.,.F.,.F.,.F.)
B_SPLINE_SURFACE_WITH_KNOTS((4,4),(2,2),(0.,1.),(0.0454545454545454,0.954545454545455),
 .PIECEWISE_BEZIER_KNOTS.)
GEOMETRIC_REPRESENTATION_ITEM()
RATIONAL_B_SPLINE_SURFACE(((1.,1.),(0.333333333333333,0.333333333333333),
(0.333333333333333,0.333333333333333),(1.,1.)))
REPRESENTATION_ITEM('')
SURFACE()
);
#683=(
BOUNDED_SURFACE()
B_SPLINE_SURFACE(3,1,((#1243,#1244),(#1245,#1246),(#1247,#1248),(#1249,
#1250)),.CYLINDRICAL_SURF.,.F.,.F.,.F.)
B_SPLINE_SURFACE_WITH_KNOTS((4,4),(2,2),(0.,1.),(0.0454545454545453,0.954545454545455),
 .PIECEWISE_BEZIER_KNOTS.)
GEOMETRIC_REPRESENTATION_ITEM()
RATIONAL_B_SPLINE_SURFACE(((1.,1.),(0.333333333333333,0.333333333333333),
(0.333333333333333,0.333333333333333),(1.,1.)))
REPRESENTATION_ITEM('')
SURFACE()
);
#684=(
BOUNDED_SURFACE()
B_SPLINE_SURFACE(3,1,((#1265,#1266),(#1267,#1268),(#1269,#1270),(#1271,
#1272)),.CYLINDRICAL_SURF.,.F.,.F.,.F.)
B_SPLINE_SURFACE_WITH_KNOTS((4,4),(2,2),(0.,1.),(0.045454545454545,0.954545454545455),
 .PIECEWISE_BEZIER_KNOTS.)
GEOMETRIC_REPRESENTATION_ITEM()
RATIONAL_B_SPLINE_SURFACE(((1.,1.),(0.333333333333333,0.333333333333333),
(0.333333333333333,0.333333333333333),(1.,1.)))
REPRESENTATION_ITEM('')
SURFACE()
);
#685=(
BOUNDED_SURFACE()
B_SPLINE_SURFACE(3,1,((#1290,#1291),(#1292,#1293),(#1294,#1295),(#1296,
#1297)),.CYLINDRICAL_SURF.,.F.,.F.,.F.)
B_SPLINE_SURFACE_WITH_KNOTS((4,4),(2,2),(0.,1.),(0.,1.),
 .PIECEWISE_BEZIER_KNOTS.)
GEOMETRIC_REPRESENTATION_ITEM()
RATIONAL_B_SPLINE_SURFACE(((1.,1.),(0.708055585234754,0.708055585234754),
(0.708055585234754,0.708055585234754),(1.,1.)))
REPRESENTATION_ITEM('')
SURFACE()
);
#686=ADVANCED_FACE('',(#616),#668,.F.);
#687=ADVANCED_FACE('',(#617),#669,.F.);
#688=ADVANCED_FACE('',(#618),#670,.F.);
#689=ADVANCED_FACE('',(#619),#671,.F.);
#690=ADVANCED_FACE('',(#620),#672,.F.);
#691=ADVANCED_FACE('',(#621),#673,.F.);
#692=ADVANCED_FACE('',(#622),#674,.F.);
#693=ADVANCED_FACE('',(#623),#675,.F.);
#694=ADVANCED_FACE('',(#624,#625,#626,#627,#628),#128,.T.);
#695=ADVANCED_FACE('',(#629,#630,#631,#632,#633),#129,.F.);
#696=ADVANCED_FACE('',(#634),#130,.T.);
#697=ADVANCED_FACE('',(#635),#131,.T.);
#698=ADVANCED_FACE('',(#636),#676,.T.);
#699=ADVANCED_FACE('',(#637,#638,#639),#132,.T.);
#700=ADVANCED_FACE('',(#640,#641,#642),#133,.F.);
#701=ADVANCED_FACE('',(#643),#677,.F.);
#702=ADVANCED_FACE('',(#644),#134,.F.);
#703=ADVANCED_FACE('',(#645),#678,.F.);
#704=ADVANCED_FACE('',(#646),#679,.F.);
#705=ADVANCED_FACE('',(#647),#135,.F.);
#706=ADVANCED_FACE('',(#648),#680,.F.);
#707=ADVANCED_FACE('',(#649),#136,.F.);
#708=ADVANCED_FACE('',(#650),#137,.T.);
#709=ADVANCED_FACE('',(#651),#138,.T.);
#710=ADVANCED_FACE('',(#652),#139,.T.);
#711=ADVANCED_FACE('',(#653),#681,.F.);
#712=ADVANCED_FACE('',(#654),#140,.F.);
#713=ADVANCED_FACE('',(#655),#682,.F.);
#714=ADVANCED_FACE('',(#656),#141,.T.);
#715=ADVANCED_FACE('',(#657),#683,.F.);
#716=ADVANCED_FACE('',(#658),#142,.F.);
#717=ADVANCED_FACE('',(#659),#684,.F.);
#718=ADVANCED_FACE('',(#660,#661,#662),#143,.F.);
#719=ADVANCED_FACE('',(#663),#144,.F.);
#720=ADVANCED_FACE('',(#664,#665,#666),#145,.T.);
#721=ADVANCED_FACE('',(#667),#685,.T.);
#722=CLOSED_SHELL('',(#686,#687,#688,#689,#690,#691,#692,#693,#694,#695,
#696,#697,#698,#699,#700,#701,#702,#703,#704,#705,#706,#707,#708,#709,#710,
#711,#712,#713,#714,#715,#716,#717,#718,#719,#720,#721));
#723=STYLED_ITEM('',(#724),#731);
#724=PRESENTATION_STYLE_ASSIGNMENT((#725));
#725=SURFACE_STYLE_USAGE(.BOTH.,#726);
#726=SURFACE_SIDE_STYLE('',(#727));
#727=SURFACE_STYLE_FILL_AREA(#728);
#728=FILL_AREA_STYLE('',(#729));
#729=FILL_AREA_STYLE_COLOUR('',#730);
#730=COLOUR_RGB('',0.498039215686275,0.498039215686275,0.498039215686275);
#731=MANIFOLD_SOLID_BREP('Part 8',#722);
#732=SHAPE_DEFINITION_REPRESENTATION(#1304,#733);
#733=SHAPE_REPRESENTATION('Part 8',(#734),#1299);
#734=AXIS2_PLACEMENT_3D('',#903,#771,#772);
#735=AXIS2_PLACEMENT_3D('',#912,#773,#774);
#736=AXIS2_PLACEMENT_3D('',#918,#775,#776);
#737=AXIS2_PLACEMENT_3D('',#930,#777,#778);
#738=AXIS2_PLACEMENT_3D('',#936,#779,#780);
#739=AXIS2_PLACEMENT_3D('',#948,#781,#782);
#740=AXIS2_PLACEMENT_3D('',#954,#783,#784);
#741=AXIS2_PLACEMENT_3D('',#966,#785,#786);
#742=AXIS2_PLACEMENT_3D('',#972,#787,#788);
#743=AXIS2_PLACEMENT_3D('',#984,#789,#790);
#744=AXIS2_PLACEMENT_3D('',#985,#791,#792);
#745=AXIS2_PLACEMENT_3D('',#994,#793,#794);
#746=AXIS2_PLACEMENT_3D('',#995,#795,#796);
#747=AXIS2_PLACEMENT_3D('',#1004,#797,#798);
#748=AXIS2_PLACEMENT_3D('',#1005,#799,#800);
#749=AXIS2_PLACEMENT_3D('',#1014,#801,#802);
#750=AXIS2_PLACEMENT_3D('',#1015,#803,#804);
#751=AXIS2_PLACEMENT_3D('',#1050,#816,#817);
#752=AXIS2_PLACEMENT_3D('',#1051,#818,#819);
#753=AXIS2_PLACEMENT_3D('',#1062,#823,#824);
#754=AXIS2_PLACEMENT_3D('',#1075,#831,#832);
#755=AXIS2_PLACEMENT_3D('',#1090,#835,#836);
#756=AXIS2_PLACEMENT_3D('',#1095,#838,#839);
#757=AXIS2_PLACEMENT_3D('',#1098,#841,#842);
#758=AXIS2_PLACEMENT_3D('',#1103,#844,#845);
#759=AXIS2_PLACEMENT_3D('',#1110,#847,#848);
#760=AXIS2_PLACEMENT_3D('',#1115,#850,#851);
#761=AXIS2_PLACEMENT_3D('',#1118,#853,#854);
#762=AXIS2_PLACEMENT_3D('',#1123,#856,#857);
#763=AXIS2_PLACEMENT_3D('',#1210,#873,#874);
#764=AXIS2_PLACEMENT_3D('',#1211,#875,#876);
#765=AXIS2_PLACEMENT_3D('',#1229,#880,#881);
#766=AXIS2_PLACEMENT_3D('',#1230,#882,#883);
#767=AXIS2_PLACEMENT_3D('',#1254,#889,#890);
#768=AXIS2_PLACEMENT_3D('',#1255,#891,#892);
#769=AXIS2_PLACEMENT_3D('',#1273,#896,#897);
#770=AXIS2_PLACEMENT_3D('',#1274,#898,#899);
#771=DIRECTION('',(0.,0.,1.));
#772=DIRECTION('',(1.,0.,0.));
#773=DIRECTION('',(0.,-1.,0.));
#774=DIRECTION('',(0.,0.,-1.));
#775=DIRECTION('',(0.,-1.,0.));
#776=DIRECTION('',(0.,0.,-1.));
#777=DIRECTION('',(0.,-1.,0.));
#778=DIRECTION('',(0.,0.,-1.));
#779=DIRECTION('',(0.,-1.,0.));
#780=DIRECTION('',(0.,0.,-1.));
#781=DIRECTION('',(0.,-1.,0.));
#782=DIRECTION('',(0.,0.,-1.));
#783=DIRECTION('',(0.,-1.,0.));
#784=DIRECTION('',(0.,0.,-1.));
#785=DIRECTION('',(0.,-1.,0.));
#786=DIRECTION('',(0.,0.,-1.));
#787=DIRECTION('',(0.,-1.,0.));
#788=DIRECTION('',(0.,0.,-1.));
#789=DIRECTION('',(0.,-1.,0.));
#790=DIRECTION('',(0.,0.,-1.));
#791=DIRECTION('',(0.,-1.,0.));
#792=DIRECTION('',(0.,0.,-1.));
#793=DIRECTION('',(0.,-1.,0.));
#794=DIRECTION('',(0.,0.,-1.));
#795=DIRECTION('',(0.,-1.,0.));
#796=DIRECTION('',(0.,0.,-1.));
#797=DIRECTION('',(0.,-1.,0.));
#798=DIRECTION('',(0.,0.,-1.));
#799=DIRECTION('',(0.,-1.,0.));
#800=DIRECTION('',(0.,0.,-1.));
#801=DIRECTION('',(0.,-1.,0.));
#802=DIRECTION('',(0.,0.,-1.));
#803=DIRECTION('',(0.,-1.,0.));
#804=DIRECTION('',(0.,0.,-1.));
#805=DIRECTION('',(-1.01770443923973E-15,0.,1.));
#806=DIRECTION('',(-1.,0.,3.45961722338849E-16));
#807=DIRECTION('',(0.,0.,-1.));
#808=DIRECTION('',(1.,0.,0.));
#809=DIRECTION('',(-1.,0.,3.45961722338849E-16));
#810=DIRECTION('',(-1.01770443923973E-15,0.,1.));
#811=DIRECTION('',(1.,0.,0.));
#812=DIRECTION('',(0.,0.,-1.));
#813=DIRECTION('',(0.,-1.,0.));
#814=DIRECTION('',(-1.,6.12323399573677E-17,-7.93016446160956E-16));
#815=DIRECTION('',(-6.12323399573686E-17,-1.,1.1389781684998E-15));
#816=DIRECTION('',(7.93016446160956E-16,0.,-1.));
#817=DIRECTION('',(-1.,0.,-7.93016446160956E-16));
#818=DIRECTION('',(0.,0.,1.));
#819=DIRECTION('',(1.,0.,0.));
#820=DIRECTION('',(-6.12323399573686E-17,-1.,1.1389781684998E-15));
#821=DIRECTION('',(-1.,6.12323399573677E-17,-7.93016446160956E-16));
#822=DIRECTION('',(-4.21506595737959E-31,1.,-1.1389781684998E-15));
#823=DIRECTION('',(7.93016446160956E-16,0.,-1.));
#824=DIRECTION('',(-1.,0.,-7.93016446160956E-16));
#825=DIRECTION('',(6.12323399573683E-17,1.,-7.93016446160956E-16));
#826=DIRECTION('',(-1.,6.12323399573677E-17,-7.93016446160956E-16));
#827=DIRECTION('',(0.,1.,0.));
#828=DIRECTION('',(2.9347503914477E-31,-1.,7.93016446160956E-16));
#829=DIRECTION('',(-1.,6.12323399573677E-17,-7.93016446160956E-16));
#830=DIRECTION('',(6.12323399573683E-17,1.,-7.93016446160956E-16));
#831=DIRECTION('',(0.,0.,1.));
#832=DIRECTION('',(1.,0.,0.));
#833=DIRECTION('',(-7.93016446160956E-16,-2.24687993078771E-16,1.));
#834=DIRECTION('',(3.70073244077377E-16,0.00243537249853128,0.999997034476));
#835=DIRECTION('',(-1.,0.,3.70074341541719E-16));
#836=DIRECTION('',(3.70074341541719E-16,0.,1.));
#837=DIRECTION('',(2.9347503914477E-31,-1.,7.93016446160956E-16));
#838=DIRECTION('',(-1.,0.,3.70074341541719E-16));
#839=DIRECTION('',(3.70074341541719E-16,0.,1.));
#840=DIRECTION('',(2.9347503914477E-31,-1.,7.93016446160956E-16));
#841=DIRECTION('',(-1.,0.,3.70074341541719E-16));
#842=DIRECTION('',(3.70074341541719E-16,0.,1.));
#843=DIRECTION('',(2.9347503914477E-31,-1.,7.93016446160956E-16));
#844=DIRECTION('',(-1.,0.,3.70074341541719E-16));
#845=DIRECTION('',(3.70074341541719E-16,0.,1.));
#846=DIRECTION('',(2.9347503914477E-31,-1.,7.93016446160956E-16));
#847=DIRECTION('',(1.,-6.12323399573677E-17,7.93016446160956E-16));
#848=DIRECTION('',(7.93016446160956E-16,-7.93016446160956E-16,-1.));
#849=DIRECTION('',(6.12323399573683E-17,1.,-7.93016446160956E-16));
#850=DIRECTION('',(1.,-6.12323399573677E-17,7.93016446160956E-16));
#851=DIRECTION('',(7.93016446160956E-16,-7.93016446160956E-16,-1.));
#852=DIRECTION('',(6.12323399573683E-17,1.,-7.93016446160956E-16));
#853=DIRECTION('',(1.,-6.12323399573677E-17,7.93016446160956E-16));
#854=DIRECTION('',(7.93016446160956E-16,-7.93016446160956E-16,-1.));
#855=DIRECTION('',(6.12323399573683E-17,1.,-7.93016446160956E-16));
#856=DIRECTION('',(1.,-6.12323399573677E-17,7.93016446160956E-16));
#857=DIRECTION('',(7.93016446160956E-16,-7.93016446160956E-16,-1.));
#858=DIRECTION('',(6.12323399573683E-17,1.,-7.93016446160956E-16));
#859=DIRECTION('',(7.92864970894899E-16,-0.00243537249853128,-0.999997034476));
#860=DIRECTION('',(-1.,6.12323399573677E-17,-7.93016446160956E-16));
#861=DIRECTION('',(-1.,6.12323399573677E-17,-7.93016446160956E-16));
#862=DIRECTION('',(-1.,6.12323399573677E-17,-7.93016446160956E-16));
#863=DIRECTION('',(-1.,6.12323399573677E-17,-7.93016446160956E-16));
#864=DIRECTION('',(-1.,6.12323399573677E-17,-7.93016446160956E-16));
#865=DIRECTION('',(-1.,6.12323399573677E-17,-7.93016446160956E-16));
#866=DIRECTION('',(-1.,6.12323399573677E-17,-7.93016446160956E-16));
#867=DIRECTION('',(-1.,6.12323399573677E-17,-7.93016446160956E-16));
#868=DIRECTION('',(-1.,6.12323399573677E-17,-7.93016446160956E-16));
#869=DIRECTION('',(2.9347503914477E-31,-1.,7.93016446160956E-16));
#870=DIRECTION('',(-1.,6.12323399573677E-17,-7.93016446160956E-16));
#871=DIRECTION('',(6.12323399573683E-17,1.,-7.93016446160956E-16));
#872=DIRECTION('',(-1.,6.12323399573677E-17,-7.93016446160956E-16));
#873=DIRECTION('',(-1.,0.,3.70074341541719E-16));
#874=DIRECTION('',(3.70074341541719E-16,0.,1.));
#875=DIRECTION('',(1.,-6.12323399573677E-17,7.93016446160956E-16));
#876=DIRECTION('',(7.93016446160956E-16,-7.93016446160956E-16,-1.));
#877=DIRECTION('',(2.9347503914477E-31,-1.,7.93016446160956E-16));
#878=DIRECTION('',(6.12323399573683E-17,1.,-7.93016446160956E-16));
#879=DIRECTION('',(-1.,6.12323399573677E-17,-7.93016446160956E-16));
#880=DIRECTION('',(-1.,0.,3.70074341541719E-16));
#881=DIRECTION('',(3.70074341541719E-16,0.,1.));
#882=DIRECTION('',(1.,-6.12323399573677E-17,7.93016446160956E-16));
#883=DIRECTION('',(7.93016446160956E-16,-7.93016446160956E-16,-1.));
#884=DIRECTION('',(-1.,6.12323399573677E-17,-7.93016446160956E-16));
#885=DIRECTION('',(2.9347503914477E-31,-1.,7.93016446160956E-16));
#886=DIRECTION('',(-1.,6.12323399573677E-17,-7.93016446160956E-16));
#887=DIRECTION('',(6.12323399573683E-17,1.,-7.93016446160956E-16));
#888=DIRECTION('',(-1.,6.12323399573677E-17,-7.93016446160956E-16));
#889=DIRECTION('',(-1.,0.,3.70074341541719E-16));
#890=DIRECTION('',(3.70074341541719E-16,0.,1.));
#891=DIRECTION('',(1.,-6.12323399573677E-17,7.93016446160956E-16));
#892=DIRECTION('',(7.93016446160956E-16,-7.93016446160956E-16,-1.));
#893=DIRECTION('',(2.9347503914477E-31,-1.,7.93016446160956E-16));
#894=DIRECTION('',(6.12323399573683E-17,1.,-7.93016446160956E-16));
#895=DIRECTION('',(-1.,6.12323399573677E-17,-7.93016446160956E-16));
#896=DIRECTION('',(-1.,0.,3.70074341541719E-16));
#897=DIRECTION('',(3.70074341541719E-16,0.,1.));
#898=DIRECTION('',(1.,-6.12323399573677E-17,7.93016446160956E-16));
#899=DIRECTION('',(7.93016446160956E-16,-7.93016446160956E-16,-1.));
#900=DIRECTION('',(-7.93016446160956E-16,-2.24687993078771E-16,1.));
#901=DIRECTION('',(7.92864970894899E-16,-0.00243537249853128,-0.999997034476));
#902=DIRECTION('',(3.70073244077377E-16,0.00243537249853128,0.999997034476));
#903=CARTESIAN_POINT('',(0.,0.,0.));
#904=CARTESIAN_POINT('',(-0.0963647692844554,-0.005,0.0233897212133278));
#905=CARTESIAN_POINT('',(-0.0963647692844554,-8.13151629364128E-20,0.0233897212133278));
#906=CARTESIAN_POINT('',(-0.099757737763161,-0.005,0.0233897212133278));
#907=CARTESIAN_POINT('',(-0.099757737763161,1.21972744404619E-19,0.0233897212133278));
#908=CARTESIAN_POINT('',(-0.099757737763161,-0.005,0.0267826896920334));
#909=CARTESIAN_POINT('',(-0.099757737763161,1.21972744404619E-19,0.0267826896920334));
#910=CARTESIAN_POINT('',(-0.0963647692844554,-0.005,0.0267826896920334));
#911=CARTESIAN_POINT('',(-0.0963647692844554,-8.13151629364128E-20,0.0267826896920334));
#912=CARTESIAN_POINT('',(-0.0963647692844554,-0.005,0.0250862054526806));
#913=CARTESIAN_POINT('',(-0.0963647692844554,-0.005,0.0267826896920334));
#914=CARTESIAN_POINT('',(-0.0963647692844554,-0.005,0.0233897212133278));
#915=CARTESIAN_POINT('',(-0.0963647692844554,-0.00525,0.0233897212133278));
#916=CARTESIAN_POINT('',(-0.0963647692844554,0.00025,0.0233897212133278));
#917=CARTESIAN_POINT('',(-0.0963647692844554,0.,0.0233897212133278));
#918=CARTESIAN_POINT('',(-0.0963647692844554,0.,0.0250862054526806));
#919=CARTESIAN_POINT('',(-0.0963647692844554,0.,0.0267826896920334));
#920=CARTESIAN_POINT('',(-0.0963647692844554,-0.00525,0.0267826896920334));
#921=CARTESIAN_POINT('',(-0.0963647692844554,0.00025,0.0267826896920334));
#922=CARTESIAN_POINT('',(-0.116364769284455,-0.005,0.0233897212133278));
#923=CARTESIAN_POINT('',(-0.116364769284455,-1.0842021724855E-19,0.0233897212133278));
#924=CARTESIAN_POINT('',(-0.119757737763161,-0.005,0.0233897212133278));
#925=CARTESIAN_POINT('',(-0.119757737763161,8.13151629364128E-20,0.0233897212133278));
#926=CARTESIAN_POINT('',(-0.119757737763161,-0.005,0.0267826896920334));
#927=CARTESIAN_POINT('',(-0.119757737763161,8.13151629364128E-20,0.0267826896920334));
#928=CARTESIAN_POINT('',(-0.116364769284455,-0.005,0.0267826896920334));
#929=CARTESIAN_POINT('',(-0.116364769284455,-1.0842021724855E-19,0.0267826896920334));
#930=CARTESIAN_POINT('',(-0.116364769284455,-0.005,0.0250862054526806));
#931=CARTESIAN_POINT('',(-0.116364769284455,-0.005,0.0267826896920334));
#932=CARTESIAN_POINT('',(-0.116364769284455,-0.005,0.0233897212133278));
#933=CARTESIAN_POINT('',(-0.116364769284455,-0.00525,0.0233897212133278));
#934=CARTESIAN_POINT('',(-0.116364769284455,0.00025,0.0233897212133278));
#935=CARTESIAN_POINT('',(-0.116364769284455,0.,0.0233897212133278));
#936=CARTESIAN_POINT('',(-0.116364769284455,0.,0.0250862054526806));
#937=CARTESIAN_POINT('',(-0.116364769284455,0.,0.0267826896920334));
#938=CARTESIAN_POINT('',(-0.116364769284455,-0.00525,0.0267826896920334));
#939=CARTESIAN_POINT('',(-0.116364769284455,0.00025,0.0267826896920334));
#940=CARTESIAN_POINT('',(-0.116364769284455,-0.005,0.0435819953496996));
#941=CARTESIAN_POINT('',(-0.116364769284455,-1.0842021724855E-19,0.0435819953496996));
#942=CARTESIAN_POINT('',(-0.119739690106491,-0.005,0.0435819953496996));
#943=CARTESIAN_POINT('',(-0.119739690106491,8.13151629364128E-20,0.0435819953496996));
#944=CARTESIAN_POINT('',(-0.119739690106491,-0.005,0.0469569161717352));
#945=CARTESIAN_POINT('',(-0.119739690106491,8.13151629364128E-20,0.0469569161717352));
#946=CARTESIAN_POINT('',(-0.116364769284455,-0.005,0.0469569161717352));
#947=CARTESIAN_POINT('',(-0.116364769284455,-1.0842021724855E-19,0.0469569161717352));
#948=CARTESIAN_POINT('',(-0.116364769284455,-0.005,0.0452694557607174));
#949=CARTESIAN_POINT('',(-0.116364769284455,-0.005,0.0469569161717352));
#950=CARTESIAN_POINT('',(-0.116364769284455,-0.005,0.0435819953496996));
#951=CARTESIAN_POINT('',(-0.116364769284455,-0.00525,0.0435819953496996));
#952=CARTESIAN_POINT('',(-0.116364769284455,0.00025,0.0435819953496996));
#953=CARTESIAN_POINT('',(-0.116364769284455,0.,0.0435819953496996));
#954=CARTESIAN_POINT('',(-0.116364769284455,0.,0.0452694557607174));
#955=CARTESIAN_POINT('',(-0.116364769284455,0.,0.0469569161717352));
#956=CARTESIAN_POINT('',(-0.116364769284455,-0.00525,0.0469569161717352));
#957=CARTESIAN_POINT('',(-0.116364769284455,0.00025,0.0469569161717352));
#958=CARTESIAN_POINT('',(-0.0963647692844554,-0.005,0.0435819953496996));
#959=CARTESIAN_POINT('',(-0.0963647692844554,-8.13151629364128E-20,0.0435819953496996));
#960=CARTESIAN_POINT('',(-0.099739690106491,-0.005,0.0435819953496996));
#961=CARTESIAN_POINT('',(-0.099739690106491,1.21972744404619E-19,0.0435819953496996));
#962=CARTESIAN_POINT('',(-0.099739690106491,-0.005,0.0469569161717352));
#963=CARTESIAN_POINT('',(-0.099739690106491,1.21972744404619E-19,0.0469569161717352));
#964=CARTESIAN_POINT('',(-0.0963647692844554,-0.005,0.0469569161717352));
#965=CARTESIAN_POINT('',(-0.0963647692844554,-8.13151629364128E-20,0.0469569161717352));
#966=CARTESIAN_POINT('',(-0.0963647692844554,-0.005,0.0452694557607174));
#967=CARTESIAN_POINT('',(-0.0963647692844554,-0.005,0.0469569161717352));
#968=CARTESIAN_POINT('',(-0.0963647692844554,-0.005,0.0435819953496996));
#969=CARTESIAN_POINT('',(-0.0963647692844554,-0.00525,0.0435819953496996));
#970=CARTESIAN_POINT('',(-0.0963647692844554,0.00025,0.0435819953496996));
#971=CARTESIAN_POINT('',(-0.0963647692844554,0.,0.0435819953496996));
#972=CARTESIAN_POINT('',(-0.0963647692844554,0.,0.0452694557607174));
#973=CARTESIAN_POINT('',(-0.0963647692844554,0.,0.0469569161717352));
#974=CARTESIAN_POINT('',(-0.0963647692844554,-0.00525,0.0469569161717352));
#975=CARTESIAN_POINT('',(-0.0963647692844554,0.00025,0.0469569161717352));
#976=CARTESIAN_POINT('',(-0.0963647692844554,-0.005,0.0469569161717352));
#977=CARTESIAN_POINT('',(-0.0963647692844554,-8.13151629364128E-20,0.0469569161717352));
#978=CARTESIAN_POINT('',(-0.0929898484624198,-0.005,0.0469569161717352));
#979=CARTESIAN_POINT('',(-0.0929898484624198,8.13151629364128E-20,0.0469569161717352));
#980=CARTESIAN_POINT('',(-0.0929898484624198,-0.005,0.0435819953496996));
#981=CARTESIAN_POINT('',(-0.0929898484624198,8.13151629364128E-20,0.0435819953496996));
#982=CARTESIAN_POINT('',(-0.0963647692844554,-0.005,0.0435819953496996));
#983=CARTESIAN_POINT('',(-0.0963647692844554,-8.13151629364128E-20,0.0435819953496996));
#984=CARTESIAN_POINT('',(-0.0963647692844554,-0.005,0.0452694557607174));
#985=CARTESIAN_POINT('',(-0.0963647692844554,0.,0.0452694557607174));
#986=CARTESIAN_POINT('',(-0.116364769284455,-0.005,0.0469569161717352));
#987=CARTESIAN_POINT('',(-0.116364769284455,-8.13151629364128E-20,0.0469569161717352));
#988=CARTESIAN_POINT('',(-0.11298984846242,-0.005,0.0469569161717352));
#989=CARTESIAN_POINT('',(-0.11298984846242,1.21972744404619E-19,0.0469569161717352));
#990=CARTESIAN_POINT('',(-0.11298984846242,-0.005,0.0435819953496996));
#991=CARTESIAN_POINT('',(-0.11298984846242,1.21972744404619E-19,0.0435819953496996));
#992=CARTESIAN_POINT('',(-0.116364769284455,-0.005,0.0435819953496996));
#993=CARTESIAN_POINT('',(-0.116364769284455,-8.13151629364128E-20,0.0435819953496996));
#994=CARTESIAN_POINT('',(-0.116364769284455,-0.005,0.0452694557607174));
#995=CARTESIAN_POINT('',(-0.116364769284455,0.,0.0452694557607174));
#996=CARTESIAN_POINT('',(-0.116364769284455,-0.005,0.0267826896920334));
#997=CARTESIAN_POINT('',(-0.116364769284455,-8.13151629364128E-20,0.0267826896920334));
#998=CARTESIAN_POINT('',(-0.11297180080575,-0.005,0.0267826896920334));
#999=CARTESIAN_POINT('',(-0.11297180080575,8.13151629364128E-20,0.0267826896920334));
#1000=CARTESIAN_POINT('',(-0.11297180080575,-0.005,0.0233897212133278));
#1001=CARTESIAN_POINT('',(-0.11297180080575,8.13151629364128E-20,0.0233897212133278));
#1002=CARTESIAN_POINT('',(-0.116364769284455,-0.005,0.0233897212133278));
#1003=CARTESIAN_POINT('',(-0.116364769284455,-8.13151629364128E-20,0.0233897212133278));
#1004=CARTESIAN_POINT('',(-0.116364769284455,-0.005,0.0250862054526806));
#1005=CARTESIAN_POINT('',(-0.116364769284455,0.,0.0250862054526806));
#1006=CARTESIAN_POINT('',(-0.0963647692844554,-0.005,0.0267826896920334));
#1007=CARTESIAN_POINT('',(-0.0963647692844554,-8.13151629364128E-20,0.0267826896920334));
#1008=CARTESIAN_POINT('',(-0.0929718008057499,-0.005,0.0267826896920334));
#1009=CARTESIAN_POINT('',(-0.0929718008057498,1.21972744404619E-19,0.0267826896920334));
#1010=CARTESIAN_POINT('',(-0.0929718008057499,-0.005,0.0233897212133278));
#1011=CARTESIAN_POINT('',(-0.0929718008057498,1.21972744404619E-19,0.0233897212133278));
#1012=CARTESIAN_POINT('',(-0.0963647692844554,-0.005,0.0233897212133278));
#1013=CARTESIAN_POINT('',(-0.0963647692844554,-8.13151629364128E-20,0.0233897212133278));
#1014=CARTESIAN_POINT('',(-0.0963647692844554,-0.005,0.0250862054526806));
#1015=CARTESIAN_POINT('',(-0.0963647692844554,0.,0.0250862054526806));
#1016=CARTESIAN_POINT('',(-0.129192909513883,-0.005,0.0157886812917818));
#1017=CARTESIAN_POINT('',(-0.129192909513883,-0.005,0.0542886812917755));
#1018=CARTESIAN_POINT('',(-0.0879429095138828,-0.005,0.0157886812917818));
#1019=CARTESIAN_POINT('',(-0.0879429095138828,-0.005,0.0542886812917755));
#1020=CARTESIAN_POINT('',(-0.127317909513883,-0.005,0.0350386812917786));
#1021=CARTESIAN_POINT('',(-0.127317909513883,-0.005,0.0175386812917815));
#1022=CARTESIAN_POINT('',(-0.127317909513883,-0.005,0.0525386812917758));
#1023=CARTESIAN_POINT('',(-0.104860528658995,-0.005,0.0175386812917815));
#1024=CARTESIAN_POINT('',(-0.0898179095138828,-0.005,0.0175386812917815));
#1025=CARTESIAN_POINT('',(-0.0898179095138828,-0.005,0.0350386812917786));
#1026=CARTESIAN_POINT('',(-0.0898179095138828,-0.005,0.0525386812917758));
#1027=CARTESIAN_POINT('',(-0.104817909513883,-0.005,0.0525386812917758));
#1028=CARTESIAN_POINT('',(-0.129192909513883,0.,0.0157886812917817));
#1029=CARTESIAN_POINT('',(-0.129192909513883,0.,0.0542886812917755));
#1030=CARTESIAN_POINT('',(-0.0879429095138828,0.,0.0157886812917817));
#1031=CARTESIAN_POINT('',(-0.0879429095138828,0.,0.0542886812917755));
#1032=CARTESIAN_POINT('',(-0.104860528658995,0.,0.0175386812917815));
#1033=CARTESIAN_POINT('',(-0.0898179095138828,0.,0.0175386812917815));
#1034=CARTESIAN_POINT('',(-0.127317909513883,0.,0.0175386812917815));
#1035=CARTESIAN_POINT('',(-0.127317909513883,0.,0.0350386812917786));
#1036=CARTESIAN_POINT('',(-0.127317909513883,0.,0.0525386812917758));
#1037=CARTESIAN_POINT('',(-0.104817909513883,0.,0.0525386812917758));
#1038=CARTESIAN_POINT('',(-0.0898179095138828,0.,0.0525386812917758));
#1039=CARTESIAN_POINT('',(-0.0898179095138828,0.,0.0350386812917786));
#1040=CARTESIAN_POINT('',(-0.0824429095138828,-0.044714500204736,0.0175386812917815));
#1041=CARTESIAN_POINT('',(-0.0824429095138828,0.00212926191451124,0.0175386812917815));
#1042=CARTESIAN_POINT('',(-0.134692909513883,-0.044714500204736,0.0175386812917815));
#1043=CARTESIAN_POINT('',(-0.134692909513883,0.00212926191451124,0.0175386812917815));
#1044=CARTESIAN_POINT('',(-0.127317909513883,-0.005,0.0175386812917815));
#1045=CARTESIAN_POINT('',(-0.127317909513883,-0.0425852382902248,0.0175386812917816));
#1046=CARTESIAN_POINT('',(-0.127317909513883,-0.0425852382902248,0.0175386812917815));
#1047=CARTESIAN_POINT('',(-0.132317909513883,-0.0425852382902248,0.0175386812917815));
#1048=CARTESIAN_POINT('',(-0.132317909513883,0.0174573808548876,0.0175386812917815));
#1049=CARTESIAN_POINT('',(-0.132317909513883,-0.005,0.0175386812917815));
#1050=CARTESIAN_POINT('',(-0.127317909513883,-0.005,0.0175386812917815));
#1051=CARTESIAN_POINT('',(-0.0898179095138828,-0.005,0.0175386812917815));
#1052=CARTESIAN_POINT('',(-0.0848179095138828,-0.005,0.0175386812917815));
#1053=CARTESIAN_POINT('',(-0.0848179095138828,0.0174573808548876,0.0175386812917815));
#1054=CARTESIAN_POINT('',(-0.0848179095138828,-0.0425852382902248,0.0175386812917815));
#1055=CARTESIAN_POINT('',(-0.0898179095138828,-0.0425852382902248,0.0175386812917815));
#1056=CARTESIAN_POINT('',(-0.0898179095138828,-0.0425852382902248,0.0175386812917816));
#1057=CARTESIAN_POINT('',(-0.0898179095138828,0.0174573808548876,0.0175386812917815));
#1058=CARTESIAN_POINT('',(-0.134692909513883,-0.044625,0.0525386812917758));
#1059=CARTESIAN_POINT('',(-0.134692909513883,0.002125,0.0525386812917758));
#1060=CARTESIAN_POINT('',(-0.0824429095138828,-0.044625,0.0525386812917758));
#1061=CARTESIAN_POINT('',(-0.0824429095138828,0.002125,0.0525386812917758));
#1062=CARTESIAN_POINT('',(-0.127317909513883,-0.005,0.0525386812917758));
#1063=CARTESIAN_POINT('',(-0.132317909513883,-0.005,0.0525386812917758));
#1064=CARTESIAN_POINT('',(-0.132317909513883,0.0175,0.0525386812917757));
#1065=CARTESIAN_POINT('',(-0.132317909513883,-0.0425,0.0525386812917758));
#1066=CARTESIAN_POINT('',(-0.127317909513883,-0.0425,0.0525386812917758));
#1067=CARTESIAN_POINT('',(-0.127317909513883,-0.0425,0.0525386812917758));
#1068=CARTESIAN_POINT('',(-0.127317909513883,-0.005,0.0525386812917758));
#1069=CARTESIAN_POINT('',(-0.0898179095138828,0.0175,0.0525386812917758));
#1070=CARTESIAN_POINT('',(-0.0898179095138828,-0.0425,0.0525386812917758));
#1071=CARTESIAN_POINT('',(-0.0898179095138829,-0.0425,0.0525386812917758));
#1072=CARTESIAN_POINT('',(-0.0848179095138828,-0.0425,0.0525386812917758));
#1073=CARTESIAN_POINT('',(-0.0848179095138828,0.0175,0.0525386812917758));
#1074=CARTESIAN_POINT('',(-0.0848179095138828,-0.005,0.0525386812917758));
#1075=CARTESIAN_POINT('',(-0.0898179095138828,-0.005,0.0525386812917758));
#1076=CARTESIAN_POINT('',(-0.132229345767526,-0.00593690657292863,0.0542886812917755));
#1077=CARTESIAN_POINT('',(-0.132229345767526,-0.00593690657292863,0.0157886812917817));
#1078=CARTESIAN_POINT('',(-0.132958946891636,-0.00211220353935767,0.0542886812917755));
#1079=CARTESIAN_POINT('',(-0.132958946891636,-0.00211220353935767,0.0157886812917817));
#1080=CARTESIAN_POINT('',(-0.130205705974525,0.000641037377753411,0.0542886812917755));
#1081=CARTESIAN_POINT('',(-0.130205705974525,0.000641037377753411,0.0157886812917817));
#1082=CARTESIAN_POINT('',(-0.126381002940954,-8.85637463565589E-5,0.0542886812917755));
#1083=CARTESIAN_POINT('',(-0.126381002940954,-8.85637463565589E-5,0.0157886812917817));
#1084=CARTESIAN_POINT('',(-0.132317909513883,-0.005,0.0350386812917786));
#1085=CARTESIAN_POINT('',(-0.127317909513883,-0.0447012872059644,0.0157886812917818));
#1086=CARTESIAN_POINT('',(-0.127317909513883,-0.0447012872059644,0.0542886812917755));
#1087=CARTESIAN_POINT('',(-0.127317909513883,-0.00310946251400169,0.0157886812917818));
#1088=CARTESIAN_POINT('',(-0.127317909513883,-0.00310946251400169,0.0542886812917755));
#1089=CARTESIAN_POINT('',(-0.127317909513883,-0.0425426191451123,0.0350386812917786));
#1090=CARTESIAN_POINT('',(-0.127317909513883,-0.0213580848889826,0.0292290358473));
#1091=CARTESIAN_POINT('',(-0.127317909513883,-0.0213580848889826,0.0266250358473));
#1092=CARTESIAN_POINT('',(-0.127317909513883,-0.0213580848889826,0.0318330358473));
#1093=CARTESIAN_POINT('',(-0.127317909513883,-0.0168580848889826,0.0318330358473));
#1094=CARTESIAN_POINT('',(-0.127317909513883,-0.0123580848889826,0.0318330358473));
#1095=CARTESIAN_POINT('',(-0.127317909513883,-0.0123580848889826,0.0292290358473));
#1096=CARTESIAN_POINT('',(-0.127317909513883,-0.0123580848889826,0.0266250358473));
#1097=CARTESIAN_POINT('',(-0.127317909513883,-0.0168580848889826,0.0266250358473));
#1098=CARTESIAN_POINT('',(-0.127317909513883,-0.0347217335398681,0.0447408940494283));
#1099=CARTESIAN_POINT('',(-0.127317909513883,-0.0347217335398681,0.0421370390825498));
#1100=CARTESIAN_POINT('',(-0.127317909513883,-0.0347217335398681,0.0473447490163068));
#1101=CARTESIAN_POINT('',(-0.127317909513883,-0.0302217335398681,0.0473447490163068));
#1102=CARTESIAN_POINT('',(-0.127317909513883,-0.025721733539868,0.0473447490163068));
#1103=CARTESIAN_POINT('',(-0.127317909513883,-0.025721733539868,0.0447408940494283));
#1104=CARTESIAN_POINT('',(-0.127317909513883,-0.025721733539868,0.0421370390825498));
#1105=CARTESIAN_POINT('',(-0.127317909513883,-0.0302217335398681,0.0421370390825498));
#1106=CARTESIAN_POINT('',(-0.132317909513883,-0.0447012872059644,0.0157886812917818));
#1107=CARTESIAN_POINT('',(-0.132317909513883,-0.0447012872059644,0.0542886812917756));
#1108=CARTESIAN_POINT('',(-0.132317909513883,-0.0031094625140017,0.0157886812917817));
#1109=CARTESIAN_POINT('',(-0.132317909513883,-0.00310946251400166,0.0542886812917755));
#1110=CARTESIAN_POINT('',(-0.132317909513883,-0.0347217335398681,0.0447408940494283));
#1111=CARTESIAN_POINT('',(-0.132317909513883,-0.0347217335398681,0.0473447490163068));
#1112=CARTESIAN_POINT('',(-0.132317909513883,-0.0347217335398681,0.0421370390825498));
#1113=CARTESIAN_POINT('',(-0.132317909513883,-0.0302217335398681,0.0421370390825498));
#1114=CARTESIAN_POINT('',(-0.132317909513883,-0.025721733539868,0.0421370390825498));
#1115=CARTESIAN_POINT('',(-0.132317909513883,-0.025721733539868,0.0447408940494283));
#1116=CARTESIAN_POINT('',(-0.132317909513883,-0.025721733539868,0.0473447490163068));
#1117=CARTESIAN_POINT('',(-0.132317909513883,-0.0302217335398681,0.0473447490163068));
#1118=CARTESIAN_POINT('',(-0.132317909513883,-0.0213580848889826,0.0292290358473));
#1119=CARTESIAN_POINT('',(-0.132317909513883,-0.0213580848889826,0.0318330358473));
#1120=CARTESIAN_POINT('',(-0.132317909513883,-0.0213580848889826,0.0266250358473));
#1121=CARTESIAN_POINT('',(-0.132317909513883,-0.0168580848889826,0.0266250358473));
#1122=CARTESIAN_POINT('',(-0.132317909513883,-0.0123580848889826,0.0266250358473));
#1123=CARTESIAN_POINT('',(-0.132317909513883,-0.0123580848889826,0.0292290358473));
#1124=CARTESIAN_POINT('',(-0.132317909513883,-0.0123580848889826,0.0318330358473));
#1125=CARTESIAN_POINT('',(-0.132317909513883,-0.0168580848889826,0.0318330358473));
#1126=CARTESIAN_POINT('',(-0.132317909513883,-0.0425426191451123,0.0350386812917786));
#1127=CARTESIAN_POINT('',(-0.127317909513883,-0.0347217335398681,0.0421370390825498));
#1128=CARTESIAN_POINT('',(-0.132317909513883,-0.0347217335398681,0.0421370390825498));
#1129=CARTESIAN_POINT('',(-0.127317909513883,-0.039929443473625,0.0421370390825498));
#1130=CARTESIAN_POINT('',(-0.132317909513883,-0.039929443473625,0.0421370390825498));
#1131=CARTESIAN_POINT('',(-0.127317909513883,-0.039929443473625,0.0473447490163068));
#1132=CARTESIAN_POINT('',(-0.132317909513883,-0.039929443473625,0.0473447490163068));
#1133=CARTESIAN_POINT('',(-0.127317909513883,-0.0347217335398681,0.0473447490163068));
#1134=CARTESIAN_POINT('',(-0.132317909513883,-0.0347217335398681,0.0473447490163068));
#1135=CARTESIAN_POINT('',(-0.127317909513883,-0.0347217335398681,0.0421370390825498));
#1136=CARTESIAN_POINT('',(-0.127317909513883,-0.0347217335398681,0.0473447490163068));
#1137=CARTESIAN_POINT('',(-0.127067909513883,-0.035171733539868,0.0473447490163068));
#1138=CARTESIAN_POINT('',(-0.132567909513883,-0.035171733539868,0.0473447490163068));
#1139=CARTESIAN_POINT('',(-0.127067909513883,-0.0252717335398681,0.0473447490163068));
#1140=CARTESIAN_POINT('',(-0.132567909513883,-0.0252717335398681,0.0473447490163068));
#1141=CARTESIAN_POINT('',(-0.127317909513883,-0.025721733539868,0.0473447490163068));
#1142=CARTESIAN_POINT('',(-0.127317909513883,-0.025721733539868,0.0473447490163068));
#1143=CARTESIAN_POINT('',(-0.132317909513883,-0.025721733539868,0.0473447490163068));
#1144=CARTESIAN_POINT('',(-0.127317909513883,-0.0205140236061111,0.0473447490163068));
#1145=CARTESIAN_POINT('',(-0.132317909513883,-0.0205140236061111,0.0473447490163068));
#1146=CARTESIAN_POINT('',(-0.127317909513883,-0.0205140236061111,0.0421370390825498));
#1147=CARTESIAN_POINT('',(-0.132317909513883,-0.0205140236061111,0.0421370390825498));
#1148=CARTESIAN_POINT('',(-0.127317909513883,-0.025721733539868,0.0421370390825498));
#1149=CARTESIAN_POINT('',(-0.132317909513883,-0.025721733539868,0.0421370390825498));
#1150=CARTESIAN_POINT('',(-0.127317909513883,-0.025721733539868,0.0421370390825498));
#1151=CARTESIAN_POINT('',(-0.127317909513883,-0.0213580848889826,0.0266250358473));
#1152=CARTESIAN_POINT('',(-0.132317909513883,-0.0213580848889826,0.0266250358473));
#1153=CARTESIAN_POINT('',(-0.127317909513883,-0.0265660848889826,0.0266250358473));
#1154=CARTESIAN_POINT('',(-0.132317909513883,-0.0265660848889826,0.0266250358473));
#1155=CARTESIAN_POINT('',(-0.127317909513883,-0.0265660848889826,0.0318330358473));
#1156=CARTESIAN_POINT('',(-0.132317909513883,-0.0265660848889826,0.0318330358473));
#1157=CARTESIAN_POINT('',(-0.127317909513883,-0.0213580848889826,0.0318330358473));
#1158=CARTESIAN_POINT('',(-0.132317909513883,-0.0213580848889826,0.0318330358473));
#1159=CARTESIAN_POINT('',(-0.127317909513883,-0.0213580848889826,0.0266250358473));
#1160=CARTESIAN_POINT('',(-0.127317909513883,-0.0213580848889826,0.0318330358473));
#1161=CARTESIAN_POINT('',(-0.127067909513883,-0.0218080848889826,0.0318330358473));
#1162=CARTESIAN_POINT('',(-0.132567909513883,-0.0218080848889826,0.0318330358473));
#1163=CARTESIAN_POINT('',(-0.127067909513883,-0.0119080848889826,0.0318330358473));
#1164=CARTESIAN_POINT('',(-0.132567909513883,-0.0119080848889826,0.0318330358473));
#1165=CARTESIAN_POINT('',(-0.127317909513883,-0.0123580848889826,0.0318330358473));
#1166=CARTESIAN_POINT('',(-0.127317909513883,-0.0123580848889826,0.0318330358473));
#1167=CARTESIAN_POINT('',(-0.132317909513883,-0.0123580848889826,0.0318330358473));
#1168=CARTESIAN_POINT('',(-0.127317909513883,-0.00715008488898256,0.0318330358473));
#1169=CARTESIAN_POINT('',(-0.132317909513883,-0.00715008488898256,0.0318330358473));
#1170=CARTESIAN_POINT('',(-0.127317909513883,-0.00715008488898256,0.0266250358473));
#1171=CARTESIAN_POINT('',(-0.132317909513883,-0.00715008488898256,0.0266250358473));
#1172=CARTESIAN_POINT('',(-0.127317909513883,-0.0123580848889826,0.0266250358473));
#1173=CARTESIAN_POINT('',(-0.132317909513883,-0.0123580848889826,0.0266250358473));
#1174=CARTESIAN_POINT('',(-0.127317909513883,-0.0123580848889826,0.0266250358473));
#1175=CARTESIAN_POINT('',(-0.127067909513883,-0.0424957380854887,0.0542886812917755));
#1176=CARTESIAN_POINT('',(-0.132567909513883,-0.0424957380854887,0.0542886812917755));
#1177=CARTESIAN_POINT('',(-0.127067909513883,-0.042589500204736,0.0157886812917818));
#1178=CARTESIAN_POINT('',(-0.132567909513883,-0.042589500204736,0.0157886812917818));
#1179=CARTESIAN_POINT('',(-0.127067909513883,-0.0218080848889826,0.0266250358473));
#1180=CARTESIAN_POINT('',(-0.132567909513883,-0.0218080848889826,0.0266250358473));
#1181=CARTESIAN_POINT('',(-0.127067909513883,-0.0119080848889826,0.0266250358473));
#1182=CARTESIAN_POINT('',(-0.132567909513883,-0.0119080848889826,0.0266250358473));
#1183=CARTESIAN_POINT('',(-0.127067909513883,-0.035171733539868,0.0421370390825498));
#1184=CARTESIAN_POINT('',(-0.132567909513883,-0.035171733539868,0.0421370390825498));
#1185=CARTESIAN_POINT('',(-0.127067909513883,-0.0252717335398681,0.0421370390825498));
#1186=CARTESIAN_POINT('',(-0.132567909513883,-0.0252717335398681,0.0421370390825498));
#1187=CARTESIAN_POINT('',(-0.0845679095138828,-0.0218080848889826,0.0266250358473));
#1188=CARTESIAN_POINT('',(-0.0900679095138828,-0.0218080848889826,0.0266250358473));
#1189=CARTESIAN_POINT('',(-0.0845679095138828,-0.0119080848889826,0.0266250358473));
#1190=CARTESIAN_POINT('',(-0.0900679095138828,-0.0119080848889826,0.0266250358473));
#1191=CARTESIAN_POINT('',(-0.0898179095138828,-0.0123580848889826,0.0266250358473));
#1192=CARTESIAN_POINT('',(-0.0848179095138828,-0.0123580848889826,0.0266250358473));
#1193=CARTESIAN_POINT('',(-0.0898179095138828,-0.0123580848889826,0.0266250358473));
#1194=CARTESIAN_POINT('',(-0.0898179095138828,-0.0168580848889826,0.0266250358473));
#1195=CARTESIAN_POINT('',(-0.0898179095138828,-0.0213580848889826,0.0266250358473));
#1196=CARTESIAN_POINT('',(-0.0898179095138828,-0.0213580848889826,0.0266250358473));
#1197=CARTESIAN_POINT('',(-0.0848179095138828,-0.0213580848889826,0.0266250358473));
#1198=CARTESIAN_POINT('',(-0.0848179095138828,-0.0168580848889826,0.0266250358473));
#1199=CARTESIAN_POINT('',(-0.0848179095138828,-0.0123580848889826,0.0318330358473));
#1200=CARTESIAN_POINT('',(-0.0898179095138828,-0.0123580848889826,0.0318330358473));
#1201=CARTESIAN_POINT('',(-0.0848179095138828,-0.00715008488898252,0.0318330358473));
#1202=CARTESIAN_POINT('',(-0.0898179095138828,-0.00715008488898252,0.0318330358473));
#1203=CARTESIAN_POINT('',(-0.0848179095138828,-0.00715008488898254,0.0266250358473));
#1204=CARTESIAN_POINT('',(-0.0898179095138828,-0.00715008488898254,0.0266250358473));
#1205=CARTESIAN_POINT('',(-0.0848179095138828,-0.0123580848889826,0.0266250358473));
#1206=CARTESIAN_POINT('',(-0.0898179095138828,-0.0123580848889826,0.0266250358473));
#1207=CARTESIAN_POINT('',(-0.0898179095138828,-0.0123580848889826,0.0318330358473));
#1208=CARTESIAN_POINT('',(-0.0848179095138828,-0.0123580848889826,0.0318330358473));
#1209=CARTESIAN_POINT('',(-0.0898179095138828,-0.0123580848889826,0.0318330358473));
#1210=CARTESIAN_POINT('',(-0.0898179095138828,-0.0123580848889826,0.0292290358473));
#1211=CARTESIAN_POINT('',(-0.0848179095138828,-0.0123580848889826,0.0292290358473));
#1212=CARTESIAN_POINT('',(-0.0845679095138828,-0.0218080848889826,0.0318330358473));
#1213=CARTESIAN_POINT('',(-0.0900679095138828,-0.0218080848889826,0.0318330358473));
#1214=CARTESIAN_POINT('',(-0.0845679095138828,-0.0119080848889826,0.0318330358473));
#1215=CARTESIAN_POINT('',(-0.0900679095138828,-0.0119080848889826,0.0318330358473));
#1216=CARTESIAN_POINT('',(-0.0898179095138828,-0.0168580848889826,0.0318330358473));
#1217=CARTESIAN_POINT('',(-0.0898179095138828,-0.0213580848889826,0.0318330358473));
#1218=CARTESIAN_POINT('',(-0.0848179095138828,-0.0168580848889826,0.0318330358473));
#1219=CARTESIAN_POINT('',(-0.0848179095138828,-0.0213580848889826,0.0318330358473));
#1220=CARTESIAN_POINT('',(-0.0898179095138828,-0.0213580848889826,0.0318330358473));
#1221=CARTESIAN_POINT('',(-0.0848179095138828,-0.0213580848889826,0.0266250358473));
#1222=CARTESIAN_POINT('',(-0.0898179095138828,-0.0213580848889826,0.0266250358473));
#1223=CARTESIAN_POINT('',(-0.0848179095138828,-0.0265660848889826,0.0266250358473));
#1224=CARTESIAN_POINT('',(-0.0898179095138828,-0.0265660848889826,0.0266250358473));
#1225=CARTESIAN_POINT('',(-0.0848179095138828,-0.0265660848889826,0.0318330358473));
#1226=CARTESIAN_POINT('',(-0.0898179095138828,-0.0265660848889826,0.0318330358473));
#1227=CARTESIAN_POINT('',(-0.0848179095138828,-0.0213580848889826,0.0318330358473));
#1228=CARTESIAN_POINT('',(-0.0898179095138828,-0.0213580848889826,0.0318330358473));
#1229=CARTESIAN_POINT('',(-0.0898179095138828,-0.0213580848889826,0.0292290358473));
#1230=CARTESIAN_POINT('',(-0.0848179095138828,-0.0213580848889826,0.0292290358473));
#1231=CARTESIAN_POINT('',(-0.0845679095138828,-0.035171733539868,0.0421370390825498));
#1232=CARTESIAN_POINT('',(-0.0900679095138828,-0.035171733539868,0.0421370390825498));
#1233=CARTESIAN_POINT('',(-0.0845679095138828,-0.0252717335398681,0.0421370390825498));
#1234=CARTESIAN_POINT('',(-0.0900679095138828,-0.0252717335398681,0.0421370390825498));
#1235=CARTESIAN_POINT('',(-0.0898179095138829,-0.025721733539868,0.0421370390825498));
#1236=CARTESIAN_POINT('',(-0.0848179095138828,-0.025721733539868,0.0421370390825498));
#1237=CARTESIAN_POINT('',(-0.0898179095138828,-0.025721733539868,0.0421370390825498));
#1238=CARTESIAN_POINT('',(-0.0898179095138828,-0.0302217335398681,0.0421370390825498));
#1239=CARTESIAN_POINT('',(-0.0898179095138828,-0.0347217335398681,0.0421370390825498));
#1240=CARTESIAN_POINT('',(-0.0898179095138829,-0.0347217335398681,0.0421370390825498));
#1241=CARTESIAN_POINT('',(-0.0848179095138828,-0.0347217335398681,0.0421370390825498));
#1242=CARTESIAN_POINT('',(-0.0848179095138828,-0.0302217335398681,0.0421370390825498));
#1243=CARTESIAN_POINT('',(-0.0848179095138828,-0.0257217335398681,0.0473447490163068));
#1244=CARTESIAN_POINT('',(-0.0898179095138828,-0.025721733539868,0.0473447490163068));
#1245=CARTESIAN_POINT('',(-0.0848179095138828,-0.0205140236061111,0.0473447490163068));
#1246=CARTESIAN_POINT('',(-0.0898179095138828,-0.0205140236061111,0.0473447490163068));
#1247=CARTESIAN_POINT('',(-0.0848179095138828,-0.0205140236061111,0.0421370390825498));
#1248=CARTESIAN_POINT('',(-0.0898179095138828,-0.0205140236061111,0.0421370390825498));
#1249=CARTESIAN_POINT('',(-0.0848179095138828,-0.0257217335398681,0.0421370390825498));
#1250=CARTESIAN_POINT('',(-0.0898179095138828,-0.025721733539868,0.0421370390825498));
#1251=CARTESIAN_POINT('',(-0.0898179095138829,-0.025721733539868,0.0473447490163068));
#1252=CARTESIAN_POINT('',(-0.0848179095138828,-0.025721733539868,0.0473447490163068));
#1253=CARTESIAN_POINT('',(-0.0898179095138828,-0.025721733539868,0.0473447490163068));
#1254=CARTESIAN_POINT('',(-0.0898179095138828,-0.025721733539868,0.0447408940494283));
#1255=CARTESIAN_POINT('',(-0.0848179095138828,-0.025721733539868,0.0447408940494283));
#1256=CARTESIAN_POINT('',(-0.0845679095138828,-0.035171733539868,0.0473447490163068));
#1257=CARTESIAN_POINT('',(-0.0900679095138828,-0.035171733539868,0.0473447490163068));
#1258=CARTESIAN_POINT('',(-0.0845679095138828,-0.0252717335398681,0.0473447490163068));
#1259=CARTESIAN_POINT('',(-0.0900679095138828,-0.0252717335398681,0.0473447490163068));
#1260=CARTESIAN_POINT('',(-0.0898179095138828,-0.0302217335398681,0.0473447490163068));
#1261=CARTESIAN_POINT('',(-0.0898179095138828,-0.0347217335398681,0.0473447490163068));
#1262=CARTESIAN_POINT('',(-0.0848179095138828,-0.0302217335398681,0.0473447490163068));
#1263=CARTESIAN_POINT('',(-0.0848179095138828,-0.0347217335398681,0.0473447490163068));
#1264=CARTESIAN_POINT('',(-0.0898179095138829,-0.0347217335398681,0.0473447490163068));
#1265=CARTESIAN_POINT('',(-0.0848179095138828,-0.0347217335398681,0.0421370390825498));
#1266=CARTESIAN_POINT('',(-0.0898179095138828,-0.034721733539868,0.0421370390825498));
#1267=CARTESIAN_POINT('',(-0.0848179095138828,-0.039929443473625,0.0421370390825498));
#1268=CARTESIAN_POINT('',(-0.0898179095138828,-0.039929443473625,0.0421370390825498));
#1269=CARTESIAN_POINT('',(-0.0848179095138828,-0.039929443473625,0.0473447490163068));
#1270=CARTESIAN_POINT('',(-0.0898179095138828,-0.039929443473625,0.0473447490163068));
#1271=CARTESIAN_POINT('',(-0.0848179095138828,-0.0347217335398681,0.0473447490163068));
#1272=CARTESIAN_POINT('',(-0.0898179095138828,-0.034721733539868,0.0473447490163068));
#1273=CARTESIAN_POINT('',(-0.0898179095138828,-0.0347217335398681,0.0447408940494283));
#1274=CARTESIAN_POINT('',(-0.0848179095138828,-0.0347217335398681,0.0447408940494283));
#1275=CARTESIAN_POINT('',(-0.0848179095138828,-0.0447012872059644,0.0542886812917756));
#1276=CARTESIAN_POINT('',(-0.0848179095138828,-0.0447012872059644,0.0157886812917818));
#1277=CARTESIAN_POINT('',(-0.0848179095138828,-0.00310946251400166,0.0542886812917755));
#1278=CARTESIAN_POINT('',(-0.0848179095138828,-0.0031094625140017,0.0157886812917818));
#1279=CARTESIAN_POINT('',(-0.0848179095138828,-0.005,0.0350386812917786));
#1280=CARTESIAN_POINT('',(-0.0848179095138828,-0.0425426191451123,0.0350386812917786));
#1281=CARTESIAN_POINT('',(-0.0845679095138828,-0.0424957380854887,0.0542886812917755));
#1282=CARTESIAN_POINT('',(-0.0900679095138828,-0.0424957380854887,0.0542886812917755));
#1283=CARTESIAN_POINT('',(-0.0845679095138828,-0.042589500204736,0.0157886812917818));
#1284=CARTESIAN_POINT('',(-0.0900679095138828,-0.042589500204736,0.0157886812917818));
#1285=CARTESIAN_POINT('',(-0.0898179095138828,-0.0425426191451123,0.0350386812917786));
#1286=CARTESIAN_POINT('',(-0.0898179095138828,-0.00310946251400169,0.0157886812917818));
#1287=CARTESIAN_POINT('',(-0.0898179095138828,-0.00310946251400169,0.0542886812917755));
#1288=CARTESIAN_POINT('',(-0.0898179095138828,-0.0447012872059644,0.0157886812917818));
#1289=CARTESIAN_POINT('',(-0.0898179095138828,-0.0447012872059644,0.0542886812917755));
#1290=CARTESIAN_POINT('',(-0.0849064732602394,-0.00593690657292862,0.0157886812917818));
#1291=CARTESIAN_POINT('',(-0.0849064732602394,-0.00593690657292862,0.0542886812917755));
#1292=CARTESIAN_POINT('',(-0.0841768721361294,-0.00211220353935768,0.0157886812917818));
#1293=CARTESIAN_POINT('',(-0.0841768721361294,-0.00211220353935768,0.0542886812917755));
#1294=CARTESIAN_POINT('',(-0.0869301130532405,0.000641037377753405,0.0157886812917818));
#1295=CARTESIAN_POINT('',(-0.0869301130532405,0.000641037377753405,0.0542886812917755));
#1296=CARTESIAN_POINT('',(-0.0907548160868114,-8.85637463565571E-5,0.0157886812917818));
#1297=CARTESIAN_POINT('',(-0.0907548160868114,-8.85637463565571E-5,0.0542886812917755));
#1298=MECHANICAL_DESIGN_GEOMETRIC_PRESENTATION_REPRESENTATION('',(#723),
#1299);
#1299=(
GEOMETRIC_REPRESENTATION_CONTEXT(3)
GLOBAL_UNCERTAINTY_ASSIGNED_CONTEXT((#1300))
GLOBAL_UNIT_ASSIGNED_CONTEXT((#1303,#1302,#1301))
REPRESENTATION_CONTEXT('Part 8','TOP_LEVEL_ASSEMBLY_PART')
);
#1300=UNCERTAINTY_MEASURE_WITH_UNIT(LENGTH_MEASURE(1.E-8),#1303,
'DISTANCE_ACCURACY_VALUE','Maximum Tolerance applied to model');
#1301=(
NAMED_UNIT(*)
SI_UNIT($,.STERADIAN.)
SOLID_ANGLE_UNIT()
);
#1302=(
NAMED_UNIT(*)
PLANE_ANGLE_UNIT()
SI_UNIT($,.RADIAN.)
);
#1303=(
LENGTH_UNIT()
NAMED_UNIT(*)
SI_UNIT($,.METRE.)
);
#1304=PRODUCT_DEFINITION_SHAPE('','',#1305);
#1305=PRODUCT_DEFINITION('','',#1307,#1306);
#1306=PRODUCT_DEFINITION_CONTEXT('',#1313,'design');
#1307=PRODUCT_DEFINITION_FORMATION_WITH_SPECIFIED_SOURCE('','',#1309,
 .NOT_KNOWN.);
#1308=PRODUCT_RELATED_PRODUCT_CATEGORY('','',(#1309));
#1309=PRODUCT('Part 8','Part 8','Part 8',(#1311));
#1310=PRODUCT_CATEGORY('','');
#1311=PRODUCT_CONTEXT('',#1313,'mechanical');
#1312=APPLICATION_PROTOCOL_DEFINITION('international standard',
'ap242_managed_model_based_3d_engineering',2020,#1313);
#1313=APPLICATION_CONTEXT('managed model based 3d engineering');
ENDSEC;
END-ISO-10303-21;
