ISO-10303-21;
HEADER;
/* Generated by software containing ST-Developer
 * from STEP Tools, Inc. (www.steptools.com) 
 */
/* OPTION: using custom renumber hook */

FILE_DESCRIPTION(
/* description */ ('STEP AP242 Edition 2',
'CAx-IF Rec.Pracs.---Representation and Presentation of Product Manufa
cturing Information (PMI)---4.0---2014-10-13',
'CAx-IF Rec.Pracs.---3D Tessellated Geometry---0.4---2014-09-14','2;1',
'CAx-IF Rec.Pracs.---User Defined Attributes---1.5---2016-08-15'),
/* implementation_level */ '2;1');

FILE_NAME(
/* name */ 'Part Studio 1 - Part 9',
/* time_stamp */ '2026-09-10T16:32:55Z',
/* author */ (''),
/* organization */ (''),
/* preprocessor_version */ 'ST-DEVELOPER v20',
/* originating_system */ 'ONSHAPE BY PTC INC, 1.220',
/* authorisation */ '  ');

FILE_SCHEMA (('AP242_MANAGED_MODEL_BASED_3D_ENGINEERING_MIM_LF { 1 0 10303 442 3 1 4 }'));
ENDSEC;

DATA;
#10=SHAPE_REPRESENTATION_RELATIONSHIP('','',#852,#11);
#11=ADVANCED_BREP_SHAPE_REPRESENTATION('',(#850),#1466);
#12=LINE('',#1152,#85);
#13=LINE('',#1155,#86);
#14=LINE('',#1157,#87);
#15=LINE('',#1159,#88);
#16=LINE('',#1160,#89);
#17=LINE('',#1163,#90);
#18=LINE('',#1165,#91);
#19=LINE('',#1167,#92);
#20=LINE('',#1168,#93);
#21=LINE('',#1171,#94);
#22=LINE('',#1173,#95);
#23=LINE('',#1175,#96);
#24=LINE('',#1176,#97);
#25=LINE('',#1179,#98);
#26=LINE('',#1181,#99);
#27=LINE('',#1183,#100);
#28=LINE('',#1190,#101);
#29=LINE('',#1192,#102);
#30=LINE('',#1194,#103);
#31=LINE('',#1196,#104);
#32=LINE('',#1198,#105);
#33=LINE('',#1203,#106);
#34=LINE('',#1206,#107);
#35=LINE('',#1208,#108);
#36=LINE('',#1210,#109);
#37=LINE('',#1213,#110);
#38=LINE('',#1220,#111);
#39=LINE('',#1221,#112);
#40=LINE('',#1248,#113);
#41=LINE('',#1271,#114);
#42=LINE('',#1276,#115);
#43=LINE('',#1299,#116);
#44=LINE('',#1301,#117);
#45=LINE('',#1303,#118);
#46=LINE('',#1308,#119);
#47=LINE('',#1310,#120);
#48=LINE('',#1312,#121);
#49=LINE('',#1317,#122);
#50=LINE('',#1319,#123);
#51=LINE('',#1321,#124);
#52=LINE('',#1326,#125);
#53=LINE('',#1328,#126);
#54=LINE('',#1330,#127);
#55=LINE('',#1335,#128);
#56=LINE('',#1336,#129);
#57=LINE('',#1349,#130);
#58=LINE('',#1351,#131);
#59=LINE('',#1353,#132);
#60=LINE('',#1358,#133);
#61=LINE('',#1360,#134);
#62=LINE('',#1362,#135);
#63=LINE('',#1367,#136);
#64=LINE('',#1369,#137);
#65=LINE('',#1371,#138);
#66=LINE('',#1376,#139);
#67=LINE('',#1378,#140);
#68=LINE('',#1380,#141);
#69=LINE('',#1395,#142);
#70=LINE('',#1396,#143);
#71=LINE('',#1419,#144);
#72=LINE('',#1421,#145);
#73=LINE('',#1423,#146);
#74=LINE('',#1425,#147);
#75=LINE('',#1427,#148);
#76=LINE('',#1432,#149);
#77=LINE('',#1434,#150);
#78=LINE('',#1439,#151);
#79=LINE('',#1441,#152);
#80=LINE('',#1446,#153);
#81=LINE('',#1448,#154);
#82=LINE('',#1453,#155);
#83=LINE('',#1455,#156);
#84=LINE('',#1460,#157);
#85=VECTOR('',#918,1.);
#86=VECTOR('',#919,1.);
#87=VECTOR('',#920,1.);
#88=VECTOR('',#921,1.);
#89=VECTOR('',#922,1.);
#90=VECTOR('',#923,1.);
#91=VECTOR('',#924,1.);
#92=VECTOR('',#925,1.);
#93=VECTOR('',#926,1.);
#94=VECTOR('',#927,1.);
#95=VECTOR('',#928,1.);
#96=VECTOR('',#929,1.);
#97=VECTOR('',#930,1.);
#98=VECTOR('',#931,1.);
#99=VECTOR('',#932,1.);
#100=VECTOR('',#933,1.);
#101=VECTOR('',#936,1.);
#102=VECTOR('',#937,1.);
#103=VECTOR('',#938,1.);
#104=VECTOR('',#939,1.);
#105=VECTOR('',#940,1.);
#106=VECTOR('',#941,1.);
#107=VECTOR('',#942,1.);
#108=VECTOR('',#943,1.);
#109=VECTOR('',#944,1.);
#110=VECTOR('',#947,1.);
#111=VECTOR('',#952,1.);
#112=VECTOR('',#953,1.);
#113=VECTOR('',#958,1.);
#114=VECTOR('',#963,1.);
#115=VECTOR('',#964,1.);
#116=VECTOR('',#969,1.);
#117=VECTOR('',#970,1.);
#118=VECTOR('',#971,1.);
#119=VECTOR('',#972,1.);
#120=VECTOR('',#973,1.);
#121=VECTOR('',#974,1.);
#122=VECTOR('',#975,1.);
#123=VECTOR('',#976,1.);
#124=VECTOR('',#977,1.);
#125=VECTOR('',#978,1.);
#126=VECTOR('',#979,1.);
#127=VECTOR('',#980,1.);
#128=VECTOR('',#981,1.);
#129=VECTOR('',#982,1.);
#130=VECTOR('',#983,1.);
#131=VECTOR('',#984,1.);
#132=VECTOR('',#985,1.);
#133=VECTOR('',#986,1.);
#134=VECTOR('',#987,1.);
#135=VECTOR('',#988,1.);
#136=VECTOR('',#989,1.);
#137=VECTOR('',#990,1.);
#138=VECTOR('',#991,1.);
#139=VECTOR('',#992,1.);
#140=VECTOR('',#993,1.);
#141=VECTOR('',#994,1.);
#142=VECTOR('',#999,1.);
#143=VECTOR('',#1000,1.);
#144=VECTOR('',#1005,1.);
#145=VECTOR('',#1006,1.);
#146=VECTOR('',#1007,1.);
#147=VECTOR('',#1008,1.);
#148=VECTOR('',#1009,1.);
#149=VECTOR('',#1010,1.);
#150=VECTOR('',#1011,1.);
#151=VECTOR('',#1012,1.);
#152=VECTOR('',#1013,1.);
#153=VECTOR('',#1014,1.);
#154=VECTOR('',#1015,1.);
#155=VECTOR('',#1016,1.);
#156=VECTOR('',#1017,1.);
#157=VECTOR('',#1018,1.);
#158=B_SPLINE_SURFACE_WITH_KNOTS('',1,1,((#1146,#1147),(#1148,#1149)),
 .PLANE_SURF.,.F.,.F.,.F.,(2,2),(2,2),(0.,1.),(0.,1.),.UNSPECIFIED.);
#159=B_SPLINE_SURFACE_WITH_KNOTS('',1,1,((#1184,#1185),(#1186,#1187)),
 .PLANE_SURF.,.F.,.F.,.F.,(2,2),(2,2),(0.,1.),(0.,1.),.UNSPECIFIED.);
#160=B_SPLINE_SURFACE_WITH_KNOTS('',1,1,((#1199,#1200),(#1201,#1202)),
 .PLANE_SURF.,.F.,.F.,.F.,(2,2),(2,2),(0.,1.),(0.,1.),.UNSPECIFIED.);
#161=B_SPLINE_SURFACE_WITH_KNOTS('',1,1,((#1214,#1215),(#1216,#1217)),
 .PLANE_SURF.,.F.,.F.,.F.,(2,2),(2,2),(0.,1.),(0.,1.),.UNSPECIFIED.);
#162=B_SPLINE_SURFACE_WITH_KNOTS('',1,1,((#1222,#1223),(#1224,#1225)),
 .PLANE_SURF.,.F.,.F.,.F.,(2,2),(2,2),(0.,1.),(0.,1.),.UNSPECIFIED.);
#163=B_SPLINE_SURFACE_WITH_KNOTS('',1,1,((#1242,#1243),(#1244,#1245)),
 .PLANE_SURF.,.F.,.F.,.F.,(2,2),(2,2),(0.,1.),(0.,1.),.UNSPECIFIED.);
#164=B_SPLINE_SURFACE_WITH_KNOTS('',1,1,((#1267,#1268),(#1269,#1270)),
 .PLANE_SURF.,.F.,.F.,.F.,(2,2),(2,2),(0.,1.),(0.,1.),.UNSPECIFIED.);
#165=B_SPLINE_SURFACE_WITH_KNOTS('',1,1,((#1272,#1273),(#1274,#1275)),
 .PLANE_SURF.,.F.,.F.,.F.,(2,2),(2,2),(0.,1.),(0.,1.),.UNSPECIFIED.);
#166=B_SPLINE_SURFACE_WITH_KNOTS('',1,1,((#1295,#1296),(#1297,#1298)),
 .PLANE_SURF.,.F.,.F.,.F.,(2,2),(2,2),(0.,1.),(0.,1.),.UNSPECIFIED.);
#167=B_SPLINE_SURFACE_WITH_KNOTS('',1,1,((#1304,#1305),(#1306,#1307)),
 .PLANE_SURF.,.F.,.F.,.F.,(2,2),(2,2),(0.,1.),(0.,1.),.UNSPECIFIED.);
#168=B_SPLINE_SURFACE_WITH_KNOTS('',1,1,((#1313,#1314),(#1315,#1316)),
 .PLANE_SURF.,.F.,.F.,.F.,(2,2),(2,2),(0.,1.),(0.,1.),.UNSPECIFIED.);
#169=B_SPLINE_SURFACE_WITH_KNOTS('',1,1,((#1322,#1323),(#1324,#1325)),
 .PLANE_SURF.,.F.,.F.,.F.,(2,2),(2,2),(0.,1.),(0.,1.),.UNSPECIFIED.);
#170=B_SPLINE_SURFACE_WITH_KNOTS('',1,1,((#1331,#1332),(#1333,#1334)),
 .PLANE_SURF.,.F.,.F.,.F.,(2,2),(2,2),(0.,1.),(0.,1.),.UNSPECIFIED.);
#171=B_SPLINE_SURFACE_WITH_KNOTS('',1,1,((#1337,#1338),(#1339,#1340)),
 .PLANE_SURF.,.F.,.F.,.F.,(2,2),(2,2),(0.,1.),(0.,1.),.UNSPECIFIED.);
#172=B_SPLINE_SURFACE_WITH_KNOTS('',1,1,((#1341,#1342),(#1343,#1344)),
 .PLANE_SURF.,.F.,.F.,.F.,(2,2),(2,2),(0.,1.),(0.,1.),.UNSPECIFIED.);
#173=B_SPLINE_SURFACE_WITH_KNOTS('',1,1,((#1345,#1346),(#1347,#1348)),
 .PLANE_SURF.,.F.,.F.,.F.,(2,2),(2,2),(0.,1.),(0.,1.),.UNSPECIFIED.);
#174=B_SPLINE_SURFACE_WITH_KNOTS('',1,1,((#1354,#1355),(#1356,#1357)),
 .PLANE_SURF.,.F.,.F.,.F.,(2,2),(2,2),(0.,1.),(0.,1.),.UNSPECIFIED.);
#175=B_SPLINE_SURFACE_WITH_KNOTS('',1,1,((#1363,#1364),(#1365,#1366)),
 .PLANE_SURF.,.F.,.F.,.F.,(2,2),(2,2),(0.,1.),(0.,1.),.UNSPECIFIED.);
#176=B_SPLINE_SURFACE_WITH_KNOTS('',1,1,((#1372,#1373),(#1374,#1375)),
 .PLANE_SURF.,.F.,.F.,.F.,(2,2),(2,2),(0.,1.),(0.,1.),.UNSPECIFIED.);
#177=B_SPLINE_SURFACE_WITH_KNOTS('',1,1,((#1391,#1392),(#1393,#1394)),
 .PLANE_SURF.,.F.,.F.,.F.,(2,2),(2,2),(0.,1.),(0.,1.),.UNSPECIFIED.);
#178=B_SPLINE_SURFACE_WITH_KNOTS('',1,1,((#1397,#1398),(#1399,#1400)),
 .PLANE_SURF.,.F.,.F.,.F.,(2,2),(2,2),(0.,1.),(0.,1.),.UNSPECIFIED.);
#179=B_SPLINE_SURFACE_WITH_KNOTS('',1,1,((#1401,#1402),(#1403,#1404)),
 .PLANE_SURF.,.F.,.F.,.F.,(2,2),(2,2),(0.,1.),(0.,1.),.UNSPECIFIED.);
#180=B_SPLINE_SURFACE_WITH_KNOTS('',1,1,((#1415,#1416),(#1417,#1418)),
 .PLANE_SURF.,.F.,.F.,.F.,(2,2),(2,2),(0.,1.),(0.,1.),.UNSPECIFIED.);
#181=B_SPLINE_SURFACE_WITH_KNOTS('',1,1,((#1428,#1429),(#1430,#1431)),
 .PLANE_SURF.,.F.,.F.,.F.,(2,2),(2,2),(0.,1.),(0.,1.),.UNSPECIFIED.);
#182=B_SPLINE_SURFACE_WITH_KNOTS('',1,1,((#1435,#1436),(#1437,#1438)),
 .PLANE_SURF.,.F.,.F.,.F.,(2,2),(2,2),(0.,1.),(0.,1.),.UNSPECIFIED.);
#183=B_SPLINE_SURFACE_WITH_KNOTS('',1,1,((#1442,#1443),(#1444,#1445)),
 .PLANE_SURF.,.F.,.F.,.F.,(2,2),(2,2),(0.,1.),(0.,1.),.UNSPECIFIED.);
#184=B_SPLINE_SURFACE_WITH_KNOTS('',1,1,((#1449,#1450),(#1451,#1452)),
 .PLANE_SURF.,.F.,.F.,.F.,(2,2),(2,2),(0.,1.),(0.,1.),.UNSPECIFIED.);
#185=B_SPLINE_SURFACE_WITH_KNOTS('',1,1,((#1456,#1457),(#1458,#1459)),
 .PLANE_SURF.,.F.,.F.,.F.,(2,2),(2,2),(0.,1.),(0.,1.),.UNSPECIFIED.);
#186=B_SPLINE_SURFACE_WITH_KNOTS('',1,1,((#1461,#1462),(#1463,#1464)),
 .PLANE_SURF.,.F.,.F.,.F.,(2,2),(2,2),(0.,1.),(0.,1.),.UNSPECIFIED.);
#187=(
BOUNDED_CURVE()
B_SPLINE_CURVE(1,(#1031,#1032),.UNSPECIFIED.,.F.,.F.)
B_SPLINE_CURVE_WITH_KNOTS((2,2),(0.,1.),.PIECEWISE_BEZIER_KNOTS.)
CURVE()
GEOMETRIC_REPRESENTATION_ITEM()
RATIONAL_B_SPLINE_CURVE((1.,1.))
REPRESENTATION_ITEM('')
);
#188=(
BOUNDED_CURVE()
B_SPLINE_CURVE(1,(#1036,#1037),.UNSPECIFIED.,.F.,.F.)
B_SPLINE_CURVE_WITH_KNOTS((2,2),(0.,1.),.PIECEWISE_BEZIER_KNOTS.)
CURVE()
GEOMETRIC_REPRESENTATION_ITEM()
RATIONAL_B_SPLINE_CURVE((1.,1.))
REPRESENTATION_ITEM('')
);
#189=(
BOUNDED_CURVE()
B_SPLINE_CURVE(1,(#1049,#1050),.UNSPECIFIED.,.F.,.F.)
B_SPLINE_CURVE_WITH_KNOTS((2,2),(0.,1.),.PIECEWISE_BEZIER_KNOTS.)
CURVE()
GEOMETRIC_REPRESENTATION_ITEM()
RATIONAL_B_SPLINE_CURVE((1.,1.))
REPRESENTATION_ITEM('')
);
#190=(
BOUNDED_CURVE()
B_SPLINE_CURVE(1,(#1054,#1055),.UNSPECIFIED.,.F.,.F.)
B_SPLINE_CURVE_WITH_KNOTS((2,2),(0.,1.),.PIECEWISE_BEZIER_KNOTS.)
CURVE()
GEOMETRIC_REPRESENTATION_ITEM()
RATIONAL_B_SPLINE_CURVE((1.,1.))
REPRESENTATION_ITEM('')
);
#191=(
BOUNDED_CURVE()
B_SPLINE_CURVE(1,(#1067,#1068),.UNSPECIFIED.,.F.,.F.)
B_SPLINE_CURVE_WITH_KNOTS((2,2),(0.,1.),.PIECEWISE_BEZIER_KNOTS.)
CURVE()
GEOMETRIC_REPRESENTATION_ITEM()
RATIONAL_B_SPLINE_CURVE((1.,1.))
REPRESENTATION_ITEM('')
);
#192=(
BOUNDED_CURVE()
B_SPLINE_CURVE(1,(#1072,#1073),.UNSPECIFIED.,.F.,.F.)
B_SPLINE_CURVE_WITH_KNOTS((2,2),(0.,1.),.PIECEWISE_BEZIER_KNOTS.)
CURVE()
GEOMETRIC_REPRESENTATION_ITEM()
RATIONAL_B_SPLINE_CURVE((1.,1.))
REPRESENTATION_ITEM('')
);
#193=(
BOUNDED_CURVE()
B_SPLINE_CURVE(1,(#1085,#1086),.UNSPECIFIED.,.F.,.F.)
B_SPLINE_CURVE_WITH_KNOTS((2,2),(0.,1.),.PIECEWISE_BEZIER_KNOTS.)
CURVE()
GEOMETRIC_REPRESENTATION_ITEM()
RATIONAL_B_SPLINE_CURVE((1.,1.))
REPRESENTATION_ITEM('')
);
#194=(
BOUNDED_CURVE()
B_SPLINE_CURVE(1,(#1090,#1091),.UNSPECIFIED.,.F.,.F.)
B_SPLINE_CURVE_WITH_KNOTS((2,2),(0.,1.),.PIECEWISE_BEZIER_KNOTS.)
CURVE()
GEOMETRIC_REPRESENTATION_ITEM()
RATIONAL_B_SPLINE_CURVE((1.,1.))
REPRESENTATION_ITEM('')
);
#195=(
BOUNDED_CURVE()
B_SPLINE_CURVE(1,(#1103,#1104),.UNSPECIFIED.,.F.,.F.)
B_SPLINE_CURVE_WITH_KNOTS((2,2),(0.,1.),.PIECEWISE_BEZIER_KNOTS.)
CURVE()
GEOMETRIC_REPRESENTATION_ITEM()
RATIONAL_B_SPLINE_CURVE((1.,1.))
REPRESENTATION_ITEM('')
);
#196=(
BOUNDED_CURVE()
B_SPLINE_CURVE(1,(#1108,#1109),.UNSPECIFIED.,.F.,.F.)
B_SPLINE_CURVE_WITH_KNOTS((2,2),(0.,1.),.PIECEWISE_BEZIER_KNOTS.)
CURVE()
GEOMETRIC_REPRESENTATION_ITEM()
RATIONAL_B_SPLINE_CURVE((1.,1.))
REPRESENTATION_ITEM('')
);
#197=(
BOUNDED_CURVE()
B_SPLINE_CURVE(1,(#1121,#1122),.UNSPECIFIED.,.F.,.F.)
B_SPLINE_CURVE_WITH_KNOTS((2,2),(0.,1.),.PIECEWISE_BEZIER_KNOTS.)
CURVE()
GEOMETRIC_REPRESENTATION_ITEM()
RATIONAL_B_SPLINE_CURVE((1.,1.))
REPRESENTATION_ITEM('')
);
#198=(
BOUNDED_CURVE()
B_SPLINE_CURVE(1,(#1126,#1127),.UNSPECIFIED.,.F.,.F.)
B_SPLINE_CURVE_WITH_KNOTS((2,2),(0.,1.),.PIECEWISE_BEZIER_KNOTS.)
CURVE()
GEOMETRIC_REPRESENTATION_ITEM()
RATIONAL_B_SPLINE_CURVE((1.,1.))
REPRESENTATION_ITEM('')
);
#199=(
BOUNDED_CURVE()
B_SPLINE_CURVE(1,(#1139,#1140),.UNSPECIFIED.,.F.,.F.)
B_SPLINE_CURVE_WITH_KNOTS((2,2),(0.,1.),.PIECEWISE_BEZIER_KNOTS.)
CURVE()
GEOMETRIC_REPRESENTATION_ITEM()
RATIONAL_B_SPLINE_CURVE((1.,1.))
REPRESENTATION_ITEM('')
);
#200=(
BOUNDED_CURVE()
B_SPLINE_CURVE(1,(#1144,#1145),.UNSPECIFIED.,.F.,.F.)
B_SPLINE_CURVE_WITH_KNOTS((2,2),(0.,1.),.PIECEWISE_BEZIER_KNOTS.)
CURVE()
GEOMETRIC_REPRESENTATION_ITEM()
RATIONAL_B_SPLINE_CURVE((1.,1.))
REPRESENTATION_ITEM('')
);
#201=ORIENTED_EDGE('',*,*,#435,.F.);
#202=ORIENTED_EDGE('',*,*,#436,.T.);
#203=ORIENTED_EDGE('',*,*,#437,.F.);
#204=ORIENTED_EDGE('',*,*,#438,.F.);
#205=ORIENTED_EDGE('',*,*,#439,.T.);
#206=ORIENTED_EDGE('',*,*,#440,.T.);
#207=ORIENTED_EDGE('',*,*,#441,.T.);
#208=ORIENTED_EDGE('',*,*,#442,.F.);
#209=ORIENTED_EDGE('',*,*,#443,.T.);
#210=ORIENTED_EDGE('',*,*,#444,.T.);
#211=ORIENTED_EDGE('',*,*,#445,.F.);
#212=ORIENTED_EDGE('',*,*,#446,.F.);
#213=ORIENTED_EDGE('',*,*,#447,.F.);
#214=ORIENTED_EDGE('',*,*,#448,.T.);
#215=ORIENTED_EDGE('',*,*,#449,.T.);
#216=ORIENTED_EDGE('',*,*,#450,.F.);
#217=ORIENTED_EDGE('',*,*,#451,.F.);
#218=ORIENTED_EDGE('',*,*,#452,.T.);
#219=ORIENTED_EDGE('',*,*,#453,.T.);
#220=ORIENTED_EDGE('',*,*,#454,.F.);
#221=ORIENTED_EDGE('',*,*,#455,.T.);
#222=ORIENTED_EDGE('',*,*,#456,.T.);
#223=ORIENTED_EDGE('',*,*,#457,.F.);
#224=ORIENTED_EDGE('',*,*,#458,.F.);
#225=ORIENTED_EDGE('',*,*,#459,.T.);
#226=ORIENTED_EDGE('',*,*,#460,.T.);
#227=ORIENTED_EDGE('',*,*,#461,.F.);
#228=ORIENTED_EDGE('',*,*,#462,.F.);
#229=ORIENTED_EDGE('',*,*,#455,.F.);
#230=ORIENTED_EDGE('',*,*,#463,.F.);
#231=ORIENTED_EDGE('',*,*,#459,.F.);
#232=ORIENTED_EDGE('',*,*,#464,.F.);
#233=ORIENTED_EDGE('',*,*,#465,.T.);
#234=ORIENTED_EDGE('',*,*,#466,.T.);
#235=ORIENTED_EDGE('',*,*,#467,.F.);
#236=ORIENTED_EDGE('',*,*,#468,.F.);
#237=ORIENTED_EDGE('',*,*,#469,.T.);
#238=ORIENTED_EDGE('',*,*,#470,.T.);
#239=ORIENTED_EDGE('',*,*,#471,.F.);
#240=ORIENTED_EDGE('',*,*,#472,.T.);
#241=ORIENTED_EDGE('',*,*,#473,.F.);
#242=ORIENTED_EDGE('',*,*,#474,.T.);
#243=ORIENTED_EDGE('',*,*,#475,.T.);
#244=ORIENTED_EDGE('',*,*,#476,.F.);
#245=ORIENTED_EDGE('',*,*,#477,.T.);
#246=ORIENTED_EDGE('',*,*,#478,.T.);
#247=ORIENTED_EDGE('',*,*,#479,.F.);
#248=ORIENTED_EDGE('',*,*,#480,.T.);
#249=ORIENTED_EDGE('',*,*,#467,.T.);
#250=ORIENTED_EDGE('',*,*,#481,.T.);
#251=ORIENTED_EDGE('',*,*,#482,.T.);
#252=ORIENTED_EDGE('',*,*,#483,.T.);
#253=ORIENTED_EDGE('',*,*,#484,.F.);
#254=ORIENTED_EDGE('',*,*,#485,.F.);
#255=ORIENTED_EDGE('',*,*,#486,.F.);
#256=ORIENTED_EDGE('',*,*,#487,.T.);
#257=ORIENTED_EDGE('',*,*,#488,.T.);
#258=ORIENTED_EDGE('',*,*,#489,.F.);
#259=ORIENTED_EDGE('',*,*,#490,.F.);
#260=ORIENTED_EDGE('',*,*,#491,.F.);
#261=ORIENTED_EDGE('',*,*,#465,.F.);
#262=ORIENTED_EDGE('',*,*,#492,.T.);
#263=ORIENTED_EDGE('',*,*,#457,.T.);
#264=ORIENTED_EDGE('',*,*,#493,.T.);
#265=ORIENTED_EDGE('',*,*,#461,.T.);
#266=ORIENTED_EDGE('',*,*,#494,.T.);
#267=ORIENTED_EDGE('',*,*,#495,.F.);
#268=ORIENTED_EDGE('',*,*,#487,.F.);
#269=ORIENTED_EDGE('',*,*,#496,.T.);
#270=ORIENTED_EDGE('',*,*,#485,.T.);
#271=ORIENTED_EDGE('',*,*,#496,.F.);
#272=ORIENTED_EDGE('',*,*,#492,.F.);
#273=ORIENTED_EDGE('',*,*,#468,.T.);
#274=ORIENTED_EDGE('',*,*,#486,.T.);
#275=ORIENTED_EDGE('',*,*,#460,.F.);
#276=ORIENTED_EDGE('',*,*,#464,.T.);
#277=ORIENTED_EDGE('',*,*,#462,.T.);
#278=ORIENTED_EDGE('',*,*,#494,.F.);
#279=ORIENTED_EDGE('',*,*,#456,.F.);
#280=ORIENTED_EDGE('',*,*,#463,.T.);
#281=ORIENTED_EDGE('',*,*,#458,.T.);
#282=ORIENTED_EDGE('',*,*,#493,.F.);
#283=ORIENTED_EDGE('',*,*,#497,.F.);
#284=ORIENTED_EDGE('',*,*,#449,.F.);
#285=ORIENTED_EDGE('',*,*,#498,.F.);
#286=ORIENTED_EDGE('',*,*,#453,.F.);
#287=ORIENTED_EDGE('',*,*,#488,.F.);
#288=ORIENTED_EDGE('',*,*,#495,.T.);
#289=ORIENTED_EDGE('',*,*,#484,.T.);
#290=ORIENTED_EDGE('',*,*,#499,.F.);
#291=ORIENTED_EDGE('',*,*,#452,.F.);
#292=ORIENTED_EDGE('',*,*,#500,.F.);
#293=ORIENTED_EDGE('',*,*,#454,.T.);
#294=ORIENTED_EDGE('',*,*,#498,.T.);
#295=ORIENTED_EDGE('',*,*,#448,.F.);
#296=ORIENTED_EDGE('',*,*,#501,.F.);
#297=ORIENTED_EDGE('',*,*,#450,.T.);
#298=ORIENTED_EDGE('',*,*,#497,.T.);
#299=ORIENTED_EDGE('',*,*,#499,.T.);
#300=ORIENTED_EDGE('',*,*,#483,.F.);
#301=ORIENTED_EDGE('',*,*,#502,.F.);
#302=ORIENTED_EDGE('',*,*,#489,.T.);
#303=ORIENTED_EDGE('',*,*,#503,.F.);
#304=ORIENTED_EDGE('',*,*,#490,.T.);
#305=ORIENTED_EDGE('',*,*,#502,.T.);
#306=ORIENTED_EDGE('',*,*,#482,.F.);
#307=ORIENTED_EDGE('',*,*,#501,.T.);
#308=ORIENTED_EDGE('',*,*,#447,.T.);
#309=ORIENTED_EDGE('',*,*,#500,.T.);
#310=ORIENTED_EDGE('',*,*,#451,.T.);
#311=ORIENTED_EDGE('',*,*,#481,.F.);
#312=ORIENTED_EDGE('',*,*,#466,.F.);
#313=ORIENTED_EDGE('',*,*,#491,.T.);
#314=ORIENTED_EDGE('',*,*,#503,.T.);
#315=ORIENTED_EDGE('',*,*,#444,.F.);
#316=ORIENTED_EDGE('',*,*,#504,.T.);
#317=ORIENTED_EDGE('',*,*,#446,.T.);
#318=ORIENTED_EDGE('',*,*,#505,.F.);
#319=ORIENTED_EDGE('',*,*,#469,.F.);
#320=ORIENTED_EDGE('',*,*,#506,.T.);
#321=ORIENTED_EDGE('',*,*,#507,.F.);
#322=ORIENTED_EDGE('',*,*,#508,.F.);
#323=ORIENTED_EDGE('',*,*,#507,.T.);
#324=ORIENTED_EDGE('',*,*,#509,.T.);
#325=ORIENTED_EDGE('',*,*,#510,.F.);
#326=ORIENTED_EDGE('',*,*,#511,.F.);
#327=ORIENTED_EDGE('',*,*,#510,.T.);
#328=ORIENTED_EDGE('',*,*,#512,.T.);
#329=ORIENTED_EDGE('',*,*,#513,.F.);
#330=ORIENTED_EDGE('',*,*,#514,.F.);
#331=ORIENTED_EDGE('',*,*,#513,.T.);
#332=ORIENTED_EDGE('',*,*,#515,.T.);
#333=ORIENTED_EDGE('',*,*,#516,.F.);
#334=ORIENTED_EDGE('',*,*,#517,.F.);
#335=ORIENTED_EDGE('',*,*,#518,.F.);
#336=ORIENTED_EDGE('',*,*,#471,.T.);
#337=ORIENTED_EDGE('',*,*,#519,.T.);
#338=ORIENTED_EDGE('',*,*,#516,.T.);
#339=ORIENTED_EDGE('',*,*,#470,.F.);
#340=ORIENTED_EDGE('',*,*,#508,.T.);
#341=ORIENTED_EDGE('',*,*,#511,.T.);
#342=ORIENTED_EDGE('',*,*,#514,.T.);
#343=ORIENTED_EDGE('',*,*,#517,.T.);
#344=ORIENTED_EDGE('',*,*,#519,.F.);
#345=ORIENTED_EDGE('',*,*,#443,.F.);
#346=ORIENTED_EDGE('',*,*,#504,.F.);
#347=ORIENTED_EDGE('',*,*,#472,.F.);
#348=ORIENTED_EDGE('',*,*,#518,.T.);
#349=ORIENTED_EDGE('',*,*,#515,.F.);
#350=ORIENTED_EDGE('',*,*,#512,.F.);
#351=ORIENTED_EDGE('',*,*,#509,.F.);
#352=ORIENTED_EDGE('',*,*,#506,.F.);
#353=ORIENTED_EDGE('',*,*,#445,.T.);
#354=ORIENTED_EDGE('',*,*,#505,.T.);
#355=ORIENTED_EDGE('',*,*,#520,.T.);
#356=ORIENTED_EDGE('',*,*,#473,.T.);
#357=ORIENTED_EDGE('',*,*,#521,.T.);
#358=ORIENTED_EDGE('',*,*,#522,.F.);
#359=ORIENTED_EDGE('',*,*,#523,.F.);
#360=ORIENTED_EDGE('',*,*,#524,.F.);
#361=ORIENTED_EDGE('',*,*,#525,.F.);
#362=ORIENTED_EDGE('',*,*,#522,.T.);
#363=ORIENTED_EDGE('',*,*,#526,.F.);
#364=ORIENTED_EDGE('',*,*,#527,.F.);
#365=ORIENTED_EDGE('',*,*,#528,.F.);
#366=ORIENTED_EDGE('',*,*,#524,.T.);
#367=ORIENTED_EDGE('',*,*,#529,.F.);
#368=ORIENTED_EDGE('',*,*,#530,.F.);
#369=ORIENTED_EDGE('',*,*,#531,.F.);
#370=ORIENTED_EDGE('',*,*,#527,.T.);
#371=ORIENTED_EDGE('',*,*,#440,.F.);
#372=ORIENTED_EDGE('',*,*,#532,.T.);
#373=ORIENTED_EDGE('',*,*,#442,.T.);
#374=ORIENTED_EDGE('',*,*,#533,.T.);
#375=ORIENTED_EDGE('',*,*,#475,.F.);
#376=ORIENTED_EDGE('',*,*,#534,.F.);
#377=ORIENTED_EDGE('',*,*,#530,.T.);
#378=ORIENTED_EDGE('',*,*,#535,.F.);
#379=ORIENTED_EDGE('',*,*,#474,.F.);
#380=ORIENTED_EDGE('',*,*,#520,.F.);
#381=ORIENTED_EDGE('',*,*,#525,.T.);
#382=ORIENTED_EDGE('',*,*,#528,.T.);
#383=ORIENTED_EDGE('',*,*,#531,.T.);
#384=ORIENTED_EDGE('',*,*,#534,.T.);
#385=ORIENTED_EDGE('',*,*,#439,.F.);
#386=ORIENTED_EDGE('',*,*,#532,.F.);
#387=ORIENTED_EDGE('',*,*,#533,.F.);
#388=ORIENTED_EDGE('',*,*,#441,.F.);
#389=ORIENTED_EDGE('',*,*,#521,.F.);
#390=ORIENTED_EDGE('',*,*,#476,.T.);
#391=ORIENTED_EDGE('',*,*,#535,.T.);
#392=ORIENTED_EDGE('',*,*,#529,.T.);
#393=ORIENTED_EDGE('',*,*,#526,.T.);
#394=ORIENTED_EDGE('',*,*,#523,.T.);
#395=ORIENTED_EDGE('',*,*,#436,.F.);
#396=ORIENTED_EDGE('',*,*,#536,.F.);
#397=ORIENTED_EDGE('',*,*,#438,.T.);
#398=ORIENTED_EDGE('',*,*,#537,.F.);
#399=ORIENTED_EDGE('',*,*,#478,.F.);
#400=ORIENTED_EDGE('',*,*,#538,.F.);
#401=ORIENTED_EDGE('',*,*,#539,.F.);
#402=ORIENTED_EDGE('',*,*,#540,.F.);
#403=ORIENTED_EDGE('',*,*,#541,.F.);
#404=ORIENTED_EDGE('',*,*,#542,.T.);
#405=ORIENTED_EDGE('',*,*,#437,.T.);
#406=ORIENTED_EDGE('',*,*,#537,.T.);
#407=ORIENTED_EDGE('',*,*,#477,.F.);
#408=ORIENTED_EDGE('',*,*,#543,.T.);
#409=ORIENTED_EDGE('',*,*,#544,.T.);
#410=ORIENTED_EDGE('',*,*,#538,.T.);
#411=ORIENTED_EDGE('',*,*,#544,.F.);
#412=ORIENTED_EDGE('',*,*,#545,.T.);
#413=ORIENTED_EDGE('',*,*,#546,.T.);
#414=ORIENTED_EDGE('',*,*,#539,.T.);
#415=ORIENTED_EDGE('',*,*,#546,.F.);
#416=ORIENTED_EDGE('',*,*,#547,.T.);
#417=ORIENTED_EDGE('',*,*,#548,.T.);
#418=ORIENTED_EDGE('',*,*,#540,.T.);
#419=ORIENTED_EDGE('',*,*,#548,.F.);
#420=ORIENTED_EDGE('',*,*,#549,.T.);
#421=ORIENTED_EDGE('',*,*,#550,.T.);
#422=ORIENTED_EDGE('',*,*,#541,.T.);
#423=ORIENTED_EDGE('',*,*,#551,.F.);
#424=ORIENTED_EDGE('',*,*,#479,.T.);
#425=ORIENTED_EDGE('',*,*,#542,.F.);
#426=ORIENTED_EDGE('',*,*,#550,.F.);
#427=ORIENTED_EDGE('',*,*,#480,.F.);
#428=ORIENTED_EDGE('',*,*,#551,.T.);
#429=ORIENTED_EDGE('',*,*,#549,.F.);
#430=ORIENTED_EDGE('',*,*,#547,.F.);
#431=ORIENTED_EDGE('',*,*,#545,.F.);
#432=ORIENTED_EDGE('',*,*,#543,.F.);
#433=ORIENTED_EDGE('',*,*,#536,.T.);
#434=ORIENTED_EDGE('',*,*,#435,.T.);
#435=EDGE_CURVE('',#552,#553,#630,.T.);
#436=EDGE_CURVE('',#552,#554,#187,.T.);
#437=EDGE_CURVE('',#555,#554,#631,.T.);
#438=EDGE_CURVE('',#553,#555,#188,.T.);
#439=EDGE_CURVE('',#556,#557,#632,.T.);
#440=EDGE_CURVE('',#557,#558,#189,.T.);
#441=EDGE_CURVE('',#558,#559,#633,.T.);
#442=EDGE_CURVE('',#556,#559,#190,.T.);
#443=EDGE_CURVE('',#560,#561,#634,.T.);
#444=EDGE_CURVE('',#561,#562,#191,.T.);
#445=EDGE_CURVE('',#563,#562,#635,.T.);
#446=EDGE_CURVE('',#560,#563,#192,.T.);
#447=EDGE_CURVE('',#564,#565,#636,.T.);
#448=EDGE_CURVE('',#564,#566,#193,.T.);
#449=EDGE_CURVE('',#566,#567,#637,.T.);
#450=EDGE_CURVE('',#565,#567,#194,.T.);
#451=EDGE_CURVE('',#568,#569,#638,.T.);
#452=EDGE_CURVE('',#568,#570,#195,.T.);
#453=EDGE_CURVE('',#570,#571,#639,.T.);
#454=EDGE_CURVE('',#569,#571,#196,.T.);
#455=EDGE_CURVE('',#572,#573,#640,.T.);
#456=EDGE_CURVE('',#573,#574,#197,.T.);
#457=EDGE_CURVE('',#575,#574,#641,.T.);
#458=EDGE_CURVE('',#572,#575,#198,.T.);
#459=EDGE_CURVE('',#576,#577,#642,.T.);
#460=EDGE_CURVE('',#577,#578,#199,.T.);
#461=EDGE_CURVE('',#579,#578,#643,.T.);
#462=EDGE_CURVE('',#576,#579,#200,.T.);
#463=EDGE_CURVE('',#573,#572,#644,.T.);
#464=EDGE_CURVE('',#577,#576,#645,.T.);
#465=EDGE_CURVE('',#580,#581,#12,.T.);
#466=EDGE_CURVE('',#581,#582,#13,.T.);
#467=EDGE_CURVE('',#583,#582,#14,.T.);
#468=EDGE_CURVE('',#580,#583,#15,.T.);
#469=EDGE_CURVE('',#584,#585,#16,.T.);
#470=EDGE_CURVE('',#585,#586,#17,.T.);
#471=EDGE_CURVE('',#587,#586,#18,.T.);
#472=EDGE_CURVE('',#587,#584,#19,.T.);
#473=EDGE_CURVE('',#588,#589,#20,.T.);
#474=EDGE_CURVE('',#588,#590,#21,.T.);
#475=EDGE_CURVE('',#590,#591,#22,.T.);
#476=EDGE_CURVE('',#589,#591,#23,.T.);
#477=EDGE_CURVE('',#592,#593,#24,.T.);
#478=EDGE_CURVE('',#593,#594,#25,.T.);
#479=EDGE_CURVE('',#595,#594,#26,.T.);
#480=EDGE_CURVE('',#595,#592,#27,.T.);
#481=EDGE_CURVE('',#582,#596,#646,.T.);
#482=EDGE_CURVE('',#596,#597,#28,.T.);
#483=EDGE_CURVE('',#597,#598,#29,.T.);
#484=EDGE_CURVE('',#599,#598,#30,.T.);
#485=EDGE_CURVE('',#600,#599,#31,.T.);
#486=EDGE_CURVE('',#583,#600,#32,.T.);
#487=EDGE_CURVE('',#601,#602,#33,.T.);
#488=EDGE_CURVE('',#602,#603,#34,.T.);
#489=EDGE_CURVE('',#604,#603,#35,.T.);
#490=EDGE_CURVE('',#605,#604,#36,.T.);
#491=EDGE_CURVE('',#581,#605,#647,.T.);
#492=EDGE_CURVE('',#580,#601,#37,.T.);
#493=EDGE_CURVE('',#574,#575,#648,.T.);
#494=EDGE_CURVE('',#578,#579,#649,.T.);
#495=EDGE_CURVE('',#602,#599,#38,.T.);
#496=EDGE_CURVE('',#601,#600,#39,.T.);
#497=EDGE_CURVE('',#567,#566,#650,.T.);
#498=EDGE_CURVE('',#571,#570,#651,.T.);
#499=EDGE_CURVE('',#603,#598,#40,.T.);
#500=EDGE_CURVE('',#569,#568,#652,.T.);
#501=EDGE_CURVE('',#565,#564,#653,.T.);
#502=EDGE_CURVE('',#604,#597,#41,.T.);
#503=EDGE_CURVE('',#605,#596,#42,.T.);
#504=EDGE_CURVE('',#561,#560,#654,.T.);
#505=EDGE_CURVE('',#562,#563,#655,.T.);
#506=EDGE_CURVE('',#584,#606,#43,.T.);
#507=EDGE_CURVE('',#607,#606,#44,.T.);
#508=EDGE_CURVE('',#585,#607,#45,.T.);
#509=EDGE_CURVE('',#606,#608,#46,.T.);
#510=EDGE_CURVE('',#609,#608,#47,.T.);
#511=EDGE_CURVE('',#607,#609,#48,.T.);
#512=EDGE_CURVE('',#608,#610,#49,.T.);
#513=EDGE_CURVE('',#611,#610,#50,.T.);
#514=EDGE_CURVE('',#609,#611,#51,.T.);
#515=EDGE_CURVE('',#610,#612,#52,.T.);
#516=EDGE_CURVE('',#613,#612,#53,.T.);
#517=EDGE_CURVE('',#611,#613,#54,.T.);
#518=EDGE_CURVE('',#587,#612,#55,.T.);
#519=EDGE_CURVE('',#586,#613,#56,.T.);
#520=EDGE_CURVE('',#614,#588,#57,.T.);
#521=EDGE_CURVE('',#589,#615,#58,.T.);
#522=EDGE_CURVE('',#614,#615,#59,.T.);
#523=EDGE_CURVE('',#616,#615,#60,.T.);
#524=EDGE_CURVE('',#617,#616,#61,.T.);
#525=EDGE_CURVE('',#614,#617,#62,.T.);
#526=EDGE_CURVE('',#618,#616,#63,.T.);
#527=EDGE_CURVE('',#619,#618,#64,.T.);
#528=EDGE_CURVE('',#617,#619,#65,.T.);
#529=EDGE_CURVE('',#620,#618,#66,.T.);
#530=EDGE_CURVE('',#621,#620,#67,.T.);
#531=EDGE_CURVE('',#619,#621,#68,.T.);
#532=EDGE_CURVE('',#557,#556,#656,.T.);
#533=EDGE_CURVE('',#559,#558,#657,.T.);
#534=EDGE_CURVE('',#621,#590,#69,.T.);
#535=EDGE_CURVE('',#591,#620,#70,.T.);
#536=EDGE_CURVE('',#553,#552,#658,.T.);
#537=EDGE_CURVE('',#554,#555,#659,.T.);
#538=EDGE_CURVE('',#622,#593,#71,.T.);
#539=EDGE_CURVE('',#623,#622,#72,.T.);
#540=EDGE_CURVE('',#624,#623,#73,.T.);
#541=EDGE_CURVE('',#625,#624,#74,.T.);
#542=EDGE_CURVE('',#625,#594,#75,.T.);
#543=EDGE_CURVE('',#592,#626,#76,.T.);
#544=EDGE_CURVE('',#626,#622,#77,.T.);
#545=EDGE_CURVE('',#626,#627,#78,.T.);
#546=EDGE_CURVE('',#627,#623,#79,.T.);
#547=EDGE_CURVE('',#627,#628,#80,.T.);
#548=EDGE_CURVE('',#628,#624,#81,.T.);
#549=EDGE_CURVE('',#628,#629,#82,.T.);
#550=EDGE_CURVE('',#629,#625,#83,.T.);
#551=EDGE_CURVE('',#595,#629,#84,.T.);
#552=VERTEX_POINT('',#1029);
#553=VERTEX_POINT('',#1030);
#554=VERTEX_POINT('',#1033);
#555=VERTEX_POINT('',#1035);
#556=VERTEX_POINT('',#1047);
#557=VERTEX_POINT('',#1048);
#558=VERTEX_POINT('',#1051);
#559=VERTEX_POINT('',#1053);
#560=VERTEX_POINT('',#1065);
#561=VERTEX_POINT('',#1066);
#562=VERTEX_POINT('',#1069);
#563=VERTEX_POINT('',#1071);
#564=VERTEX_POINT('',#1083);
#565=VERTEX_POINT('',#1084);
#566=VERTEX_POINT('',#1087);
#567=VERTEX_POINT('',#1089);
#568=VERTEX_POINT('',#1101);
#569=VERTEX_POINT('',#1102);
#570=VERTEX_POINT('',#1105);
#571=VERTEX_POINT('',#1107);
#572=VERTEX_POINT('',#1119);
#573=VERTEX_POINT('',#1120);
#574=VERTEX_POINT('',#1123);
#575=VERTEX_POINT('',#1125);
#576=VERTEX_POINT('',#1137);
#577=VERTEX_POINT('',#1138);
#578=VERTEX_POINT('',#1141);
#579=VERTEX_POINT('',#1143);
#580=VERTEX_POINT('',#1153);
#581=VERTEX_POINT('',#1154);
#582=VERTEX_POINT('',#1156);
#583=VERTEX_POINT('',#1158);
#584=VERTEX_POINT('',#1161);
#585=VERTEX_POINT('',#1162);
#586=VERTEX_POINT('',#1164);
#587=VERTEX_POINT('',#1166);
#588=VERTEX_POINT('',#1169);
#589=VERTEX_POINT('',#1170);
#590=VERTEX_POINT('',#1172);
#591=VERTEX_POINT('',#1174);
#592=VERTEX_POINT('',#1177);
#593=VERTEX_POINT('',#1178);
#594=VERTEX_POINT('',#1180);
#595=VERTEX_POINT('',#1182);
#596=VERTEX_POINT('',#1189);
#597=VERTEX_POINT('',#1191);
#598=VERTEX_POINT('',#1193);
#599=VERTEX_POINT('',#1195);
#600=VERTEX_POINT('',#1197);
#601=VERTEX_POINT('',#1204);
#602=VERTEX_POINT('',#1205);
#603=VERTEX_POINT('',#1207);
#604=VERTEX_POINT('',#1209);
#605=VERTEX_POINT('',#1211);
#606=VERTEX_POINT('',#1300);
#607=VERTEX_POINT('',#1302);
#608=VERTEX_POINT('',#1309);
#609=VERTEX_POINT('',#1311);
#610=VERTEX_POINT('',#1318);
#611=VERTEX_POINT('',#1320);
#612=VERTEX_POINT('',#1327);
#613=VERTEX_POINT('',#1329);
#614=VERTEX_POINT('',#1350);
#615=VERTEX_POINT('',#1352);
#616=VERTEX_POINT('',#1359);
#617=VERTEX_POINT('',#1361);
#618=VERTEX_POINT('',#1368);
#619=VERTEX_POINT('',#1370);
#620=VERTEX_POINT('',#1377);
#621=VERTEX_POINT('',#1379);
#622=VERTEX_POINT('',#1420);
#623=VERTEX_POINT('',#1422);
#624=VERTEX_POINT('',#1424);
#625=VERTEX_POINT('',#1426);
#626=VERTEX_POINT('',#1433);
#627=VERTEX_POINT('',#1440);
#628=VERTEX_POINT('',#1447);
#629=VERTEX_POINT('',#1454);
#630=CIRCLE('',#854,0.0016);
#631=CIRCLE('',#855,0.0016);
#632=CIRCLE('',#856,0.0016);
#633=CIRCLE('',#857,0.0016);
#634=CIRCLE('',#858,0.0016);
#635=CIRCLE('',#859,0.0016);
#636=CIRCLE('',#860,0.00279272066045402);
#637=CIRCLE('',#861,0.00279272066045402);
#638=CIRCLE('',#862,0.00279272066045402);
#639=CIRCLE('',#863,0.00279272066045402);
#640=CIRCLE('',#864,0.00279272066045402);
#641=CIRCLE('',#865,0.00279272066045402);
#642=CIRCLE('',#866,0.00279272066045402);
#643=CIRCLE('',#867,0.00279272066045402);
#644=CIRCLE('',#868,0.00279272066045402);
#645=CIRCLE('',#869,0.00279272066045402);
#646=CIRCLE('',#870,0.003);
#647=CIRCLE('',#871,0.003);
#648=CIRCLE('',#872,0.00279272066045402);
#649=CIRCLE('',#873,0.00279272066045402);
#650=CIRCLE('',#874,0.00279272066045402);
#651=CIRCLE('',#875,0.00279272066045402);
#652=CIRCLE('',#876,0.00279272066045402);
#653=CIRCLE('',#877,0.00279272066045402);
#654=CIRCLE('',#878,0.0016);
#655=CIRCLE('',#879,0.0016);
#656=CIRCLE('',#880,0.0016);
#657=CIRCLE('',#881,0.0016);
#658=CIRCLE('',#882,0.0016);
#659=CIRCLE('',#883,0.0016);
#660=EDGE_LOOP('',(#201,#202,#203,#204));
#661=EDGE_LOOP('',(#205,#206,#207,#208));
#662=EDGE_LOOP('',(#209,#210,#211,#212));
#663=EDGE_LOOP('',(#213,#214,#215,#216));
#664=EDGE_LOOP('',(#217,#218,#219,#220));
#665=EDGE_LOOP('',(#221,#222,#223,#224));
#666=EDGE_LOOP('',(#225,#226,#227,#228));
#667=EDGE_LOOP('',(#229,#230));
#668=EDGE_LOOP('',(#231,#232));
#669=EDGE_LOOP('',(#233,#234,#235,#236));
#670=EDGE_LOOP('',(#237,#238,#239,#240));
#671=EDGE_LOOP('',(#241,#242,#243,#244));
#672=EDGE_LOOP('',(#245,#246,#247,#248));
#673=EDGE_LOOP('',(#249,#250,#251,#252,#253,#254,#255));
#674=EDGE_LOOP('',(#256,#257,#258,#259,#260,#261,#262));
#675=EDGE_LOOP('',(#263,#264));
#676=EDGE_LOOP('',(#265,#266));
#677=EDGE_LOOP('',(#267,#268,#269,#270));
#678=EDGE_LOOP('',(#271,#272,#273,#274));
#679=EDGE_LOOP('',(#275,#276,#277,#278));
#680=EDGE_LOOP('',(#279,#280,#281,#282));
#681=EDGE_LOOP('',(#283,#284));
#682=EDGE_LOOP('',(#285,#286));
#683=EDGE_LOOP('',(#287,#288,#289,#290));
#684=EDGE_LOOP('',(#291,#292,#293,#294));
#685=EDGE_LOOP('',(#295,#296,#297,#298));
#686=EDGE_LOOP('',(#299,#300,#301,#302));
#687=EDGE_LOOP('',(#303,#304,#305,#306));
#688=EDGE_LOOP('',(#307,#308));
#689=EDGE_LOOP('',(#309,#310));
#690=EDGE_LOOP('',(#311,#312,#313,#314));
#691=EDGE_LOOP('',(#315,#316,#317,#318));
#692=EDGE_LOOP('',(#319,#320,#321,#322));
#693=EDGE_LOOP('',(#323,#324,#325,#326));
#694=EDGE_LOOP('',(#327,#328,#329,#330));
#695=EDGE_LOOP('',(#331,#332,#333,#334));
#696=EDGE_LOOP('',(#335,#336,#337,#338));
#697=EDGE_LOOP('',(#339,#340,#341,#342,#343,#344));
#698=EDGE_LOOP('',(#345,#346));
#699=EDGE_LOOP('',(#347,#348,#349,#350,#351,#352));
#700=EDGE_LOOP('',(#353,#354));
#701=EDGE_LOOP('',(#355,#356,#357,#358));
#702=EDGE_LOOP('',(#359,#360,#361,#362));
#703=EDGE_LOOP('',(#363,#364,#365,#366));
#704=EDGE_LOOP('',(#367,#368,#369,#370));
#705=EDGE_LOOP('',(#371,#372,#373,#374));
#706=EDGE_LOOP('',(#375,#376,#377,#378));
#707=EDGE_LOOP('',(#379,#380,#381,#382,#383,#384));
#708=EDGE_LOOP('',(#385,#386));
#709=EDGE_LOOP('',(#387,#388));
#710=EDGE_LOOP('',(#389,#390,#391,#392,#393,#394));
#711=EDGE_LOOP('',(#395,#396,#397,#398));
#712=EDGE_LOOP('',(#399,#400,#401,#402,#403,#404));
#713=EDGE_LOOP('',(#405,#406));
#714=EDGE_LOOP('',(#407,#408,#409,#410));
#715=EDGE_LOOP('',(#411,#412,#413,#414));
#716=EDGE_LOOP('',(#415,#416,#417,#418));
#717=EDGE_LOOP('',(#419,#420,#421,#422));
#718=EDGE_LOOP('',(#423,#424,#425,#426));
#719=EDGE_LOOP('',(#427,#428,#429,#430,#431,#432));
#720=EDGE_LOOP('',(#433,#434));
#721=FACE_BOUND('',#660,.T.);
#722=FACE_BOUND('',#661,.T.);
#723=FACE_BOUND('',#662,.T.);
#724=FACE_BOUND('',#663,.T.);
#725=FACE_BOUND('',#664,.T.);
#726=FACE_BOUND('',#665,.T.);
#727=FACE_BOUND('',#666,.T.);
#728=FACE_BOUND('',#667,.T.);
#729=FACE_BOUND('',#668,.T.);
#730=FACE_BOUND('',#669,.T.);
#731=FACE_BOUND('',#670,.T.);
#732=FACE_BOUND('',#671,.T.);
#733=FACE_BOUND('',#672,.T.);
#734=FACE_BOUND('',#673,.T.);
#735=FACE_BOUND('',#674,.T.);
#736=FACE_BOUND('',#675,.T.);
#737=FACE_BOUND('',#676,.T.);
#738=FACE_BOUND('',#677,.T.);
#739=FACE_BOUND('',#678,.T.);
#740=FACE_BOUND('',#679,.T.);
#741=FACE_BOUND('',#680,.T.);
#742=FACE_BOUND('',#681,.T.);
#743=FACE_BOUND('',#682,.T.);
#744=FACE_BOUND('',#683,.T.);
#745=FACE_BOUND('',#684,.T.);
#746=FACE_BOUND('',#685,.T.);
#747=FACE_BOUND('',#686,.T.);
#748=FACE_BOUND('',#687,.T.);
#749=FACE_BOUND('',#688,.T.);
#750=FACE_BOUND('',#689,.T.);
#751=FACE_BOUND('',#690,.T.);
#752=FACE_BOUND('',#691,.T.);
#753=FACE_BOUND('',#692,.T.);
#754=FACE_BOUND('',#693,.T.);
#755=FACE_BOUND('',#694,.T.);
#756=FACE_BOUND('',#695,.T.);
#757=FACE_BOUND('',#696,.T.);
#758=FACE_BOUND('',#697,.T.);
#759=FACE_BOUND('',#698,.T.);
#760=FACE_BOUND('',#699,.T.);
#761=FACE_BOUND('',#700,.T.);
#762=FACE_BOUND('',#701,.T.);
#763=FACE_BOUND('',#702,.T.);
#764=FACE_BOUND('',#703,.T.);
#765=FACE_BOUND('',#704,.T.);
#766=FACE_BOUND('',#705,.T.);
#767=FACE_BOUND('',#706,.T.);
#768=FACE_BOUND('',#707,.T.);
#769=FACE_BOUND('',#708,.T.);
#770=FACE_BOUND('',#709,.T.);
#771=FACE_BOUND('',#710,.T.);
#772=FACE_BOUND('',#711,.T.);
#773=FACE_BOUND('',#712,.T.);
#774=FACE_BOUND('',#713,.T.);
#775=FACE_BOUND('',#714,.T.);
#776=FACE_BOUND('',#715,.T.);
#777=FACE_BOUND('',#716,.T.);
#778=FACE_BOUND('',#717,.T.);
#779=FACE_BOUND('',#718,.T.);
#780=FACE_BOUND('',#719,.T.);
#781=FACE_BOUND('',#720,.T.);
#782=(
BOUNDED_SURFACE()
B_SPLINE_SURFACE(3,1,((#1020,#1021),(#1022,#1023),(#1024,#1025),(#1026,
#1027)),.CYLINDRICAL_SURF.,.F.,.F.,.F.)
B_SPLINE_SURFACE_WITH_KNOTS((4,4),(2,2),(0.5,1.),(0.0454545454545485,0.954545454545455),
 .PIECEWISE_BEZIER_KNOTS.)
GEOMETRIC_REPRESENTATION_ITEM()
RATIONAL_B_SPLINE_SURFACE(((1.,1.),(0.333333333333333,0.333333333333333),
(0.333333333333333,0.333333333333333),(1.,1.)))
REPRESENTATION_ITEM('')
SURFACE()
);
#783=(
BOUNDED_SURFACE()
B_SPLINE_SURFACE(3,1,((#1038,#1039),(#1040,#1041),(#1042,#1043),(#1044,
#1045)),.CYLINDRICAL_SURF.,.F.,.F.,.F.)
B_SPLINE_SURFACE_WITH_KNOTS((4,4),(2,2),(0.5,1.),(0.0454545454545474,0.954545454545455),
 .PIECEWISE_BEZIER_KNOTS.)
GEOMETRIC_REPRESENTATION_ITEM()
RATIONAL_B_SPLINE_SURFACE(((1.,1.),(0.333333333333333,0.333333333333333),
(0.333333333333333,0.333333333333333),(1.,1.)))
REPRESENTATION_ITEM('')
SURFACE()
);
#784=(
BOUNDED_SURFACE()
B_SPLINE_SURFACE(3,1,((#1056,#1057),(#1058,#1059),(#1060,#1061),(#1062,
#1063)),.CYLINDRICAL_SURF.,.F.,.F.,.F.)
B_SPLINE_SURFACE_WITH_KNOTS((4,4),(2,2),(0.5,1.),(0.0454545454545447,0.954545454545458),
 .PIECEWISE_BEZIER_KNOTS.)
GEOMETRIC_REPRESENTATION_ITEM()
RATIONAL_B_SPLINE_SURFACE(((1.,1.),(0.333333333333333,0.333333333333333),
(0.333333333333333,0.333333333333333),(1.,1.)))
REPRESENTATION_ITEM('')
SURFACE()
);
#785=(
BOUNDED_SURFACE()
B_SPLINE_SURFACE(3,1,((#1074,#1075),(#1076,#1077),(#1078,#1079),(#1080,
#1081)),.CYLINDRICAL_SURF.,.F.,.F.,.F.)
B_SPLINE_SURFACE_WITH_KNOTS((4,4),(2,2),(0.5,1.),(0.0454545454545457,0.954545454545454),
 .PIECEWISE_BEZIER_KNOTS.)
GEOMETRIC_REPRESENTATION_ITEM()
RATIONAL_B_SPLINE_SURFACE(((1.,1.),(0.333333333333333,0.333333333333333),
(0.333333333333333,0.333333333333333),(1.,1.)))
REPRESENTATION_ITEM('')
SURFACE()
);
#786=(
BOUNDED_SURFACE()
B_SPLINE_SURFACE(3,1,((#1092,#1093),(#1094,#1095),(#1096,#1097),(#1098,
#1099)),.CYLINDRICAL_SURF.,.F.,.F.,.F.)
B_SPLINE_SURFACE_WITH_KNOTS((4,4),(2,2),(0.5,1.),(0.0454545454545457,0.954545454545454),
 .PIECEWISE_BEZIER_KNOTS.)
GEOMETRIC_REPRESENTATION_ITEM()
RATIONAL_B_SPLINE_SURFACE(((1.,1.),(0.333333333333333,0.333333333333333),
(0.333333333333333,0.333333333333333),(1.,1.)))
REPRESENTATION_ITEM('')
SURFACE()
);
#787=(
BOUNDED_SURFACE()
B_SPLINE_SURFACE(3,1,((#1110,#1111),(#1112,#1113),(#1114,#1115),(#1116,
#1117)),.CYLINDRICAL_SURF.,.F.,.F.,.F.)
B_SPLINE_SURFACE_WITH_KNOTS((4,4),(2,2),(0.5,1.),(0.0454545454545454,0.954545454545455),
 .PIECEWISE_BEZIER_KNOTS.)
GEOMETRIC_REPRESENTATION_ITEM()
RATIONAL_B_SPLINE_SURFACE(((1.,1.),(0.333333333333333,0.333333333333333),
(0.333333333333333,0.333333333333333),(1.,1.)))
REPRESENTATION_ITEM('')
SURFACE()
);
#788=(
BOUNDED_SURFACE()
B_SPLINE_SURFACE(3,1,((#1128,#1129),(#1130,#1131),(#1132,#1133),(#1134,
#1135)),.CYLINDRICAL_SURF.,.F.,.F.,.F.)
B_SPLINE_SURFACE_WITH_KNOTS((4,4),(2,2),(0.5,1.),(0.0454545454545454,0.954545454545455),
 .PIECEWISE_BEZIER_KNOTS.)
GEOMETRIC_REPRESENTATION_ITEM()
RATIONAL_B_SPLINE_SURFACE(((1.,1.),(0.333333333333333,0.333333333333333),
(0.333333333333333,0.333333333333333),(1.,1.)))
REPRESENTATION_ITEM('')
SURFACE()
);
#789=(
BOUNDED_SURFACE()
B_SPLINE_SURFACE(3,1,((#1226,#1227),(#1228,#1229),(#1230,#1231),(#1232,
#1233)),.CYLINDRICAL_SURF.,.F.,.F.,.F.)
B_SPLINE_SURFACE_WITH_KNOTS((4,4),(2,2),(0.,0.5),(0.0454545454545454,0.954545454545455),
 .PIECEWISE_BEZIER_KNOTS.)
GEOMETRIC_REPRESENTATION_ITEM()
RATIONAL_B_SPLINE_SURFACE(((1.,1.),(0.333333333333333,0.333333333333333),
(0.333333333333333,0.333333333333333),(1.,1.)))
REPRESENTATION_ITEM('')
SURFACE()
);
#790=(
BOUNDED_SURFACE()
B_SPLINE_SURFACE(3,1,((#1234,#1235),(#1236,#1237),(#1238,#1239),(#1240,
#1241)),.CYLINDRICAL_SURF.,.F.,.F.,.F.)
B_SPLINE_SURFACE_WITH_KNOTS((4,4),(2,2),(0.,0.5),(0.0454545454545454,0.954545454545455),
 .PIECEWISE_BEZIER_KNOTS.)
GEOMETRIC_REPRESENTATION_ITEM()
RATIONAL_B_SPLINE_SURFACE(((1.,1.),(0.333333333333333,0.333333333333333),
(0.333333333333333,0.333333333333333),(1.,1.)))
REPRESENTATION_ITEM('')
SURFACE()
);
#791=(
BOUNDED_SURFACE()
B_SPLINE_SURFACE(3,1,((#1249,#1250),(#1251,#1252),(#1253,#1254),(#1255,
#1256)),.CYLINDRICAL_SURF.,.F.,.F.,.F.)
B_SPLINE_SURFACE_WITH_KNOTS((4,4),(2,2),(0.,0.5),(0.0454545454545456,0.954545454545454),
 .PIECEWISE_BEZIER_KNOTS.)
GEOMETRIC_REPRESENTATION_ITEM()
RATIONAL_B_SPLINE_SURFACE(((1.,1.),(0.333333333333333,0.333333333333333),
(0.333333333333333,0.333333333333333),(1.,1.)))
REPRESENTATION_ITEM('')
SURFACE()
);
#792=(
BOUNDED_SURFACE()
B_SPLINE_SURFACE(3,1,((#1258,#1259),(#1260,#1261),(#1262,#1263),(#1264,
#1265)),.CYLINDRICAL_SURF.,.F.,.F.,.F.)
B_SPLINE_SURFACE_WITH_KNOTS((4,4),(2,2),(0.,0.5),(0.0454545454545457,0.954545454545454),
 .PIECEWISE_BEZIER_KNOTS.)
GEOMETRIC_REPRESENTATION_ITEM()
RATIONAL_B_SPLINE_SURFACE(((1.,1.),(0.333333333333333,0.333333333333333),
(0.333333333333333,0.333333333333333),(1.,1.)))
REPRESENTATION_ITEM('')
SURFACE()
);
#793=(
BOUNDED_SURFACE()
B_SPLINE_SURFACE(3,1,((#1277,#1278),(#1279,#1280),(#1281,#1282),(#1283,
#1284)),.CYLINDRICAL_SURF.,.F.,.F.,.F.)
B_SPLINE_SURFACE_WITH_KNOTS((4,4),(2,2),(0.,1.),(0.,1.),
 .PIECEWISE_BEZIER_KNOTS.)
GEOMETRIC_REPRESENTATION_ITEM()
RATIONAL_B_SPLINE_SURFACE(((1.,1.),(0.708055585234754,0.708055585234754),
(0.708055585234754,0.708055585234754),(1.,1.)))
REPRESENTATION_ITEM('')
SURFACE()
);
#794=(
BOUNDED_SURFACE()
B_SPLINE_SURFACE(3,1,((#1285,#1286),(#1287,#1288),(#1289,#1290),(#1291,
#1292)),.CYLINDRICAL_SURF.,.F.,.F.,.F.)
B_SPLINE_SURFACE_WITH_KNOTS((4,4),(2,2),(0.,0.5),(0.0454545454545447,0.954545454545457),
 .PIECEWISE_BEZIER_KNOTS.)
GEOMETRIC_REPRESENTATION_ITEM()
RATIONAL_B_SPLINE_SURFACE(((1.,1.),(0.333333333333333,0.333333333333333),
(0.333333333333333,0.333333333333333),(1.,1.)))
REPRESENTATION_ITEM('')
SURFACE()
);
#795=(
BOUNDED_SURFACE()
B_SPLINE_SURFACE(3,1,((#1381,#1382),(#1383,#1384),(#1385,#1386),(#1387,
#1388)),.CYLINDRICAL_SURF.,.F.,.F.,.F.)
B_SPLINE_SURFACE_WITH_KNOTS((4,4),(2,2),(0.,0.5),(0.0454545454545485,0.954545454545451),
 .PIECEWISE_BEZIER_KNOTS.)
GEOMETRIC_REPRESENTATION_ITEM()
RATIONAL_B_SPLINE_SURFACE(((1.,1.),(0.333333333333333,0.333333333333333),
(0.333333333333333,0.333333333333333),(1.,1.)))
REPRESENTATION_ITEM('')
SURFACE()
);
#796=(
BOUNDED_SURFACE()
B_SPLINE_SURFACE(3,1,((#1405,#1406),(#1407,#1408),(#1409,#1410),(#1411,
#1412)),.CYLINDRICAL_SURF.,.F.,.F.,.F.)
B_SPLINE_SURFACE_WITH_KNOTS((4,4),(2,2),(0.,0.5),(0.0454545454545446,0.954545454545451),
 .PIECEWISE_BEZIER_KNOTS.)
GEOMETRIC_REPRESENTATION_ITEM()
RATIONAL_B_SPLINE_SURFACE(((1.,1.),(0.333333333333333,0.333333333333333),
(0.333333333333333,0.333333333333333),(1.,1.)))
REPRESENTATION_ITEM('')
SURFACE()
);
#797=ADVANCED_FACE('',(#721),#782,.F.);
#798=ADVANCED_FACE('',(#722),#783,.F.);
#799=ADVANCED_FACE('',(#723),#784,.F.);
#800=ADVANCED_FACE('',(#724),#785,.F.);
#801=ADVANCED_FACE('',(#725),#786,.F.);
#802=ADVANCED_FACE('',(#726),#787,.F.);
#803=ADVANCED_FACE('',(#727),#788,.F.);
#804=ADVANCED_FACE('',(#728,#729,#730,#731,#732,#733),#158,.T.);
#805=ADVANCED_FACE('',(#734),#159,.T.);
#806=ADVANCED_FACE('',(#735),#160,.F.);
#807=ADVANCED_FACE('',(#736,#737,#738),#161,.F.);
#808=ADVANCED_FACE('',(#739),#162,.T.);
#809=ADVANCED_FACE('',(#740),#789,.F.);
#810=ADVANCED_FACE('',(#741),#790,.F.);
#811=ADVANCED_FACE('',(#742,#743,#744),#163,.F.);
#812=ADVANCED_FACE('',(#745),#791,.F.);
#813=ADVANCED_FACE('',(#746),#792,.F.);
#814=ADVANCED_FACE('',(#747),#164,.T.);
#815=ADVANCED_FACE('',(#748,#749,#750),#165,.T.);
#816=ADVANCED_FACE('',(#751),#793,.T.);
#817=ADVANCED_FACE('',(#752),#794,.F.);
#818=ADVANCED_FACE('',(#753),#166,.F.);
#819=ADVANCED_FACE('',(#754),#167,.F.);
#820=ADVANCED_FACE('',(#755),#168,.F.);
#821=ADVANCED_FACE('',(#756),#169,.F.);
#822=ADVANCED_FACE('',(#757),#170,.T.);
#823=ADVANCED_FACE('',(#758,#759),#171,.F.);
#824=ADVANCED_FACE('',(#760,#761),#172,.F.);
#825=ADVANCED_FACE('',(#762),#173,.T.);
#826=ADVANCED_FACE('',(#763),#174,.F.);
#827=ADVANCED_FACE('',(#764),#175,.F.);
#828=ADVANCED_FACE('',(#765),#176,.F.);
#829=ADVANCED_FACE('',(#766),#795,.F.);
#830=ADVANCED_FACE('',(#767),#177,.F.);
#831=ADVANCED_FACE('',(#768,#769),#178,.F.);
#832=ADVANCED_FACE('',(#770,#771),#179,.T.);
#833=ADVANCED_FACE('',(#772),#796,.F.);
#834=ADVANCED_FACE('',(#773,#774),#180,.F.);
#835=ADVANCED_FACE('',(#775),#181,.F.);
#836=ADVANCED_FACE('',(#776),#182,.F.);
#837=ADVANCED_FACE('',(#777),#183,.F.);
#838=ADVANCED_FACE('',(#778),#184,.F.);
#839=ADVANCED_FACE('',(#779),#185,.T.);
#840=ADVANCED_FACE('',(#780,#781),#186,.F.);
#841=CLOSED_SHELL('',(#797,#798,#799,#800,#801,#802,#803,#804,#805,#806,
#807,#808,#809,#810,#811,#812,#813,#814,#815,#816,#817,#818,#819,#820,#821,
#822,#823,#824,#825,#826,#827,#828,#829,#830,#831,#832,#833,#834,#835,#836,
#837,#838,#839,#840));
#842=STYLED_ITEM('',(#843),#850);
#843=PRESENTATION_STYLE_ASSIGNMENT((#844));
#844=SURFACE_STYLE_USAGE(.BOTH.,#845);
#845=SURFACE_SIDE_STYLE('',(#846));
#846=SURFACE_STYLE_FILL_AREA(#847);
#847=FILL_AREA_STYLE('',(#848));
#848=FILL_AREA_STYLE_COLOUR('',#849);
#849=COLOUR_RGB('',0.980392156862745,0.713725490196078,0.00392156862745098);
#850=MANIFOLD_SOLID_BREP('Part 9',#841);
#851=SHAPE_DEFINITION_REPRESENTATION(#1471,#852);
#852=SHAPE_REPRESENTATION('Part 9',(#853),#1466);
#853=AXIS2_PLACEMENT_3D('',#1019,#884,#885);
#854=AXIS2_PLACEMENT_3D('',#1028,#886,#887);
#855=AXIS2_PLACEMENT_3D('',#1034,#888,#889);
#856=AXIS2_PLACEMENT_3D('',#1046,#890,#891);
#857=AXIS2_PLACEMENT_3D('',#1052,#892,#893);
#858=AXIS2_PLACEMENT_3D('',#1064,#894,#895);
#859=AXIS2_PLACEMENT_3D('',#1070,#896,#897);
#860=AXIS2_PLACEMENT_3D('',#1082,#898,#899);
#861=AXIS2_PLACEMENT_3D('',#1088,#900,#901);
#862=AXIS2_PLACEMENT_3D('',#1100,#902,#903);
#863=AXIS2_PLACEMENT_3D('',#1106,#904,#905);
#864=AXIS2_PLACEMENT_3D('',#1118,#906,#907);
#865=AXIS2_PLACEMENT_3D('',#1124,#908,#909);
#866=AXIS2_PLACEMENT_3D('',#1136,#910,#911);
#867=AXIS2_PLACEMENT_3D('',#1142,#912,#913);
#868=AXIS2_PLACEMENT_3D('',#1150,#914,#915);
#869=AXIS2_PLACEMENT_3D('',#1151,#916,#917);
#870=AXIS2_PLACEMENT_3D('',#1188,#934,#935);
#871=AXIS2_PLACEMENT_3D('',#1212,#945,#946);
#872=AXIS2_PLACEMENT_3D('',#1218,#948,#949);
#873=AXIS2_PLACEMENT_3D('',#1219,#950,#951);
#874=AXIS2_PLACEMENT_3D('',#1246,#954,#955);
#875=AXIS2_PLACEMENT_3D('',#1247,#956,#957);
#876=AXIS2_PLACEMENT_3D('',#1257,#959,#960);
#877=AXIS2_PLACEMENT_3D('',#1266,#961,#962);
#878=AXIS2_PLACEMENT_3D('',#1293,#965,#966);
#879=AXIS2_PLACEMENT_3D('',#1294,#967,#968);
#880=AXIS2_PLACEMENT_3D('',#1389,#995,#996);
#881=AXIS2_PLACEMENT_3D('',#1390,#997,#998);
#882=AXIS2_PLACEMENT_3D('',#1413,#1001,#1002);
#883=AXIS2_PLACEMENT_3D('',#1414,#1003,#1004);
#884=DIRECTION('',(0.,0.,1.));
#885=DIRECTION('',(1.,0.,0.));
#886=DIRECTION('',(-1.,0.,0.));
#887=DIRECTION('',(0.,0.,1.));
#888=DIRECTION('',(1.,-6.12323399573677E-17,0.));
#889=DIRECTION('',(0.,0.,-1.));
#890=DIRECTION('',(1.,-6.12323399573677E-17,0.));
#891=DIRECTION('',(0.,0.,-1.));
#892=DIRECTION('',(-1.,0.,0.));
#893=DIRECTION('',(0.,0.,1.));
#894=DIRECTION('',(-1.,0.,0.));
#895=DIRECTION('',(0.,0.,1.));
#896=DIRECTION('',(-1.,-1.22464679914735E-16,0.));
#897=DIRECTION('',(0.,0.,1.));
#898=DIRECTION('',(0.,6.12323399573677E-17,-1.));
#899=DIRECTION('',(0.,1.,6.12323399573677E-17));
#900=DIRECTION('',(0.,6.12323399573677E-17,-1.));
#901=DIRECTION('',(0.,1.,6.12323399573677E-17));
#902=DIRECTION('',(0.,6.12323399573677E-17,-1.));
#903=DIRECTION('',(0.,1.,6.12323399573677E-17));
#904=DIRECTION('',(0.,6.12323399573677E-17,-1.));
#905=DIRECTION('',(0.,1.,6.12323399573677E-17));
#906=DIRECTION('',(0.,-1.,0.));
#907=DIRECTION('',(0.,0.,-1.));
#908=DIRECTION('',(0.,-1.,0.));
#909=DIRECTION('',(0.,0.,-1.));
#910=DIRECTION('',(0.,-1.,0.));
#911=DIRECTION('',(0.,0.,-1.));
#912=DIRECTION('',(0.,-1.,0.));
#913=DIRECTION('',(0.,0.,-1.));
#914=DIRECTION('',(0.,-1.,0.));
#915=DIRECTION('',(0.,0.,-1.));
#916=DIRECTION('',(0.,-1.,0.));
#917=DIRECTION('',(0.,0.,-1.));
#918=DIRECTION('',(0.,0.,1.));
#919=DIRECTION('',(-1.,0.,0.));
#920=DIRECTION('',(0.,0.,1.));
#921=DIRECTION('',(-1.,0.,1.15648231731787E-15));
#922=DIRECTION('',(-1.,0.,0.));
#923=DIRECTION('',(0.,0.,1.));
#924=DIRECTION('',(-1.,0.,0.));
#925=DIRECTION('',(0.,0.,-1.));
#926=DIRECTION('',(-1.,0.,0.));
#927=DIRECTION('',(0.,0.,-1.));
#928=DIRECTION('',(-1.,0.,0.));
#929=DIRECTION('',(0.,0.,-1.));
#930=DIRECTION('',(-1.,0.,0.));
#931=DIRECTION('',(0.,0.,1.));
#932=DIRECTION('',(-1.,0.,0.));
#933=DIRECTION('',(0.,0.,-1.));
#934=DIRECTION('',(-1.,0.,0.));
#935=DIRECTION('',(0.,0.,1.));
#936=DIRECTION('',(0.,1.,6.12323399573677E-17));
#937=DIRECTION('',(0.,6.12323399573677E-17,-1.));
#938=DIRECTION('',(0.,1.,6.12323399573677E-17));
#939=DIRECTION('',(0.,0.,1.));
#940=DIRECTION('',(0.,1.,0.));
#941=DIRECTION('',(0.,0.,1.));
#942=DIRECTION('',(0.,1.,6.12323399573677E-17));
#943=DIRECTION('',(0.,6.12323399573677E-17,-1.));
#944=DIRECTION('',(0.,1.,6.12323399573677E-17));
#945=DIRECTION('',(-1.,0.,0.));
#946=DIRECTION('',(0.,0.,1.));
#947=DIRECTION('',(0.,1.,0.));
#948=DIRECTION('',(0.,-1.,0.));
#949=DIRECTION('',(0.,0.,-1.));
#950=DIRECTION('',(0.,-1.,0.));
#951=DIRECTION('',(0.,0.,-1.));
#952=DIRECTION('',(-1.,0.,0.));
#953=DIRECTION('',(-1.,0.,1.15648231731787E-15));
#954=DIRECTION('',(0.,6.12323399573677E-17,-1.));
#955=DIRECTION('',(0.,1.,6.12323399573677E-17));
#956=DIRECTION('',(0.,6.12323399573677E-17,-1.));
#957=DIRECTION('',(0.,1.,6.12323399573677E-17));
#958=DIRECTION('',(-1.,-1.15648231731787E-15,-7.08141184086923E-32));
#959=DIRECTION('',(0.,6.12323399573677E-17,-1.));
#960=DIRECTION('',(0.,1.,6.12323399573677E-17));
#961=DIRECTION('',(0.,6.12323399573677E-17,-1.));
#962=DIRECTION('',(0.,1.,6.12323399573677E-17));
#963=DIRECTION('',(-1.,-1.15648231731787E-15,-7.08141184086923E-32));
#964=DIRECTION('',(-1.,0.,0.));
#965=DIRECTION('',(-1.,0.,0.));
#966=DIRECTION('',(0.,0.,1.));
#967=DIRECTION('',(-1.,-1.22464679914735E-16,0.));
#968=DIRECTION('',(0.,0.,1.));
#969=DIRECTION('',(1.22464679914735E-16,-1.,0.));
#970=DIRECTION('',(1.,6.12323399573677E-17,0.));
#971=DIRECTION('',(0.,-1.,0.));
#972=DIRECTION('',(7.53689681904682E-17,-0.615434329660952,0.78818816654069));
#973=DIRECTION('',(1.,6.12323399573677E-17,0.));
#974=DIRECTION('',(0.,-0.615434329660952,0.78818816654069));
#975=DIRECTION('',(0.,0.,1.));
#976=DIRECTION('',(1.,6.12323399573677E-17,0.));
#977=DIRECTION('',(0.,0.,1.));
#978=DIRECTION('',(-7.53689681904689E-17,0.615434329660958,0.788188166540686));
#979=DIRECTION('',(1.,6.12323399573677E-17,0.));
#980=DIRECTION('',(0.,0.615434329660958,0.788188166540686));
#981=DIRECTION('',(1.22464679914735E-16,-1.,0.));
#982=DIRECTION('',(0.,-1.,0.));
#983=DIRECTION('',(6.12323399573677E-17,1.,0.));
#984=DIRECTION('',(0.,-1.,0.));
#985=DIRECTION('',(-1.,6.12323399573677E-17,0.));
#986=DIRECTION('',(0.,0.615434329660958,0.788188166540686));
#987=DIRECTION('',(-1.,6.12323399573677E-17,0.));
#988=DIRECTION('',(-3.76844840952344E-17,-0.615434329660958,-0.788188166540686));
#989=DIRECTION('',(0.,0.,1.));
#990=DIRECTION('',(-1.,6.12323399573677E-17,0.));
#991=DIRECTION('',(0.,0.,-1.));
#992=DIRECTION('',(0.,-0.615434329660952,0.78818816654069));
#993=DIRECTION('',(-1.,6.12323399573677E-17,0.));
#994=DIRECTION('',(3.76844840952341E-17,0.615434329660952,-0.78818816654069));
#995=DIRECTION('',(1.,-6.12323399573677E-17,0.));
#996=DIRECTION('',(0.,0.,-1.));
#997=DIRECTION('',(-1.,0.,0.));
#998=DIRECTION('',(0.,0.,1.));
#999=DIRECTION('',(6.12323399573677E-17,1.,0.));
#1000=DIRECTION('',(0.,-1.,0.));
#1001=DIRECTION('',(-1.,0.,0.));
#1002=DIRECTION('',(0.,0.,1.));
#1003=DIRECTION('',(1.,-6.12323399573677E-17,0.));
#1004=DIRECTION('',(0.,0.,-1.));
#1005=DIRECTION('',(6.12323399573677E-17,1.,0.));
#1006=DIRECTION('',(3.76844840952341E-17,0.615434329660952,-0.78818816654069));
#1007=DIRECTION('',(0.,0.,-1.));
#1008=DIRECTION('',(-3.76844840952344E-17,-0.615434329660958,-0.788188166540686));
#1009=DIRECTION('',(6.12323399573677E-17,1.,0.));
#1010=DIRECTION('',(0.,-1.,0.));
#1011=DIRECTION('',(-1.,6.12323399573677E-17,0.));
#1012=DIRECTION('',(0.,-0.615434329660952,0.78818816654069));
#1013=DIRECTION('',(-1.,6.12323399573677E-17,0.));
#1014=DIRECTION('',(0.,0.,1.));
#1015=DIRECTION('',(-1.,6.12323399573677E-17,0.));
#1016=DIRECTION('',(0.,0.615434329660958,0.788188166540686));
#1017=DIRECTION('',(-1.,6.12323399573677E-17,0.));
#1018=DIRECTION('',(0.,-1.,0.));
#1019=CARTESIAN_POINT('',(0.,0.,0.));
#1020=CARTESIAN_POINT('',(0.169402149952228,-0.0123275765428213,-0.0425485010576061));
#1021=CARTESIAN_POINT('',(0.166402149952228,-0.0123275765428213,-0.0425485010576061));
#1022=CARTESIAN_POINT('',(0.169402149952228,-0.0155275765428213,-0.0425485010576061));
#1023=CARTESIAN_POINT('',(0.166402149952228,-0.0155275765428213,-0.0425485010576061));
#1024=CARTESIAN_POINT('',(0.169402149952228,-0.0155275765428213,-0.0393485010576062));
#1025=CARTESIAN_POINT('',(0.166402149952228,-0.0155275765428213,-0.0393485010576062));
#1026=CARTESIAN_POINT('',(0.169402149952228,-0.0123275765428213,-0.0393485010576062));
#1027=CARTESIAN_POINT('',(0.166402149952228,-0.0123275765428213,-0.0393485010576062));
#1028=CARTESIAN_POINT('',(0.169402149952228,-0.0123275765428213,-0.0409485010576061));
#1029=CARTESIAN_POINT('',(0.169402149952228,-0.0123275765428213,-0.0425485010576061));
#1030=CARTESIAN_POINT('',(0.169402149952228,-0.0123275765428213,-0.0393485010576062));
#1031=CARTESIAN_POINT('',(0.169552149952228,-0.0123275765428213,-0.0425485010576061));
#1032=CARTESIAN_POINT('',(0.166252149952228,-0.0123275765428213,-0.0425485010576061));
#1033=CARTESIAN_POINT('',(0.166402149952228,-0.0123275765428213,-0.0425485010576061));
#1034=CARTESIAN_POINT('',(0.166402149952228,-0.0123275765428213,-0.0409485010576061));
#1035=CARTESIAN_POINT('',(0.166402149952228,-0.0123275765428213,-0.0393485010576062));
#1036=CARTESIAN_POINT('',(0.169552149952228,-0.0123275765428213,-0.0393485010576062));
#1037=CARTESIAN_POINT('',(0.166252149952228,-0.0123275765428213,-0.0393485010576062));
#1038=CARTESIAN_POINT('',(0.201102149952228,-0.0123275765428213,-0.0425485010576061));
#1039=CARTESIAN_POINT('',(0.198102149952228,-0.0123275765428213,-0.0425485010576061));
#1040=CARTESIAN_POINT('',(0.201102149952228,-0.0155275765428213,-0.0425485010576061));
#1041=CARTESIAN_POINT('',(0.198102149952228,-0.0155275765428213,-0.0425485010576061));
#1042=CARTESIAN_POINT('',(0.201102149952228,-0.0155275765428213,-0.0393485010576061));
#1043=CARTESIAN_POINT('',(0.198102149952228,-0.0155275765428213,-0.0393485010576062));
#1044=CARTESIAN_POINT('',(0.201102149952228,-0.0123275765428213,-0.0393485010576062));
#1045=CARTESIAN_POINT('',(0.198102149952228,-0.0123275765428213,-0.0393485010576062));
#1046=CARTESIAN_POINT('',(0.201102149952228,-0.0123275765428213,-0.0409485010576061));
#1047=CARTESIAN_POINT('',(0.201102149952228,-0.0123275765428213,-0.0393485010576062));
#1048=CARTESIAN_POINT('',(0.201102149952228,-0.0123275765428213,-0.0425485010576061));
#1049=CARTESIAN_POINT('',(0.201252149952228,-0.0123275765428213,-0.0425485010576061));
#1050=CARTESIAN_POINT('',(0.197952149952228,-0.0123275765428213,-0.0425485010576061));
#1051=CARTESIAN_POINT('',(0.198102149952228,-0.0123275765428213,-0.0425485010576061));
#1052=CARTESIAN_POINT('',(0.198102149952228,-0.0123275765428213,-0.0409485010576061));
#1053=CARTESIAN_POINT('',(0.198102149952228,-0.0123275765428213,-0.0393485010576062));
#1054=CARTESIAN_POINT('',(0.201252149952228,-0.0123275765428213,-0.0393485010576062));
#1055=CARTESIAN_POINT('',(0.197952149952228,-0.0123275765428213,-0.0393485010576062));
#1056=CARTESIAN_POINT('',(0.179902149952228,-0.0123275765428213,-0.0425485010576061));
#1057=CARTESIAN_POINT('',(0.185902149952228,-0.0123275765428213,-0.0425485010576061));
#1058=CARTESIAN_POINT('',(0.179902149952228,-0.00912757654282132,-0.0425485010576061));
#1059=CARTESIAN_POINT('',(0.185902149952228,-0.00912757654282132,-0.0425485010576061));
#1060=CARTESIAN_POINT('',(0.179902149952228,-0.00912757654282132,-0.0393485010576062));
#1061=CARTESIAN_POINT('',(0.185902149952228,-0.00912757654282132,-0.0393485010576062));
#1062=CARTESIAN_POINT('',(0.179902149952228,-0.0123275765428213,-0.0393485010576062));
#1063=CARTESIAN_POINT('',(0.185902149952228,-0.0123275765428213,-0.0393485010576062));
#1064=CARTESIAN_POINT('',(0.179902149952228,-0.0123275765428213,-0.0409485010576061));
#1065=CARTESIAN_POINT('',(0.179902149952228,-0.0123275765428213,-0.0393485010576062));
#1066=CARTESIAN_POINT('',(0.179902149952228,-0.0123275765428213,-0.0425485010576061));
#1067=CARTESIAN_POINT('',(0.179602149952228,-0.0123275765428213,-0.0425485010576061));
#1068=CARTESIAN_POINT('',(0.186202149952228,-0.0123275765428213,-0.0425485010576061));
#1069=CARTESIAN_POINT('',(0.185902149952228,-0.0123275765428213,-0.0425485010576061));
#1070=CARTESIAN_POINT('',(0.185902149952228,-0.0123275765428213,-0.0409485010576061));
#1071=CARTESIAN_POINT('',(0.185902149952228,-0.0123275765428213,-0.0393485010576062));
#1072=CARTESIAN_POINT('',(0.179602149952228,-0.0123275765428213,-0.0393485010576062));
#1073=CARTESIAN_POINT('',(0.186202149952228,-0.0123275765428213,-0.0393485010576062));
#1074=CARTESIAN_POINT('',(0.192694939656705,0.012792720660454,-0.0279485010576062));
#1075=CARTESIAN_POINT('',(0.192694939656705,0.012792720660454,-0.0309485010576061));
#1076=CARTESIAN_POINT('',(0.198280380977613,0.012792720660454,-0.0279485010576061));
#1077=CARTESIAN_POINT('',(0.198280380977613,0.012792720660454,-0.0309485010576061));
#1078=CARTESIAN_POINT('',(0.198280380977613,0.00720727933954598,-0.0279485010576061));
#1079=CARTESIAN_POINT('',(0.198280380977613,0.00720727933954598,-0.0309485010576061));
#1080=CARTESIAN_POINT('',(0.192694939656705,0.00720727933954598,-0.0279485010576062));
#1081=CARTESIAN_POINT('',(0.192694939656705,0.00720727933954598,-0.0309485010576061));
#1082=CARTESIAN_POINT('',(0.192694939656705,0.01,-0.0279485010576061));
#1083=CARTESIAN_POINT('',(0.192694939656705,0.012792720660454,-0.0279485010576061));
#1084=CARTESIAN_POINT('',(0.192694939656705,0.00720727933954598,-0.0279485010576061));
#1085=CARTESIAN_POINT('',(0.192694939656705,0.012792720660454,-0.0277985010576061));
#1086=CARTESIAN_POINT('',(0.192694939656705,0.012792720660454,-0.0310985010576061));
#1087=CARTESIAN_POINT('',(0.192694939656705,0.012792720660454,-0.0309485010576061));
#1088=CARTESIAN_POINT('',(0.192694939656705,0.01,-0.0309485010576061));
#1089=CARTESIAN_POINT('',(0.192694939656705,0.00720727933954598,-0.0309485010576061));
#1090=CARTESIAN_POINT('',(0.192694939656705,0.00720727933954598,-0.0277985010576061));
#1091=CARTESIAN_POINT('',(0.192694939656705,0.00720727933954598,-0.0310985010576061));
#1092=CARTESIAN_POINT('',(0.158831258416176,0.0127927206604543,-0.0279485010576062));
#1093=CARTESIAN_POINT('',(0.158831258416176,0.0127927206604543,-0.0309485010576061));
#1094=CARTESIAN_POINT('',(0.164416699737084,0.0127927206604543,-0.0279485010576061));
#1095=CARTESIAN_POINT('',(0.164416699737084,0.0127927206604543,-0.0309485010576061));
#1096=CARTESIAN_POINT('',(0.164416699737084,0.00720727933954628,-0.0279485010576061));
#1097=CARTESIAN_POINT('',(0.164416699737084,0.00720727933954628,-0.0309485010576061));
#1098=CARTESIAN_POINT('',(0.158831258416176,0.00720727933954628,-0.0279485010576062));
#1099=CARTESIAN_POINT('',(0.158831258416176,0.00720727933954628,-0.0309485010576061));
#1100=CARTESIAN_POINT('',(0.158831258416176,0.0100000000000003,-0.0279485010576061));
#1101=CARTESIAN_POINT('',(0.158831258416176,0.0127927206604543,-0.0279485010576061));
#1102=CARTESIAN_POINT('',(0.158831258416176,0.00720727933954628,-0.0279485010576061));
#1103=CARTESIAN_POINT('',(0.158831258416176,0.0127927206604543,-0.0277985010576061));
#1104=CARTESIAN_POINT('',(0.158831258416176,0.0127927206604543,-0.0310985010576061));
#1105=CARTESIAN_POINT('',(0.158831258416176,0.0127927206604543,-0.0309485010576061));
#1106=CARTESIAN_POINT('',(0.158831258416176,0.0100000000000003,-0.0309485010576061));
#1107=CARTESIAN_POINT('',(0.158831258416176,0.00720727933954628,-0.0309485010576061));
#1108=CARTESIAN_POINT('',(0.158831258416176,0.00720727933954628,-0.0277985010576061));
#1109=CARTESIAN_POINT('',(0.158831258416176,0.00720727933954628,-0.0310985010576061));
#1110=CARTESIAN_POINT('',(0.158831258416176,-0.003,-0.0437412217180605));
#1111=CARTESIAN_POINT('',(0.158831258416176,1.35525271560688E-19,-0.0437412217180605));
#1112=CARTESIAN_POINT('',(0.153245817095268,-0.003,-0.0437412217180605));
#1113=CARTESIAN_POINT('',(0.153245817095268,-1.01643953670516E-19,-0.0437412217180605));
#1114=CARTESIAN_POINT('',(0.153245817095268,-0.003,-0.0381557803971524));
#1115=CARTESIAN_POINT('',(0.153245817095268,-1.01643953670516E-19,-0.0381557803971524));
#1116=CARTESIAN_POINT('',(0.158831258416176,-0.003,-0.0381557803971524));
#1117=CARTESIAN_POINT('',(0.158831258416176,1.35525271560688E-19,-0.0381557803971524));
#1118=CARTESIAN_POINT('',(0.158831258416176,-0.003,-0.0409485010576064));
#1119=CARTESIAN_POINT('',(0.158831258416176,-0.003,-0.0381557803971524));
#1120=CARTESIAN_POINT('',(0.158831258416176,-0.003,-0.0437412217180605));
#1121=CARTESIAN_POINT('',(0.158831258416176,-0.00315,-0.0437412217180605));
#1122=CARTESIAN_POINT('',(0.158831258416176,0.00015,-0.0437412217180605));
#1123=CARTESIAN_POINT('',(0.158831258416176,0.,-0.0437412217180605));
#1124=CARTESIAN_POINT('',(0.158831258416176,0.,-0.0409485010576064));
#1125=CARTESIAN_POINT('',(0.158831258416176,0.,-0.0381557803971524));
#1126=CARTESIAN_POINT('',(0.158831258416176,-0.00315,-0.0381557803971524));
#1127=CARTESIAN_POINT('',(0.158831258416176,0.00015,-0.0381557803971524));
#1128=CARTESIAN_POINT('',(0.192694939656705,-0.003,-0.0437412217180602));
#1129=CARTESIAN_POINT('',(0.192694939656705,1.35525271560688E-19,-0.0437412217180602));
#1130=CARTESIAN_POINT('',(0.187109498335797,-0.003,-0.0437412217180602));
#1131=CARTESIAN_POINT('',(0.187109498335797,-1.01643953670516E-19,-0.0437412217180602));
#1132=CARTESIAN_POINT('',(0.187109498335797,-0.003,-0.0381557803971521));
#1133=CARTESIAN_POINT('',(0.187109498335797,-1.01643953670516E-19,-0.0381557803971521));
#1134=CARTESIAN_POINT('',(0.192694939656705,-0.003,-0.0381557803971521));
#1135=CARTESIAN_POINT('',(0.192694939656705,1.35525271560688E-19,-0.0381557803971521));
#1136=CARTESIAN_POINT('',(0.192694939656705,-0.003,-0.0409485010576061));
#1137=CARTESIAN_POINT('',(0.192694939656705,-0.003,-0.0381557803971521));
#1138=CARTESIAN_POINT('',(0.192694939656705,-0.003,-0.0437412217180602));
#1139=CARTESIAN_POINT('',(0.192694939656705,-0.00315,-0.0437412217180602));
#1140=CARTESIAN_POINT('',(0.192694939656705,0.00015,-0.0437412217180602));
#1141=CARTESIAN_POINT('',(0.192694939656705,0.,-0.0437412217180602));
#1142=CARTESIAN_POINT('',(0.192694939656705,0.,-0.0409485010576061));
#1143=CARTESIAN_POINT('',(0.192694939656705,0.,-0.0381557803971521));
#1144=CARTESIAN_POINT('',(0.192694939656705,-0.00315,-0.0381557803971521));
#1145=CARTESIAN_POINT('',(0.192694939656705,0.00015,-0.0381557803971521));
#1146=CARTESIAN_POINT('',(0.142402149952228,-0.003,-0.0519485010576062));
#1147=CARTESIAN_POINT('',(0.142402149952228,-0.003,-0.0299485010576061));
#1148=CARTESIAN_POINT('',(0.208402149952228,-0.003,-0.0519485010576062));
#1149=CARTESIAN_POINT('',(0.208402149952228,-0.003,-0.0299485010576061));
#1150=CARTESIAN_POINT('',(0.158831258416176,-0.003,-0.0409485010576064));
#1151=CARTESIAN_POINT('',(0.192694939656705,-0.003,-0.0409485010576061));
#1152=CARTESIAN_POINT('',(0.205402149952228,-0.003,-0.0409485010576061));
#1153=CARTESIAN_POINT('',(0.205402149952228,-0.003,-0.0509485010576062));
#1154=CARTESIAN_POINT('',(0.205402149952228,-0.003,-0.0309485010576061));
#1155=CARTESIAN_POINT('',(0.166003875035432,-0.003,-0.0309485010576061));
#1156=CARTESIAN_POINT('',(0.145402149952228,-0.003,-0.0309485010576061));
#1157=CARTESIAN_POINT('',(0.145402149952228,-0.003,-0.0359485010576061));
#1158=CARTESIAN_POINT('',(0.145402149952228,-0.003,-0.0509485010576061));
#1159=CARTESIAN_POINT('',(0.175402149952228,-0.003,-0.0509485010576062));
#1160=CARTESIAN_POINT('',(0.166003875035432,-0.003,-0.0483449371512823));
#1161=CARTESIAN_POINT('',(0.185902149952228,-0.003,-0.0483449371512823));
#1162=CARTESIAN_POINT('',(0.179902149952228,-0.003,-0.0483449371512823));
#1163=CARTESIAN_POINT('',(0.179902149952228,-0.003,-0.0409485010576061));
#1164=CARTESIAN_POINT('',(0.179902149952228,-0.003,-0.0334755470995019));
#1165=CARTESIAN_POINT('',(0.166003875035432,-0.003,-0.0334755470995019));
#1166=CARTESIAN_POINT('',(0.185902149952228,-0.003,-0.0334755470995019));
#1167=CARTESIAN_POINT('',(0.185902149952228,-0.003,-0.0409485010576061));
#1168=CARTESIAN_POINT('',(0.166003875035432,-0.003,-0.0334755470995019));
#1169=CARTESIAN_POINT('',(0.201102149952228,-0.003,-0.0334755470995019));
#1170=CARTESIAN_POINT('',(0.198102149952228,-0.003,-0.0334755470995019));
#1171=CARTESIAN_POINT('',(0.201102149952228,-0.003,-0.0409485010576061));
#1172=CARTESIAN_POINT('',(0.201102149952228,-0.003,-0.0483449371512823));
#1173=CARTESIAN_POINT('',(0.166003875035432,-0.003,-0.0483449371512823));
#1174=CARTESIAN_POINT('',(0.198102149952228,-0.003,-0.0483449371512823));
#1175=CARTESIAN_POINT('',(0.198102149952228,-0.003,-0.0409485010576061));
#1176=CARTESIAN_POINT('',(0.166003875035432,-0.003,-0.0483449371512823));
#1177=CARTESIAN_POINT('',(0.169402149952228,-0.003,-0.0483449371512823));
#1178=CARTESIAN_POINT('',(0.166402149952228,-0.003,-0.0483449371512823));
#1179=CARTESIAN_POINT('',(0.166402149952228,-0.003,-0.0409485010576061));
#1180=CARTESIAN_POINT('',(0.166402149952228,-0.003,-0.0334755470995019));
#1181=CARTESIAN_POINT('',(0.166003875035432,-0.003,-0.0334755470995019));
#1182=CARTESIAN_POINT('',(0.169402149952228,-0.003,-0.0334755470995019));
#1183=CARTESIAN_POINT('',(0.169402149952228,-0.003,-0.0409485010576061));
#1184=CARTESIAN_POINT('',(0.145402149952228,-0.00415,-0.0520985010576061));
#1185=CARTESIAN_POINT('',(0.145402149952228,0.02115,-0.0520985010576061));
#1186=CARTESIAN_POINT('',(0.145402149952228,-0.00415,-0.0267985010576062));
#1187=CARTESIAN_POINT('',(0.145402149952228,0.02115,-0.0267985010576062));
#1188=CARTESIAN_POINT('',(0.145402149952228,0.,-0.0309485010576061));
#1189=CARTESIAN_POINT('',(0.145402149952228,8.67361737988404E-19,-0.0279485010576061));
#1190=CARTESIAN_POINT('',(0.145402149952228,-0.005,-0.0279485010576061));
#1191=CARTESIAN_POINT('',(0.145402149952228,0.02,-0.0279485010576061));
#1192=CARTESIAN_POINT('',(0.145402149952228,0.02,-0.0279485010576061));
#1193=CARTESIAN_POINT('',(0.145402149952228,0.02,-0.0309485010576061));
#1194=CARTESIAN_POINT('',(0.145402149952228,-0.005,-0.0309485010576061));
#1195=CARTESIAN_POINT('',(0.145402149952228,0.,-0.0309485010576061));
#1196=CARTESIAN_POINT('',(0.145402149952228,0.,-0.0359485010576061));
#1197=CARTESIAN_POINT('',(0.145402149952228,0.,-0.0509485010576061));
#1198=CARTESIAN_POINT('',(0.145402149952228,-0.003,-0.0509485010576061));
#1199=CARTESIAN_POINT('',(0.205402149952228,-0.00415,-0.0520985010576062));
#1200=CARTESIAN_POINT('',(0.205402149952228,0.02115,-0.0520985010576062));
#1201=CARTESIAN_POINT('',(0.205402149952228,-0.00415,-0.0267985010576061));
#1202=CARTESIAN_POINT('',(0.205402149952228,0.02115,-0.0267985010576061));
#1203=CARTESIAN_POINT('',(0.205402149952228,0.,-0.0409485010576061));
#1204=CARTESIAN_POINT('',(0.205402149952228,0.,-0.0509485010576062));
#1205=CARTESIAN_POINT('',(0.205402149952228,0.,-0.0309485010576061));
#1206=CARTESIAN_POINT('',(0.205402149952228,-0.01,-0.0309485010576061));
#1207=CARTESIAN_POINT('',(0.205402149952228,0.02,-0.0309485010576061));
#1208=CARTESIAN_POINT('',(0.205402149952228,0.02,-0.0279485010576061));
#1209=CARTESIAN_POINT('',(0.205402149952228,0.02,-0.0279485010576061));
#1210=CARTESIAN_POINT('',(0.205402149952228,-0.01,-0.0279485010576061));
#1211=CARTESIAN_POINT('',(0.205402149952228,8.67361737988404E-19,-0.0279485010576061));
#1212=CARTESIAN_POINT('',(0.205402149952228,0.,-0.0309485010576061));
#1213=CARTESIAN_POINT('',(0.205402149952228,-0.003,-0.0509485010576062));
#1214=CARTESIAN_POINT('',(0.142402149952228,0.,-0.0519485010576062));
#1215=CARTESIAN_POINT('',(0.142402149952228,0.,-0.0299485010576061));
#1216=CARTESIAN_POINT('',(0.208402149952228,0.,-0.0519485010576062));
#1217=CARTESIAN_POINT('',(0.208402149952228,0.,-0.0299485010576061));
#1218=CARTESIAN_POINT('',(0.158831258416176,0.,-0.0409485010576064));
#1219=CARTESIAN_POINT('',(0.192694939656705,0.,-0.0409485010576061));
#1220=CARTESIAN_POINT('',(0.166003875035432,0.,-0.0309485010576061));
#1221=CARTESIAN_POINT('',(0.175402149952228,0.,-0.0509485010576062));
#1222=CARTESIAN_POINT('',(0.208402149952228,-0.00315,-0.0509485010576062));
#1223=CARTESIAN_POINT('',(0.208402149952228,0.00015,-0.0509485010576062));
#1224=CARTESIAN_POINT('',(0.142402149952228,-0.00315,-0.0509485010576062));
#1225=CARTESIAN_POINT('',(0.142402149952228,0.00015,-0.0509485010576062));
#1226=CARTESIAN_POINT('',(0.192694939656705,-0.003,-0.0381557803971521));
#1227=CARTESIAN_POINT('',(0.192694939656705,1.35525271560688E-19,-0.0381557803971521));
#1228=CARTESIAN_POINT('',(0.198280380977613,-0.003,-0.0381557803971521));
#1229=CARTESIAN_POINT('',(0.198280380977613,-1.01643953670516E-19,-0.0381557803971521));
#1230=CARTESIAN_POINT('',(0.198280380977613,-0.003,-0.0437412217180602));
#1231=CARTESIAN_POINT('',(0.198280380977613,-1.01643953670516E-19,-0.0437412217180602));
#1232=CARTESIAN_POINT('',(0.192694939656705,-0.003,-0.0437412217180602));
#1233=CARTESIAN_POINT('',(0.192694939656705,1.35525271560688E-19,-0.0437412217180602));
#1234=CARTESIAN_POINT('',(0.158831258416176,-0.003,-0.0381557803971524));
#1235=CARTESIAN_POINT('',(0.158831258416176,1.35525271560688E-19,-0.0381557803971524));
#1236=CARTESIAN_POINT('',(0.164416699737084,-0.003,-0.0381557803971524));
#1237=CARTESIAN_POINT('',(0.164416699737084,-1.01643953670516E-19,-0.0381557803971524));
#1238=CARTESIAN_POINT('',(0.164416699737084,-0.003,-0.0437412217180605));
#1239=CARTESIAN_POINT('',(0.164416699737084,-1.01643953670516E-19,-0.0437412217180605));
#1240=CARTESIAN_POINT('',(0.158831258416176,-0.003,-0.0437412217180605));
#1241=CARTESIAN_POINT('',(0.158831258416176,1.35525271560688E-19,-0.0437412217180605));
#1242=CARTESIAN_POINT('',(0.142402149952228,-0.000999999999999999,-0.0309485010576061));
#1243=CARTESIAN_POINT('',(0.142402149952228,0.021,-0.0309485010576061));
#1244=CARTESIAN_POINT('',(0.208402149952228,-0.000999999999999999,-0.0309485010576061));
#1245=CARTESIAN_POINT('',(0.208402149952228,0.021,-0.0309485010576061));
#1246=CARTESIAN_POINT('',(0.192694939656705,0.01,-0.0309485010576061));
#1247=CARTESIAN_POINT('',(0.158831258416176,0.0100000000000003,-0.0309485010576061));
#1248=CARTESIAN_POINT('',(0.175402149952228,0.02,-0.0309485010576061));
#1249=CARTESIAN_POINT('',(0.158831258416176,0.00720727933954627,-0.0279485010576061));
#1250=CARTESIAN_POINT('',(0.158831258416176,0.00720727933954628,-0.0309485010576061));
#1251=CARTESIAN_POINT('',(0.153245817095268,0.00720727933954627,-0.0279485010576061));
#1252=CARTESIAN_POINT('',(0.153245817095268,0.00720727933954627,-0.0309485010576061));
#1253=CARTESIAN_POINT('',(0.153245817095268,0.0127927206604543,-0.0279485010576061));
#1254=CARTESIAN_POINT('',(0.153245817095268,0.0127927206604543,-0.0309485010576061));
#1255=CARTESIAN_POINT('',(0.158831258416176,0.0127927206604543,-0.0279485010576061));
#1256=CARTESIAN_POINT('',(0.158831258416176,0.0127927206604543,-0.0309485010576061));
#1257=CARTESIAN_POINT('',(0.158831258416176,0.0100000000000003,-0.0279485010576061));
#1258=CARTESIAN_POINT('',(0.192694939656705,0.00720727933954598,-0.0279485010576062));
#1259=CARTESIAN_POINT('',(0.192694939656705,0.00720727933954598,-0.0309485010576061));
#1260=CARTESIAN_POINT('',(0.187109498335797,0.00720727933954598,-0.0279485010576061));
#1261=CARTESIAN_POINT('',(0.187109498335797,0.00720727933954598,-0.0309485010576061));
#1262=CARTESIAN_POINT('',(0.187109498335797,0.012792720660454,-0.0279485010576061));
#1263=CARTESIAN_POINT('',(0.187109498335797,0.012792720660454,-0.0309485010576061));
#1264=CARTESIAN_POINT('',(0.192694939656705,0.012792720660454,-0.0279485010576062));
#1265=CARTESIAN_POINT('',(0.192694939656705,0.012792720660454,-0.0309485010576061));
#1266=CARTESIAN_POINT('',(0.192694939656705,0.01,-0.0279485010576061));
#1267=CARTESIAN_POINT('',(0.208402149952228,0.02,-0.0310985010576061));
#1268=CARTESIAN_POINT('',(0.208402149952228,0.02,-0.0277985010576061));
#1269=CARTESIAN_POINT('',(0.142402149952228,0.02,-0.0310985010576061));
#1270=CARTESIAN_POINT('',(0.142402149952228,0.02,-0.0277985010576061));
#1271=CARTESIAN_POINT('',(0.175402149952228,0.02,-0.0279485010576061));
#1272=CARTESIAN_POINT('',(0.142402149952228,-0.000999999999999997,-0.0279485010576061));
#1273=CARTESIAN_POINT('',(0.142402149952228,0.021,-0.0279485010576061));
#1274=CARTESIAN_POINT('',(0.208402149952228,-0.000999999999999997,-0.0279485010576061));
#1275=CARTESIAN_POINT('',(0.208402149952228,0.021,-0.0279485010576061));
#1276=CARTESIAN_POINT('',(0.166003875035432,8.67361737988404E-19,-0.0279485010576061));
#1277=CARTESIAN_POINT('',(0.208402149952228,-0.00294686175218607,-0.0315106450013633));
#1278=CARTESIAN_POINT('',(0.142402149952228,-0.00294686175218607,-0.0315106450013633));
#1279=CARTESIAN_POINT('',(0.208402149952228,-0.00338462242665204,-0.0292158231812208));
#1280=CARTESIAN_POINT('',(0.142402149952228,-0.00338462242665204,-0.0292158231812208));
#1281=CARTESIAN_POINT('',(0.208402149952228,-0.00173267787638539,-0.0275638786309541));
#1282=CARTESIAN_POINT('',(0.142402149952228,-0.00173267787638539,-0.0275638786309541));
#1283=CARTESIAN_POINT('',(0.208402149952228,0.000562143943757173,-0.0280016393054201));
#1284=CARTESIAN_POINT('',(0.142402149952228,0.000562143943757173,-0.0280016393054201));
#1285=CARTESIAN_POINT('',(0.179902149952228,-0.0123275765428213,-0.0393485010576062));
#1286=CARTESIAN_POINT('',(0.185902149952228,-0.0123275765428213,-0.0393485010576062));
#1287=CARTESIAN_POINT('',(0.179902149952228,-0.0155275765428213,-0.0393485010576062));
#1288=CARTESIAN_POINT('',(0.185902149952228,-0.0155275765428213,-0.0393485010576062));
#1289=CARTESIAN_POINT('',(0.179902149952228,-0.0155275765428213,-0.0425485010576061));
#1290=CARTESIAN_POINT('',(0.185902149952228,-0.0155275765428213,-0.0425485010576061));
#1291=CARTESIAN_POINT('',(0.179902149952228,-0.0123275765428213,-0.0425485010576061));
#1292=CARTESIAN_POINT('',(0.185902149952228,-0.0123275765428213,-0.0425485010576061));
#1293=CARTESIAN_POINT('',(0.179902149952228,-0.0123275765428213,-0.0409485010576061));
#1294=CARTESIAN_POINT('',(0.185902149952228,-0.0123275765428213,-0.0409485010576061));
#1295=CARTESIAN_POINT('',(0.186202149952228,-0.0182453470945503,-0.0483449371512823));
#1296=CARTESIAN_POINT('',(0.179602149952228,-0.0182453470945503,-0.0483449371512823));
#1297=CARTESIAN_POINT('',(0.186202149952228,-0.0022740310907357,-0.0483449371512823));
#1298=CARTESIAN_POINT('',(0.179602149952228,-0.0022740310907357,-0.0483449371512823));
#1299=CARTESIAN_POINT('',(0.185902149952228,-0.0100193781852859,-0.0483449371512823));
#1300=CARTESIAN_POINT('',(0.185902149952228,-0.017519378185286,-0.0483449371512823));
#1301=CARTESIAN_POINT('',(0.179902149952228,-0.017519378185286,-0.0483449371512823));
#1302=CARTESIAN_POINT('',(0.179902149952228,-0.017519378185286,-0.0483449371512823));
#1303=CARTESIAN_POINT('',(0.179902149952228,-0.0100193781852859,-0.0483449371512823));
#1304=CARTESIAN_POINT('',(0.186202149952228,-0.020750408416006,-0.0442069492769437));
#1305=CARTESIAN_POINT('',(0.179602149952228,-0.020750408416006,-0.0442069492769437));
#1306=CARTESIAN_POINT('',(0.186202149952228,-0.0173655196028708,-0.0485419841929175));
#1307=CARTESIAN_POINT('',(0.179602149952228,-0.0173655196028708,-0.0485419841929175));
#1308=CARTESIAN_POINT('',(0.185902149952228,-0.0190579640094383,-0.0463744667349306));
#1309=CARTESIAN_POINT('',(0.185902149952228,-0.0205965498335908,-0.0444039963185788));
#1310=CARTESIAN_POINT('',(0.179902149952228,-0.0205965498335908,-0.0444039963185788));
#1311=CARTESIAN_POINT('',(0.179902149952228,-0.0205965498335908,-0.0444039963185788));
#1312=CARTESIAN_POINT('',(0.179902149952228,-0.0190579640094383,-0.0463744667349306));
#1313=CARTESIAN_POINT('',(0.186202149952228,-0.0205965498335908,-0.0370671125128866));
#1314=CARTESIAN_POINT('',(0.179602149952228,-0.0205965498335908,-0.0370671125128866));
#1315=CARTESIAN_POINT('',(0.186202149952228,-0.0205965498335908,-0.0447533717378975));
#1316=CARTESIAN_POINT('',(0.179602149952228,-0.0205965498335908,-0.0447533717378975));
#1317=CARTESIAN_POINT('',(0.185902149952228,-0.0205965498335908,-0.0409102421253921));
#1318=CARTESIAN_POINT('',(0.185902149952228,-0.0205965498335908,-0.0374164879322053));
#1319=CARTESIAN_POINT('',(0.179902149952228,-0.0205965498335908,-0.0374164879322053));
#1320=CARTESIAN_POINT('',(0.179902149952228,-0.0205965498335908,-0.0374164879322053));
#1321=CARTESIAN_POINT('',(0.179902149952228,-0.0205965498335908,-0.0409102421253921));
#1322=CARTESIAN_POINT('',(0.186202149952228,-0.0173655196028707,-0.0332785000578667));
#1323=CARTESIAN_POINT('',(0.179602149952228,-0.0173655196028707,-0.0332785000578667));
#1324=CARTESIAN_POINT('',(0.186202149952228,-0.020750408416006,-0.0376135349738405));
#1325=CARTESIAN_POINT('',(0.179602149952228,-0.020750408416006,-0.0376135349738405));
#1326=CARTESIAN_POINT('',(0.185902149952228,-0.0190579640094383,-0.0354460175158536));
#1327=CARTESIAN_POINT('',(0.185902149952228,-0.0175193781852859,-0.0334755470995019));
#1328=CARTESIAN_POINT('',(0.179902149952228,-0.0175193781852859,-0.0334755470995019));
#1329=CARTESIAN_POINT('',(0.179902149952228,-0.0175193781852859,-0.0334755470995019));
#1330=CARTESIAN_POINT('',(0.179902149952228,-0.0190579640094383,-0.0354460175158536));
#1331=CARTESIAN_POINT('',(0.186202149952228,-0.0182453470945502,-0.0334755470995019));
#1332=CARTESIAN_POINT('',(0.179602149952228,-0.0182453470945502,-0.0334755470995019));
#1333=CARTESIAN_POINT('',(0.186202149952228,-0.0022740310907357,-0.0334755470995019));
#1334=CARTESIAN_POINT('',(0.179602149952228,-0.0022740310907357,-0.0334755470995019));
#1335=CARTESIAN_POINT('',(0.185902149952228,-0.0100193781852859,-0.0334755470995019));
#1336=CARTESIAN_POINT('',(0.179902149952228,-0.0100193781852859,-0.0334755470995019));
#1337=CARTESIAN_POINT('',(0.179902149952228,-0.00212017250832046,-0.0327320775969129));
#1338=CARTESIAN_POINT('',(0.179902149952228,-0.00212017250832046,-0.0490884066538713));
#1339=CARTESIAN_POINT('',(0.179902149952228,-0.0214763773252703,-0.0327320775969129));
#1340=CARTESIAN_POINT('',(0.179902149952228,-0.0214763773252703,-0.0490884066538713));
#1341=CARTESIAN_POINT('',(0.185902149952228,-0.00212017250832046,-0.0490884066538713));
#1342=CARTESIAN_POINT('',(0.185902149952228,-0.00212017250832046,-0.0327320775969129));
#1343=CARTESIAN_POINT('',(0.185902149952228,-0.0214763773252703,-0.0490884066538713));
#1344=CARTESIAN_POINT('',(0.185902149952228,-0.0214763773252703,-0.0327320775969129));
#1345=CARTESIAN_POINT('',(0.201252149952228,-0.0182453470945502,-0.0334755470995019));
#1346=CARTESIAN_POINT('',(0.197952149952228,-0.0182453470945502,-0.0334755470995019));
#1347=CARTESIAN_POINT('',(0.201252149952228,-0.0022740310907357,-0.0334755470995019));
#1348=CARTESIAN_POINT('',(0.197952149952228,-0.0022740310907357,-0.0334755470995019));
#1349=CARTESIAN_POINT('',(0.201102149952228,-0.0100193781852859,-0.0334755470995019));
#1350=CARTESIAN_POINT('',(0.201102149952228,-0.0175193781852859,-0.0334755470995019));
#1351=CARTESIAN_POINT('',(0.198102149952228,-0.0100193781852859,-0.0334755470995019));
#1352=CARTESIAN_POINT('',(0.198102149952228,-0.0175193781852859,-0.0334755470995019));
#1353=CARTESIAN_POINT('',(0.198102149952228,-0.0175193781852859,-0.0334755470995019));
#1354=CARTESIAN_POINT('',(0.201252149952228,-0.0173655196028707,-0.0332785000578667));
#1355=CARTESIAN_POINT('',(0.197952149952228,-0.0173655196028707,-0.0332785000578667));
#1356=CARTESIAN_POINT('',(0.201252149952228,-0.020750408416006,-0.0376135349738405));
#1357=CARTESIAN_POINT('',(0.197952149952228,-0.020750408416006,-0.0376135349738405));
#1358=CARTESIAN_POINT('',(0.198102149952228,-0.0190579640094383,-0.0354460175158536));
#1359=CARTESIAN_POINT('',(0.198102149952228,-0.0205965498335908,-0.0374164879322053));
#1360=CARTESIAN_POINT('',(0.198102149952228,-0.0205965498335908,-0.0374164879322053));
#1361=CARTESIAN_POINT('',(0.201102149952228,-0.0205965498335908,-0.0374164879322053));
#1362=CARTESIAN_POINT('',(0.201102149952228,-0.0190579640094383,-0.0354460175158536));
#1363=CARTESIAN_POINT('',(0.201252149952228,-0.0205965498335908,-0.0370671125128866));
#1364=CARTESIAN_POINT('',(0.197952149952228,-0.0205965498335908,-0.0370671125128866));
#1365=CARTESIAN_POINT('',(0.201252149952228,-0.0205965498335908,-0.0447533717378975));
#1366=CARTESIAN_POINT('',(0.197952149952228,-0.0205965498335908,-0.0447533717378975));
#1367=CARTESIAN_POINT('',(0.198102149952228,-0.0205965498335908,-0.0409102421253921));
#1368=CARTESIAN_POINT('',(0.198102149952228,-0.0205965498335908,-0.0444039963185788));
#1369=CARTESIAN_POINT('',(0.198102149952228,-0.0205965498335908,-0.0444039963185788));
#1370=CARTESIAN_POINT('',(0.201102149952228,-0.0205965498335908,-0.0444039963185788));
#1371=CARTESIAN_POINT('',(0.201102149952228,-0.0205965498335908,-0.0409102421253921));
#1372=CARTESIAN_POINT('',(0.201252149952228,-0.020750408416006,-0.0442069492769437));
#1373=CARTESIAN_POINT('',(0.197952149952228,-0.020750408416006,-0.0442069492769437));
#1374=CARTESIAN_POINT('',(0.201252149952228,-0.0173655196028708,-0.0485419841929175));
#1375=CARTESIAN_POINT('',(0.197952149952228,-0.0173655196028708,-0.0485419841929175));
#1376=CARTESIAN_POINT('',(0.198102149952228,-0.0190579640094383,-0.0463744667349306));
#1377=CARTESIAN_POINT('',(0.198102149952228,-0.017519378185286,-0.0483449371512823));
#1378=CARTESIAN_POINT('',(0.198102149952228,-0.017519378185286,-0.0483449371512823));
#1379=CARTESIAN_POINT('',(0.201102149952228,-0.017519378185286,-0.0483449371512823));
#1380=CARTESIAN_POINT('',(0.201102149952228,-0.0190579640094383,-0.0463744667349306));
#1381=CARTESIAN_POINT('',(0.201102149952228,-0.0123275765428213,-0.0393485010576062));
#1382=CARTESIAN_POINT('',(0.198102149952228,-0.0123275765428213,-0.0393485010576062));
#1383=CARTESIAN_POINT('',(0.201102149952228,-0.00912757654282132,-0.0393485010576062));
#1384=CARTESIAN_POINT('',(0.198102149952228,-0.00912757654282132,-0.0393485010576062));
#1385=CARTESIAN_POINT('',(0.201102149952228,-0.00912757654282132,-0.0425485010576061));
#1386=CARTESIAN_POINT('',(0.198102149952228,-0.00912757654282132,-0.0425485010576061));
#1387=CARTESIAN_POINT('',(0.201102149952228,-0.0123275765428213,-0.0425485010576061));
#1388=CARTESIAN_POINT('',(0.198102149952228,-0.0123275765428213,-0.0425485010576061));
#1389=CARTESIAN_POINT('',(0.201102149952228,-0.0123275765428213,-0.0409485010576061));
#1390=CARTESIAN_POINT('',(0.198102149952228,-0.0123275765428213,-0.0409485010576061));
#1391=CARTESIAN_POINT('',(0.201252149952228,-0.0182453470945503,-0.0483449371512823));
#1392=CARTESIAN_POINT('',(0.197952149952228,-0.0182453470945503,-0.0483449371512823));
#1393=CARTESIAN_POINT('',(0.201252149952228,-0.0022740310907357,-0.0483449371512823));
#1394=CARTESIAN_POINT('',(0.197952149952228,-0.0022740310907357,-0.0483449371512823));
#1395=CARTESIAN_POINT('',(0.201102149952228,-0.0100193781852859,-0.0483449371512823));
#1396=CARTESIAN_POINT('',(0.198102149952228,-0.0100193781852859,-0.0483449371512823));
#1397=CARTESIAN_POINT('',(0.201102149952228,-0.0214763773252703,-0.0327320775969129));
#1398=CARTESIAN_POINT('',(0.201102149952228,-0.0214763773252703,-0.0490884066538713));
#1399=CARTESIAN_POINT('',(0.201102149952228,-0.00212017250832046,-0.0327320775969129));
#1400=CARTESIAN_POINT('',(0.201102149952228,-0.00212017250832046,-0.0490884066538713));
#1401=CARTESIAN_POINT('',(0.198102149952228,-0.00212017250832046,-0.0490884066538713));
#1402=CARTESIAN_POINT('',(0.198102149952228,-0.00212017250832046,-0.0327320775969129));
#1403=CARTESIAN_POINT('',(0.198102149952228,-0.0214763773252703,-0.0490884066538713));
#1404=CARTESIAN_POINT('',(0.198102149952228,-0.0214763773252703,-0.0327320775969129));
#1405=CARTESIAN_POINT('',(0.169402149952228,-0.0123275765428213,-0.0393485010576062));
#1406=CARTESIAN_POINT('',(0.166402149952228,-0.0123275765428213,-0.0393485010576062));
#1407=CARTESIAN_POINT('',(0.169402149952228,-0.00912757654282132,-0.0393485010576062));
#1408=CARTESIAN_POINT('',(0.166402149952228,-0.00912757654282132,-0.0393485010576062));
#1409=CARTESIAN_POINT('',(0.169402149952228,-0.00912757654282132,-0.0425485010576062));
#1410=CARTESIAN_POINT('',(0.166402149952228,-0.00912757654282132,-0.0425485010576061));
#1411=CARTESIAN_POINT('',(0.169402149952228,-0.0123275765428213,-0.0425485010576062));
#1412=CARTESIAN_POINT('',(0.166402149952228,-0.0123275765428213,-0.0425485010576061));
#1413=CARTESIAN_POINT('',(0.169402149952228,-0.0123275765428213,-0.0409485010576061));
#1414=CARTESIAN_POINT('',(0.166402149952228,-0.0123275765428213,-0.0409485010576061));
#1415=CARTESIAN_POINT('',(0.166402149952228,-0.0214763773252703,-0.0490884066538713));
#1416=CARTESIAN_POINT('',(0.166402149952228,-0.0214763773252703,-0.0327320775969129));
#1417=CARTESIAN_POINT('',(0.166402149952228,-0.00212017250832046,-0.0490884066538713));
#1418=CARTESIAN_POINT('',(0.166402149952228,-0.00212017250832046,-0.0327320775969129));
#1419=CARTESIAN_POINT('',(0.166402149952228,-0.0100193781852859,-0.0483449371512823));
#1420=CARTESIAN_POINT('',(0.166402149952228,-0.017519378185286,-0.0483449371512823));
#1421=CARTESIAN_POINT('',(0.166402149952228,-0.0190579640094383,-0.0463744667349306));
#1422=CARTESIAN_POINT('',(0.166402149952228,-0.0205965498335908,-0.0444039963185788));
#1423=CARTESIAN_POINT('',(0.166402149952228,-0.0205965498335908,-0.0409102421253921));
#1424=CARTESIAN_POINT('',(0.166402149952228,-0.0205965498335908,-0.0374164879322053));
#1425=CARTESIAN_POINT('',(0.166402149952228,-0.0190579640094383,-0.0354460175158536));
#1426=CARTESIAN_POINT('',(0.166402149952228,-0.0175193781852859,-0.0334755470995019));
#1427=CARTESIAN_POINT('',(0.166402149952228,-0.0100193781852859,-0.0334755470995019));
#1428=CARTESIAN_POINT('',(0.169552149952228,-0.0182453470945503,-0.0483449371512823));
#1429=CARTESIAN_POINT('',(0.166252149952228,-0.0182453470945503,-0.0483449371512823));
#1430=CARTESIAN_POINT('',(0.169552149952228,-0.0022740310907357,-0.0483449371512823));
#1431=CARTESIAN_POINT('',(0.166252149952228,-0.0022740310907357,-0.0483449371512823));
#1432=CARTESIAN_POINT('',(0.169402149952228,-0.0100193781852859,-0.0483449371512823));
#1433=CARTESIAN_POINT('',(0.169402149952228,-0.017519378185286,-0.0483449371512823));
#1434=CARTESIAN_POINT('',(0.169402149952228,-0.017519378185286,-0.0483449371512823));
#1435=CARTESIAN_POINT('',(0.169552149952228,-0.020750408416006,-0.0442069492769437));
#1436=CARTESIAN_POINT('',(0.166252149952228,-0.020750408416006,-0.0442069492769437));
#1437=CARTESIAN_POINT('',(0.169552149952228,-0.0173655196028708,-0.0485419841929175));
#1438=CARTESIAN_POINT('',(0.166252149952228,-0.0173655196028708,-0.0485419841929175));
#1439=CARTESIAN_POINT('',(0.169402149952228,-0.0190579640094383,-0.0463744667349306));
#1440=CARTESIAN_POINT('',(0.169402149952228,-0.0205965498335908,-0.0444039963185788));
#1441=CARTESIAN_POINT('',(0.169402149952228,-0.0205965498335908,-0.0444039963185788));
#1442=CARTESIAN_POINT('',(0.169552149952228,-0.0205965498335908,-0.0370671125128866));
#1443=CARTESIAN_POINT('',(0.166252149952228,-0.0205965498335908,-0.0370671125128866));
#1444=CARTESIAN_POINT('',(0.169552149952228,-0.0205965498335908,-0.0447533717378975));
#1445=CARTESIAN_POINT('',(0.166252149952228,-0.0205965498335908,-0.0447533717378975));
#1446=CARTESIAN_POINT('',(0.169402149952228,-0.0205965498335908,-0.0409102421253921));
#1447=CARTESIAN_POINT('',(0.169402149952228,-0.0205965498335908,-0.0374164879322053));
#1448=CARTESIAN_POINT('',(0.169402149952228,-0.0205965498335908,-0.0374164879322053));
#1449=CARTESIAN_POINT('',(0.169552149952228,-0.0173655196028707,-0.0332785000578667));
#1450=CARTESIAN_POINT('',(0.166252149952228,-0.0173655196028707,-0.0332785000578667));
#1451=CARTESIAN_POINT('',(0.169552149952228,-0.020750408416006,-0.0376135349738405));
#1452=CARTESIAN_POINT('',(0.166252149952228,-0.020750408416006,-0.0376135349738405));
#1453=CARTESIAN_POINT('',(0.169402149952228,-0.0190579640094383,-0.0354460175158536));
#1454=CARTESIAN_POINT('',(0.169402149952228,-0.0175193781852859,-0.0334755470995019));
#1455=CARTESIAN_POINT('',(0.169402149952228,-0.0175193781852859,-0.0334755470995019));
#1456=CARTESIAN_POINT('',(0.169552149952228,-0.0182453470945502,-0.0334755470995019));
#1457=CARTESIAN_POINT('',(0.166252149952228,-0.0182453470945502,-0.0334755470995019));
#1458=CARTESIAN_POINT('',(0.169552149952228,-0.0022740310907357,-0.0334755470995019));
#1459=CARTESIAN_POINT('',(0.166252149952228,-0.0022740310907357,-0.0334755470995019));
#1460=CARTESIAN_POINT('',(0.169402149952228,-0.0100193781852859,-0.0334755470995019));
#1461=CARTESIAN_POINT('',(0.169402149952228,-0.00212017250832046,-0.0490884066538713));
#1462=CARTESIAN_POINT('',(0.169402149952228,-0.00212017250832046,-0.0327320775969129));
#1463=CARTESIAN_POINT('',(0.169402149952228,-0.0214763773252703,-0.0490884066538713));
#1464=CARTESIAN_POINT('',(0.169402149952228,-0.0214763773252703,-0.0327320775969129));
#1465=MECHANICAL_DESIGN_GEOMETRIC_PRESENTATION_REPRESENTATION('',(#842),
#1466);
#1466=(
GEOMETRIC_REPRESENTATION_CONTEXT(3)
GLOBAL_UNCERTAINTY_ASSIGNED_CONTEXT((#1467))
GLOBAL_UNIT_ASSIGNED_CONTEXT((#1470,#1469,#1468))
REPRESENTATION_CONTEXT('Part 9','TOP_LEVEL_ASSEMBLY_PART')
);
#1467=UNCERTAINTY_MEASURE_WITH_UNIT(LENGTH_MEASURE(1.E-8),#1470,
'DISTANCE_ACCURACY_VALUE','Maximum Tolerance applied to model');
#1468=(
NAMED_UNIT(*)
SI_UNIT($,.STERADIAN.)
SOLID_ANGLE_UNIT()
);
#1469=(
NAMED_UNIT(*)
PLANE_ANGLE_UNIT()
SI_UNIT($,.RADIAN.)
);
#1470=(
LENGTH_UNIT()
NAMED_UNIT(*)
SI_UNIT($,.METRE.)
);
#1471=PRODUCT_DEFINITION_SHAPE('','',#1472);
#1472=PRODUCT_DEFINITION('','',#1474,#1473);
#1473=PRODUCT_DEFINITION_CONTEXT('',#1480,'design');
#1474=PRODUCT_DEFINITION_FORMATION_WITH_SPECIFIED_SOURCE('','',#1476,
 .NOT_KNOWN.);
#1475=PRODUCT_RELATED_PRODUCT_CATEGORY('','',(#1476));
#1476=PRODUCT('Part 9','Part 9','Part 9',(#1478));
#1477=PRODUCT_CATEGORY('','');
#1478=PRODUCT_CONTEXT('',#1480,'mechanical');
#1479=APPLICATION_PROTOCOL_DEFINITION('international standard',
'ap242_managed_model_based_3d_engineering',2020,#1480);
#1480=APPLICATION_CONTEXT('managed model based 3d engineering');
ENDSEC;
END-ISO-10303-21;
